<svg xmlns="http://www.w3.org/2000/svg" xmlns:xlink="http://www.w3.org/1999/xlink" width="60.069" height="63.206" viewBox="0 0 60.069 63.206">
  <defs>
    <clipPath id="clip-path">
      <rect id="Rectangle_3" data-name="Rectangle 3" width="60.069" height="63.206" fill="#fff"/>
    </clipPath>
  </defs>
  <g id="asic" clip-path="url(#clip-path)">
    <path id="Path_78" data-name="Path 78" d="M2.507,39.1.173,43.988h-.1A6.864,6.864,0,0,1,0,43.257V.815C0,0,0,0,.821,0H35.365l.06.128a3.518,3.518,0,0,1-.34.358c-1.847,1.465-3.746,2.886-5.537,4.405-1.63,1.376-3.226,2.788-4.734,4.286-1.979,1.967-3.862,4.023-5.766,6.062-.66.71-1.251,1.492-1.871,2.224a.182.182,0,0,0-.033.194l.686-.645c1.283-1.236,2.54-2.5,3.853-3.7,1.146-1.057,2.325-2.089,3.543-3.059,1.158-.931,2.349-1.836,3.582-2.656,1.716-1.134,3.474-2.215,5.247-3.256a25.206,25.206,0,0,1,2.7-1.286c.848-.364,1.71-.722,2.585-1.012a23.722,23.722,0,0,1,2.483-.651,14.258,14.258,0,0,1,4.3-.275A7.186,7.186,0,0,1,51.542,3.97a8.226,8.226,0,0,1,1.522,3.988,17.924,17.924,0,0,1,.17,2.707,25.431,25.431,0,0,1-.364,3.185,31.432,31.432,0,0,1-.683,3.1c-.257.952-.579,1.889-.925,2.812-.391,1.033-.827,2.047-1.274,3.059-.388.877-.794,1.749-1.242,2.6-.579,1.1-1.164,2.209-1.824,3.265-1.194,1.9-2.355,3.814-3.668,5.623-1.543,2.131-3.2,4.179-4.862,6.22-.785.961-1.68,1.856-2.546,2.752-1.448,1.465-2.88,2.952-4.4,4.343a59.654,59.654,0,0,1-11.6,8.408c-1.28.7-2.624,1.277-3.964,1.874A22.3,22.3,0,0,1,13.1,58.9a16.681,16.681,0,0,1-5.432.683,9.023,9.023,0,0,1-2.946-.642,6.483,6.483,0,0,1-3.364-3.015,10.637,10.637,0,0,1-1.14-4.14A21.445,21.445,0,0,1,.785,45.4a35.577,35.577,0,0,1,1.471-4.847c.143-.391.275-.785.4-1.179a.758.758,0,0,0,0-.233Zm10.446-4.477a7.972,7.972,0,0,1-.716-1.1c-.489-1.137-.934-2.292-1.394-3.444S9.906,27.695,9.429,26.5q-.8-1.988-1.609-3.964c-.042-.1-.188-.26-.242-.245a.522.522,0,0,0-.3.26c-.3.719-.6,1.448-.9,2.176-.415,1.069-.836,2.134-1.265,3.209C4.5,29.47,3.9,31.011,3.253,32.53c-.278.657-.358,1.427-1,1.9-.03.021.027.242.051.242a6.268,6.268,0,0,0,.916,0c.042,0,.084-.188.1-.3a3.262,3.262,0,0,1,.072-.648c.54-1.394,1.107-2.782,1.653-4.179a.573.573,0,0,1,.627-.415H8.5a.487.487,0,0,1,.534.355c.489,1.239,1.018,2.462,1.492,3.71.149.4.5.785.3,1.286,0,.042.152.233.236.236.57.018,1.143,0,1.713,0a.543.543,0,0,0,.173-.1ZM37.744,24.158l.1-.084c-.137-.334-.263-.672-.421-1a.531.531,0,0,0-.275-.209,8.784,8.784,0,0,0-3.7-.689A7.163,7.163,0,0,0,29.7,23.3a6.5,6.5,0,0,0-2.985,5.1,6,6,0,0,0,1.731,4.829A6.219,6.219,0,0,0,32.482,34.9a15.267,15.267,0,0,0,4.868-.316c1.066-.233,1.107-.248,1.573-1.125a1.767,1.767,0,0,0,.1-.3l-.075-.057c-.134.087-.266.179-.4.263a7.487,7.487,0,0,1-.827.486,8.33,8.33,0,0,1-3.582.7,5.841,5.841,0,0,1-4.775-2.528,8.375,8.375,0,0,1-1.245-2.937,4.895,4.895,0,0,1,1.242-4.877,5.1,5.1,0,0,1,2.961-1.534,6,6,0,0,1,4.987,1.265,2.212,2.212,0,0,0,.427.209Zm-17.365-.239.113-.119c-.2-.466-.146-1.125-.743-1.313a4.839,4.839,0,0,0-3.582.033,3.4,3.4,0,0,0-1.194,5.154,5.39,5.39,0,0,0,2.432,1.412,9.712,9.712,0,0,1,2.456,1.134,2.03,2.03,0,0,1,.7,2.113A2.534,2.534,0,0,1,18.776,34.1a5.325,5.325,0,0,1-2.722,0,2.079,2.079,0,0,1-1.677-1.388c-.09-.278-.2-.546-.3-.818h-.09a2.9,2.9,0,0,0-.1.5c0,.654,0,1.31.021,1.967,0,.3.2.388.454.379,1.43-.039,2.859-.063,4.286-.137a2.218,2.218,0,0,0,1.012-.319A3.454,3.454,0,0,0,19.9,28.5a11.856,11.856,0,0,0-2.459-1.092,5.368,5.368,0,0,1-1.848-.872,1.654,1.654,0,0,1-.5-.71,2.437,2.437,0,0,1,2.456-3.182,3.3,3.3,0,0,1,2.45.985,2.8,2.8,0,0,0,.379.292Zm2.483-1.492-.06.1a1.992,1.992,0,0,1,.379,1.525V33.6a.979.979,0,0,1-.245.824c-.179.161-.045.3.143.3.558.018,1.119.027,1.677,0,.278,0,.3-.14.14-.379a1.349,1.349,0,0,1-.242-.636q-.018-4.671,0-9.342c0-.663-.176-1.373.528-1.949Z" fill="#fff"/>
    <path id="Path_79" data-name="Path 79" d="M76.11,94.209a4.075,4.075,0,0,0,.451-.281c1.731-1.382,3.48-2.743,5.184-4.158a74.892,74.892,0,0,0,6.521-6.092c1.991-2.089,3.937-4.247,5.805-6.456,1.791-2.107,3.5-4.28,5.152-6.492,2.179-2.907,4.179-5.933,6.077-9.044a79.989,79.989,0,0,0,4.247-7.891q1.194-2.591,2.271-5.238c.507-1.251.9-2.549,1.358-3.823a1.561,1.561,0,0,1,.1-.215h.1a3.447,3.447,0,0,1,.081.546v48.82c0,.525-.057.564-.6.564H76.244Z" transform="translate(-53.394 -31.232)" fill="#fff"/>
    <path id="Path_80" data-name="Path 80" d="M20.1,82.62l.672,1.668c.242.6.475,1.218.725,1.821.179.43.1.57-.355.573H18.967c-.382,0-.492-.149-.361-.513.176-.478.37-.949.558-1.421.227-.561.454-1.122.686-1.68a4.962,4.962,0,0,1,.254-.448Z" transform="translate(-13.015 -57.961)" fill="#fff"/>
  </g>
</svg>
