<svg xmlns="http://www.w3.org/2000/svg" xmlns:xlink="http://www.w3.org/1999/xlink" width="84.274" height="39.257" viewBox="0 0 84.274 39.257">
  <defs>
    <clipPath id="clip-path">
      <rect id="Rectangle_6" data-name="Rectangle 6" width="84.274" height="39.257" fill="#fff"/>
    </clipPath>
  </defs>
  <g id="iimp" clip-path="url(#clip-path)">
    <path id="Path_97" data-name="Path 97" d="M63.913,33.79H57Q59.054,19.8,61.124,5.824h7.449c.191,0,.254.056.306.238q2.424,8.57,4.807,17.127a.636.636,0,0,0,.135.254c.127-.445.258-.89.4-1.335q2.249-8.021,4.5-16.047c.056-.195.143-.242.338-.242h7.175c.195,0,.27.036.3.258.147,1.093.326,2.185.489,3.278s.314,2.185.477,3.278.33,2.185.493,3.278c.147.985.286,1.986.429,2.96s.3,1.986.445,2.956c.131.882.258,1.76.4,2.642s.258,1.76.4,2.642c.115.795.234,1.561.35,2.344q.2,1.343.4,2.682l.242,1.669H83.968c-.207,0-.27-.064-.294-.266-.107-.846-.234-1.689-.35-2.531s-.226-1.657-.342-2.487-.238-1.685-.354-2.531-.226-1.657-.342-2.483-.258-1.685-.366-2.519-.226-1.641-.338-2.463c-.1-.707-.195-1.414-.334-2.13a.906.906,0,0,0-.06.143q-1.108,4.017-2.217,8.025-1.236,4.5-2.463,9a.258.258,0,0,1-.3.23H71.4c-.183,0-.242-.064-.29-.234q-2.332-8.482-4.664-16.969a.62.62,0,0,0-.064-.195h-.056Q65.117,25.093,63.913,33.79Z" transform="translate(-34.354 -3.508)" fill="#fff"/>
    <path id="Path_98" data-name="Path 98" d="M150.861,24.746v9.174h-7.235L139.51,6.18h.31l13.822.052c.667,0,1.343-.036,2.01,0a9.463,9.463,0,0,1,7.763,4.215,8.832,8.832,0,0,1,1.367,3.85,9.4,9.4,0,0,1-1.589,6.7,8.149,8.149,0,0,1-5.3,3.4,12.455,12.455,0,0,1-2.205.187c-1.542.028-3.083.079-4.625.123Zm0-9.428v3.031c0,.2.048.266.258.266h2.8a3.484,3.484,0,0,0,1.919-.473,3.178,3.178,0,0,0,1.506-2.5,3.047,3.047,0,0,0-1.22-2.876,3.917,3.917,0,0,0-2.439-.7h-2.547c-.219,0-.294.056-.29.282.012.977,0,1.975,0,2.968Z" transform="translate(-84.083 -3.725)" fill="#fff"/>
    <path id="Path_99" data-name="Path 99" d="M28,33.836,32.251,5.87H39.8c-.04.3-.075.584-.119.866q-.195,1.3-.4,2.59c-.159.965-.318,1.959-.469,2.952s-.286,1.927-.433,2.888-.3,1.907-.449,2.872-.286,1.927-.433,2.888-.294,1.923-.441,2.872q-.195,1.271-.4,2.547-.226,1.466-.449,2.932c-.147.961-.29,1.927-.433,2.888-.075.509-.151,1.017-.238,1.526,0,.048-.075.1-.127.119a.306.306,0,0,1-.135,0H28Z" transform="translate(-16.876 -3.538)" fill="#fff"/>
    <path id="Path_100" data-name="Path 100" d="M4.965,5.86h7.549c-.04.29-.075.564-.115.842-.151.977-.3,1.955-.449,2.932s-.3,1.927-.445,2.888c-.131.858-.258,1.712-.4,2.571-.143.957-.286,1.911-.433,2.868s-.314,1.955-.453,2.932-.3,1.927-.445,2.9-.29,1.927-.437,2.888-.3,1.927-.445,2.888S8.6,31.5,8.461,32.459c-.064.4-.123.834-.195,1.251,0,.048-.075.1-.127.127s-.075,0-.115,0H.71Q2.84,19.821,4.965,5.86Z" transform="translate(-0.428 -3.532)" fill="#fff"/>
    <path id="Path_101" data-name="Path 101" d="M206.2,91.6l-.369,1.514c-.052.207-.091.421-.159.624a.25.25,0,0,1-.175.147c-.461.036-.465.032-.572-.4-.135-.544-.266-1.093-.4-1.637a.5.5,0,0,0-.111-.23v2.273h-.58V90.744h.846c.044,0,.1.091.123.155.175.628.342,1.259.528,1.963l.306-1.136c.075-.282.143-.568.23-.846a.223.223,0,0,1,.159-.139h.795v3.131h-.54V91.6Z" transform="translate(-122.855 -54.689)" fill="#fff"/>
    <path id="Path_102" data-name="Path 102" d="M121.226,92.51c.5.326.679.866,1.037,1.347h-.687c-.06,0-.127-.075-.167-.131-.2-.282-.4-.572-.584-.858a.632.632,0,0,0-.735-.278v1.255h-.62V90.69c.652.024,1.3.032,1.935.079a.743.743,0,0,1,.58.671.842.842,0,0,1-.354.886,3.462,3.462,0,0,1-.405.183Zm-1.128-1.3v.83h.878a.415.415,0,0,0-.075-.826C120.642,91.21,120.38,91.21,120.1,91.21Z" transform="translate(-72.005 -54.659)" fill="#fff"/>
    <path id="Path_103" data-name="Path 103" d="M188.35,93.881V90.75h.985a4.765,4.765,0,0,1,.846.048.751.751,0,0,1,.691.707.83.83,0,0,1-.469.934c-.091.04-.191.072-.286.111a4.37,4.37,0,0,1,.977,1.359h-.62a.334.334,0,0,1-.187-.139c-.191-.27-.4-.544-.56-.822a.648.648,0,0,0-.751-.31V93.9Zm.632-1.792h.862a.417.417,0,0,0,.056-.826h-.906Z" transform="translate(-113.519 -54.695)" fill="#fff"/>
    <path id="Path_104" data-name="Path 104" d="M165.176,92.482a4.7,4.7,0,0,1,1.029,1.351h-.7c-.056,0-.111-.072-.151-.123-.191-.278-.4-.56-.568-.842a.644.644,0,0,0-.755-.3v1.263h-.616V90.65c.652.024,1.3,0,1.947.087.342.04.512.342.568.679a.826.826,0,0,1-.373.878A3.5,3.5,0,0,1,165.176,92.482Zm-1.128-.453h.842a.419.419,0,0,0,.056-.83h-.906Z" transform="translate(-98.494 -54.635)" fill="#fff"/>
    <path id="Path_105" data-name="Path 105" d="M182.405,91.528l-.612.151a.743.743,0,0,0-.795-.513.751.751,0,0,0-.731.56,2.452,2.452,0,0,0,0,.977.89.89,0,0,0,1.474.362c.079-.056.064-.246.1-.4H181.1v-.516h1.343v1.136a.246.246,0,0,1-.111.163,1.907,1.907,0,0,1-1.986.219,1.474,1.474,0,0,1-.795-1.458,1.458,1.458,0,0,1,.985-1.51,1.748,1.748,0,0,1,1.335.076A1.085,1.085,0,0,1,182.405,91.528Z" transform="translate(-108.21 -54.607)" fill="#fff"/>
    <path id="Path_106" data-name="Path 106" d="M39.387,92.631h-.751v-.489h1.351v1.132a.2.2,0,0,1-.072.135,1.9,1.9,0,0,1-2.348.04,1.728,1.728,0,0,1,.5-2.781,1.764,1.764,0,0,1,1.311.072,1.045,1.045,0,0,1,.568.755l-.608.159a.795.795,0,0,0-1.53.048,2.344,2.344,0,0,0,.028,1.029.891.891,0,0,0,1.466.338C39.371,92.989,39.351,92.8,39.387,92.631Z" transform="translate(-22.347 -54.59)" fill="#fff"/>
    <path id="Path_107" data-name="Path 107" d="M203.321,0a2.169,2.169,0,1,1-1.552.621A2.177,2.177,0,0,1,203.321,0Zm1.764,2.165a1.776,1.776,0,1,0-1.776,1.776A1.776,1.776,0,0,0,205.085,2.165Z" transform="translate(-121.215 0)" fill="#fff"/>
    <path id="Path_108" data-name="Path 108" d="M173.965,92.215a1.432,1.432,0,0,1-.981,1.542,1.49,1.49,0,0,1-2.046-1.45,1.661,1.661,0,0,1,.485-1.347,1.534,1.534,0,0,1,1.637-.25,1.347,1.347,0,0,1,.886,1.228C173.957,92.032,173.961,92.139,173.965,92.215Zm-.663,0v-.207a.846.846,0,0,0-.755-.866.795.795,0,0,0-.91.759,2.114,2.114,0,0,0,.02.707.826.826,0,0,0,1.271.528,1.025,1.025,0,0,0,.373-.922Z" transform="translate(-103.02 -54.591)" fill="#fff"/>
    <path id="Path_109" data-name="Path 109" d="M99.4,92.212a1.448,1.448,0,0,1-.954,1.534,1.489,1.489,0,0,1-2.07-1.434,1.649,1.649,0,0,1,.477-1.347,1.538,1.538,0,0,1,1.633-.258,1.355,1.355,0,0,1,.894,1.192A2.877,2.877,0,0,1,99.4,92.212Zm-.616,0h-.048a2.226,2.226,0,0,0,0-.23.85.85,0,0,0-.759-.838.8.8,0,0,0-.9.628,2.535,2.535,0,0,0,0,.866.8.8,0,0,0,.679.632.767.767,0,0,0,.818-.4,3.659,3.659,0,0,0,.2-.648Z" transform="translate(-58.08 -54.592)" fill="#fff"/>
    <path id="Path_110" data-name="Path 110" d="M10.9,92.238a1.448,1.448,0,0,1-.985,1.538,1.489,1.489,0,0,1-2.038-1.422A1.657,1.657,0,0,1,8.343,91a1.534,1.534,0,0,1,1.629-.27,1.351,1.351,0,0,1,.906,1.192C10.894,92.04,10.894,92.155,10.9,92.238Zm-.644,0h-.02v-.207a.85.85,0,0,0-.727-.87.8.8,0,0,0-.91.616,2.459,2.459,0,0,0,0,.886.817.817,0,0,0,1.589,0,4.29,4.29,0,0,0,.068-.441Z" transform="translate(-4.74 -54.61)" fill="#fff"/>
    <path id="Path_111" data-name="Path 111" d="M90.667,92.536H89.432V93.9H88.82V90.78h.6V92h1.224V90.784h.628V93.9h-.608Z" transform="translate(-53.532 -54.713)" fill="#fff"/>
    <path id="Path_112" data-name="Path 112" d="M137.2,93.9h-.612V92.544h-1.236V93.9h-.616V90.78h.612V92h1.224V90.784h.628Z" transform="translate(-81.208 -54.713)" fill="#fff"/>
    <path id="Path_113" data-name="Path 113" d="M127,92.7l.572-.068c.215.556.564.739,1.033.556a.4.4,0,0,0,.282-.4c0-.183-.127-.266-.286-.314-.314-.087-.632-.163-.934-.278a.8.8,0,0,1-.56-.878.858.858,0,0,1,.723-.735,1.494,1.494,0,0,1,1.267.2.826.826,0,0,1,.326.7c-.131.024-.25.052-.369.068a.253.253,0,0,1-.31-.175.66.66,0,0,0-.969-.143.232.232,0,0,0,.139.4c.219.06.568.159.846.25a.914.914,0,0,1,.7,1.267,1,1,0,0,1-.954.6,2.361,2.361,0,0,1-.727-.056A1.049,1.049,0,0,1,127,92.7Z" transform="translate(-76.543 -54.561)" fill="#fff"/>
    <path id="Path_114" data-name="Path 114" d="M75.547,91.532l-.4.072c-.119,0-.2,0-.254-.155a.66.66,0,0,0-.977-.171.229.229,0,0,0,.131.4c.219.06.552.155.826.238.532.159.795.441.795.894a.878.878,0,0,1-.66.91,1.808,1.808,0,0,1-1.1,0,1.061,1.061,0,0,1-.787-.993c.143-.02.282-.048.425-.064a.982.982,0,0,1,.151,0c.222.552.6.755,1.045.536A.572.572,0,0,0,75,92.831c.04-.171-.111-.266-.27-.31-.322-.091-.648-.167-.957-.286a.8.8,0,0,1-.536-.894.85.85,0,0,1,.715-.715,1.494,1.494,0,0,1,1.267.2A.822.822,0,0,1,75.547,91.532Z" transform="translate(-44.07 -54.584)" fill="#fff"/>
    <path id="Path_115" data-name="Path 115" d="M63.82,91.978h1.534v.509H63.812v.922h1.712v.5H63.18V90.79h2.284v.481H63.82Z" transform="translate(-38.079 -54.719)" fill="#fff"/>
    <path id="Path_116" data-name="Path 116" d="M32.38,90.78v.485H30.728v.7h1.538v.489H30.732v.93h1.712v.5H30.1V90.78Z" transform="translate(-18.141 -54.713)" fill="#fff"/>
    <path id="Path_117" data-name="Path 117" d="M198.444,93.807H198.4c-.608.04-.612.04-.818-.528a.2.2,0,0,0-.23-.163h-.858c-.119,0-.195.028-.211.155-.2.568-.2.568-.838.5.2-.54.4-1.081.6-1.617.167-.441.338-.878.5-1.319.052-.147.119-.215.278-.195a1.5,1.5,0,0,0,.3,0,.258.258,0,0,1,.163.115C197.677,91.8,198.046,92.794,198.444,93.807Zm-1.5-2.3h-.052l-.4,1.108h.814Z" transform="translate(-117.792 -54.63)" fill="#fff"/>
    <path id="Path_118" data-name="Path 118" d="M114,93.894a4.838,4.838,0,0,1-.536,0,.254.254,0,0,1-.163-.151c-.211-.536-.207-.536-.795-.536-.191,0-.429-.064-.564.028s-.159.33-.222.509a.195.195,0,0,1-.23.159H111c.163-.437.318-.858.477-1.279.207-.556.425-1.108.624-1.665.056-.155.131-.222.3-.2h.278a.25.25,0,0,1,.167.107c.4.993.771,1.986,1.156,2.988a.143.143,0,0,1,0,.044Zm-1.47-2.316h-.052l-.4,1.108h.818Z" transform="translate(-66.9 -54.696)" fill="#fff"/>
    <path id="Path_119" data-name="Path 119" d="M51.107,93.84h-.083c-.584,0-.588,0-.795-.52a.215.215,0,0,0-.246-.175h-.834a.2.2,0,0,0-.23.163c-.195.564-.2.564-.838.52.159-.425.314-.846.469-1.267.211-.552.425-1.1.624-1.661.056-.155.131-.23.3-.207h.3c.1,0,.123.04.139.083C50.325,91.806,50.714,92.8,51.107,93.84ZM49.6,91.532H49.55l-.4,1.1h.842Z" transform="translate(-28.978 -54.659)" fill="#fff"/>
    <path id="Path_120" data-name="Path 120" d="M156.068,90.747h1.454a.846.846,0,0,1,.9.775.918.918,0,0,1-.552,1.073,2.165,2.165,0,0,1-.532.091h-.656v1.192h-.62Zm.632,1.434h.616a.461.461,0,0,0,.477-.457.449.449,0,0,0-.421-.481c-.219-.02-.441,0-.671,0Z" transform="translate(-94.058 -54.693)" fill="#fff"/>
    <path id="Path_121" data-name="Path 121" d="M145.7,90.87h1.712a.659.659,0,0,1,.4.207.961.961,0,0,1,.215,1.049.8.8,0,0,1-.719.584c-.318.028-.636.048-.973.072v1.16H145.7Zm.636,1.387h.612a.461.461,0,0,0,.461-.461.453.453,0,0,0-.4-.457h-.667Z" transform="translate(-87.814 -54.768)" fill="#fff"/>
    <path id="Path_122" data-name="Path 122" d="M83.255,91.526l-.516.127a2.606,2.606,0,0,0-.524-.437.663.663,0,0,0-.93.445,3.143,3.143,0,0,0,0,1.021.656.656,0,0,0,.632.564.675.675,0,0,0,.7-.5c0-.052.04-.1.06-.151l.528.167s.024.02.036.028a1.192,1.192,0,0,1-1.14,1,1.453,1.453,0,0,1-1.553-1.74,1.406,1.406,0,0,1,.969-1.355,1.3,1.3,0,0,1,1.736.834Z" transform="translate(-48.543 -54.602)" fill="#fff"/>
    <path id="Path_123" data-name="Path 123" d="M2.7,91.513l-.516.127a2.709,2.709,0,0,0-.52-.437.663.663,0,0,0-.934.441,3.178,3.178,0,0,0-.02,1.025.648.648,0,0,0,.636.564.671.671,0,0,0,.715-.5l.064-.151.564.175a1.192,1.192,0,0,1-1.14,1.021A1.445,1.445,0,0,1-.009,92.049a1.41,1.41,0,0,1,.954-1.371,1.3,1.3,0,0,1,1.76.834Z" transform="translate(0.009 -54.588)" fill="#fff"/>
    <path id="Path_124" data-name="Path 124" d="M111.98,81.164l-.346,1.736h-.4l-.322-1.736h-.032c-.048.572-.091,1.144-.135,1.728H110.2c.04-.354.075-.7.115-1.037s.091-.7.127-1.053c0-.123.048-.171.179-.179.58-.032.576-.032.656.548.044.314.1.632.151.969.091-.469.175-.914.27-1.355a.2.2,0,0,1,.139-.151,5.8,5.8,0,0,1,.592,0l.238,2.261h-.56l-.1-1.716Z" transform="translate(-66.418 -48.585)" fill="#fff"/>
    <path id="Path_125" data-name="Path 125" d="M4,82.953V80.689a3.793,3.793,0,0,1,.477,0,.246.246,0,0,1,.151.139c.215.457.421.918.636,1.387V80.708h.449v2.261a2.828,2.828,0,0,0-.318,0,.23.23,0,0,1-.266-.175c-.2-.445-.4-.882-.652-1.371v1.53Z" transform="translate(-2.411 -48.627)" fill="#fff"/>
    <path id="Path_126" data-name="Path 126" d="M143.244,82.249V80.712h.469v2.261a3.138,3.138,0,0,1-.433,0c-.056,0-.115-.083-.147-.143-.211-.445-.4-.89-.616-1.335a.527.527,0,0,0-.056-.075V82.96H142V80.7h.366a.234.234,0,0,1,.262.171C142.822,81.331,143.037,81.792,143.244,82.249Z" transform="translate(-85.584 -48.634)" fill="#fff"/>
    <path id="Path_127" data-name="Path 127" d="M23.776,82.957c-.481.04-.481.04-.683-.4l-.544-1.144v1.542H22.06V80.7a3.353,3.353,0,0,1,.489,0c.052,0,.107.1.135.155.219.465.429.93.632,1.367V80.712h.461Z" transform="translate(-13.296 -48.631)" fill="#fff"/>
    <path id="Path_128" data-name="Path 128" d="M195.958,82.953c-.485.04-.485.04-.675-.362s-.362-.759-.556-1.192v1.542h-.477V80.689a3.755,3.755,0,0,1,.473,0c.052,0,.111.091.139.151.223.469.441.946.64,1.383V80.709h.457Z" transform="translate(-117.075 -48.627)" fill="#fff"/>
    <path id="Path_129" data-name="Path 129" d="M63.639,82.959H63.17V80.686a2.826,2.826,0,0,1,.449,0c.06,0,.131.091.163.159.2.437.4.882.592,1.323,0,.032.036.064.04.075V80.7h.453v2.265a2.781,2.781,0,0,1-.4,0,.25.25,0,0,1-.147-.139c-.23-.465-.453-.934-.675-1.4Z" transform="translate(-38.073 -48.625)" fill="#fff"/>
    <path id="Path_130" data-name="Path 130" d="M58.487,90.79v.481h-.906V93.9h-.62V91.271h-.9V90.79Z" transform="translate(-33.788 -54.719)" fill="#fff"/>
    <path id="Path_131" data-name="Path 131" d="M105.87,93.408h1.53v.5H105.25V90.79h.62Z" transform="translate(-63.435 -54.719)" fill="#fff"/>
    <path id="Path_132" data-name="Path 132" d="M25.589,93.408v.5H23.44V90.79h.62v2.618Z" transform="translate(-14.127 -54.719)" fill="#fff"/>
    <path id="Path_133" data-name="Path 133" d="M16.79,90.77h.616V93.4h1.534v.5H16.79Z" transform="translate(-10.119 -54.707)" fill="#fff"/>
    <path id="Path_134" data-name="Path 134" d="M44.366,82.951a1.817,1.817,0,0,1,0-.195v-2.07a3.036,3.036,0,0,1,.469,0c.064,0,.131.091.163.159.2.445.4.894.6,1.343a.2.2,0,0,0,.032.048V80.7h.453v2.261a2.781,2.781,0,0,1-.4,0,.278.278,0,0,1-.147-.139c-.226-.457-.441-.914-.671-1.395v1.522Z" transform="translate(-26.738 -48.624)" fill="#fff"/>
    <path id="Path_135" data-name="Path 135" d="M100.457,81.8a1.015,1.015,0,0,1-.842,1.128.9.9,0,0,1-1.077-.64,1.589,1.589,0,0,1,0-1,.894.894,0,0,1,.993-.683.91.91,0,0,1,.862.735A4.367,4.367,0,0,1,100.457,81.8Zm-.536,0a4.765,4.765,0,0,0-.1-.5.369.369,0,0,0-.4-.278.362.362,0,0,0-.358.27,1.291,1.291,0,0,0,0,.981.485.485,0,0,0,.346.238.5.5,0,0,0,.346-.23A1.748,1.748,0,0,0,99.921,81.8Z" transform="translate(-59.341 -48.577)" fill="#fff"/>
    <path id="Path_136" data-name="Path 136" d="M38.38,81.751a1.817,1.817,0,0,1,.06-.4.9.9,0,0,1,1.005-.775.918.918,0,0,1,.886.842,2.28,2.28,0,0,1,0,.735.934.934,0,0,1-.981.767.954.954,0,0,1-.938-.95v-.23Zm.544,0a3.973,3.973,0,0,0,.079.461.362.362,0,0,0,.369.29.369.369,0,0,0,.369-.262,1.291,1.291,0,0,0,0-.989.548.548,0,0,0-.35-.242.318.318,0,0,0-.366.254,4.2,4.2,0,0,0-.1.5Z" transform="translate(-23.132 -48.561)" fill="#fff"/>
    <path id="Path_137" data-name="Path 137" d="M190.274,81.84a2.177,2.177,0,0,1-.032.33.954.954,0,0,1-.993.795.938.938,0,0,1-.926-.906,2.173,2.173,0,0,1,.036-.663.9.9,0,0,1,1.049-.775.965.965,0,0,1,.85.938C190.266,81.633,190.27,81.72,190.274,81.84Zm-.516-.056a1.867,1.867,0,0,0-.119-.509.481.481,0,0,0-.35-.23.461.461,0,0,0-.35.234,1.275,1.275,0,0,0,0,.989.54.54,0,0,0,.342.254.33.33,0,0,0,.4-.238,4.849,4.849,0,0,0,.1-.5Z" transform="translate(-113.497 -48.582)" fill="#fff"/>
    <path id="Path_138" data-name="Path 138" d="M164.27,81.795a1.408,1.408,0,0,1,.032-.366.934.934,0,0,1,1.061-.795.954.954,0,0,1,.862.934,2.312,2.312,0,0,1-.044.683.91.91,0,0,1-.977.735.946.946,0,0,1-.918-.918v-.254Zm1.442,0a4.668,4.668,0,0,0-.087-.481.4.4,0,0,0-.739,0,1.522,1.522,0,0,0,0,.95.4.4,0,0,0,.743,0A4.519,4.519,0,0,0,165.712,81.795Z" transform="translate(-99.006 -48.593)" fill="#fff"/>
    <path id="Path_139" data-name="Path 139" d="M149.105,81.18l-.457.171c-.028-.048-.04-.111-.076-.135-.107-.072-.226-.187-.338-.183a.429.429,0,0,0-.322.2,1.279,1.279,0,0,0,0,1.073.346.346,0,0,0,.457.207c.207-.06.29-.207.278-.477h-.473v-.4h1.013a1.136,1.136,0,0,1-.536,1.192.922.922,0,0,1-1.335-.667,1.351,1.351,0,0,1,.318-1.367A.947.947,0,0,1,149.105,81.18Z" transform="translate(-88.748 -48.574)" fill="#fff"/>
    <path id="Path_140" data-name="Path 140" d="M83.065,80.72h.54v1.593c0,.207.079.318.3.314s.338-.068.346-.3V80.724h.509c0,.62.02,1.232,0,1.843,0,.131-.191.3-.334.366a1.339,1.339,0,0,1-.993,0,.5.5,0,0,1-.366-.461C83.057,81.9,83.065,81.328,83.065,80.72Z" transform="translate(-50.061 -48.65)" fill="#fff"/>
    <path id="Path_141" data-name="Path 141" d="M122.969,81.963l.513.993c-.028,0-.04.032-.052.032a.536.536,0,0,1-.719-.421,1.244,1.244,0,0,0-.246-.437v.854h-.544V80.74a8.818,8.818,0,0,1,.973,0,.52.52,0,0,1,.513.524.576.576,0,0,1-.358.652Zm-.5-.906v.624c.286.032.425-.068.433-.3S122.782,81.049,122.468,81.057Z" transform="translate(-73.482 -48.654)" fill="#fff"/>
    <path id="Path_142" data-name="Path 142" d="M160.433,82.1v.834h-.513V80.66a5.321,5.321,0,0,1,1.009.064.481.481,0,0,1,.457.469.568.568,0,0,1-.334.683l-.091.048.524,1.029a2.347,2.347,0,0,1-.4,0,.35.35,0,0,1-.223-.143c-.135-.23-.242-.477-.358-.715Zm0-.4a1.416,1.416,0,0,0,.4-.207.4.4,0,0,0,0-.362c-.064-.091-.222-.123-.4-.2Z" transform="translate(-96.384 -48.614)" fill="#fff"/>
    <path id="Path_143" data-name="Path 143" d="M18.5,81.933l.528,1.025a4.145,4.145,0,0,1-.5,0c-.052,0-.111-.087-.143-.147a6.258,6.258,0,0,0-.4-.719v.854h-.52V80.67a6.25,6.25,0,0,1,.985.052.528.528,0,0,1,.485.477C18.98,81.552,18.872,81.735,18.5,81.933Zm-.516-.278c.326,0,.453-.083.445-.334s-.139-.322-.445-.286Z" transform="translate(-10.529 -48.62)" fill="#fff"/>
    <path id="Path_144" data-name="Path 144" d="M127.1,82.924h-.516V80.671h.5v.9h.056L127.45,81c.226-.4.226-.4.759-.35a8.139,8.139,0,0,1-.4.739.473.473,0,0,0,0,.552c.167.3.3.616.473.965a4.369,4.369,0,0,1-.516,0c-.056,0-.111-.091-.147-.151a8.4,8.4,0,0,0-.489-.878Z" transform="translate(-76.29 -48.594)" fill="#fff"/>
    <path id="Path_145" data-name="Path 145" d="M51.2,82.949a2.327,2.327,0,0,0-.29,0c-.195.028-.306-.036-.318-.242,0-.135-.083-.191-.215-.167a1.124,1.124,0,0,0-.4.1c-.075.044-.064.266-.127.29a1.852,1.852,0,0,1-.5,0l.457-1.621a3.178,3.178,0,0,0,.119-.421c.032-.187.123-.242.314-.234.342,0,.338,0,.433.346C50.838,81.638,51.013,82.274,51.2,82.949Zm-.914-1.716h-.04l-.175.961h.4Z" transform="translate(-29.749 -48.607)" fill="#fff"/>
    <path id="Path_146" data-name="Path 146" d="M118.505,82.947h-.524c-.123-.123,0-.4-.286-.4s-.362,0-.532.4h-.513c.2-.719.4-1.426.612-2.13,0-.06.119-.115.191-.135a.532.532,0,0,1,.274,0c.075.02.175.075.191.135C118.124,81.517,118.307,82.22,118.505,82.947Zm-.9-1.7h-.04l-.179.965h.4Z" transform="translate(-70.305 -48.617)" fill="#fff"/>
    <path id="Path_147" data-name="Path 147" d="M28.863,82.923h-.52c-.167-.4-.167-.4-.528-.4s-.155.286-.3.4H27l.481-1.673c.02-.075.044-.147.064-.219.115-.4.175-.445.592-.373a.2.2,0,0,1,.123.1C28.47,81.476,28.665,82.192,28.863,82.923Zm-.906-1.708h-.036l-.183.977h.4Z" transform="translate(-16.273 -48.596)" fill="#fff"/>
    <path id="Path_148" data-name="Path 148" d="M199.749,82.965h-.509a.364.364,0,0,1,.036-.195c.179-.628.362-1.251.536-1.879.04-.147.1-.211.262-.2.4,0,.4,0,.481.373.159.58.322,1.164.481,1.748a.406.406,0,0,0,.028.163,2.225,2.225,0,0,0-.282,0c-.183.024-.294-.028-.3-.23,0-.143-.083-.2-.226-.183s-.294-.024-.373.044S199.792,82.834,199.749,82.965Zm.588-.747c-.06-.33-.115-.652-.171-.969h-.036c-.06.318-.115.64-.179.973Z" transform="translate(-120.083 -48.631)" fill="#fff"/>
    <path id="Path_149" data-name="Path 149" d="M142.58,90.77h.6v3.119h-.6Z" transform="translate(-85.934 -54.707)" fill="#fff"/>
    <path id="Path_150" data-name="Path 150" d="M46.444,90.8v3.107H45.82V90.8Z" transform="translate(-27.616 -54.726)" fill="#fff"/>
    <path id="Path_151" data-name="Path 151" d="M175.264,83H174.12V80.75h1.144v.373a2.833,2.833,0,0,1-.369,0c-.222-.028-.3.064-.266.27v.226h.548v.4h-.56a3.155,3.155,0,0,0,0,.437.2.2,0,0,0,.143.119,3.806,3.806,0,0,0,.481,0Z" transform="translate(-104.943 -48.668)" fill="#fff"/>
    <path id="Path_152" data-name="Path 152" d="M155.867,82.94h-.5V80.66a8.046,8.046,0,0,1,.985.068.56.56,0,0,1,.481.7.632.632,0,0,1-.584.556c-.119,0-.242.024-.4.036Zm0-1.287c.187.024.35,0,.4-.167a.437.437,0,0,0,0-.342,1.16,1.16,0,0,0-.4-.183Z" transform="translate(-93.642 -48.614)" fill="#fff"/>
    <path id="Path_153" data-name="Path 153" d="M93.073,81.6h.56V82h-.5c-.024.032-.036.044-.036.056-.044.493-.044.493.453.5a1.377,1.377,0,0,1,.167,0v.4H92.56V80.73H93.7v.4h-.4c-.191-.02-.274.048-.246.242A.672.672,0,0,1,93.073,81.6Z" transform="translate(-55.786 -48.656)" fill="#fff"/>
    <path id="Path_154" data-name="Path 154" d="M132.506,82.569v.4H131.37V80.73H132.5v.4a2.782,2.782,0,0,1-.366,0c-.222-.032-.29.072-.262.274a.875.875,0,0,0,.02.219h.556v.4h-.552v.556Z" transform="translate(-79.177 -48.656)" fill="#fff"/>
    <path id="Path_155" data-name="Path 155" d="M14.008,81.62h.56v.4H14v.56h.62v.4H13.48V80.75h1.14v.369h-.612Z" transform="translate(-8.124 -48.668)" fill="#fff"/>
    <path id="Path_156" data-name="Path 156" d="M179.025,81.043A1.9,1.9,0,0,0,178.58,81a.306.306,0,0,0-.222.151.278.278,0,0,0,.056.242,1.514,1.514,0,0,0,.334.282.644.644,0,0,1,.318.846.8.8,0,0,1-.858.4c-.4-.056-.429-.091-.366-.493a2.269,2.269,0,0,0,.513.052c.222-.032.278-.226.115-.4a2.836,2.836,0,0,0-.377-.306.667.667,0,0,1-.187-.934.814.814,0,0,1,1-.191C178.978,80.729,178.978,80.888,179.025,81.043Z" transform="translate(-107.154 -48.548)" fill="#fff"/>
    <path id="Path_157" data-name="Path 157" d="M181.676,82.444a2.224,2.224,0,0,0,.524.044c.211-.032.262-.222.111-.373a3.476,3.476,0,0,0-.373-.306.675.675,0,0,1-.195-.934.8.8,0,0,1,1.017-.195c.079.06.075.234.123.4a3.042,3.042,0,0,0-.33-.064c-.139,0-.31-.028-.342.143a.556.556,0,0,0,.131.334.794.794,0,0,0,.25.2.632.632,0,0,1,.31.846.8.8,0,0,1-.854.4C181.656,82.881,181.64,82.861,181.676,82.444Z" transform="translate(-109.471 -48.563)" fill="#fff"/>
    <path id="Path_158" data-name="Path 158" d="M209.006,81.049a2.011,2.011,0,0,0-.421-.052.33.33,0,0,0-.234.135.338.338,0,0,0,.056.27,1.852,1.852,0,0,0,.314.266c.358.278.457.524.326.842a.8.8,0,0,1-.874.4c-.4-.06-.4-.1-.342-.493a2.042,2.042,0,0,0,.485.056c.234-.032.29-.23.119-.4s-.278-.219-.4-.334a.675.675,0,0,1-.119-.93.858.858,0,0,1,1.013-.147C208.99,80.735,208.978,80.91,209.006,81.049Z" transform="translate(-125.232 -48.554)" fill="#fff"/>
    <path id="Path_159" data-name="Path 159" d="M69.547,81.06a1.621,1.621,0,0,0-.373-.052c-.087,0-.219.064-.238.131a.358.358,0,0,0,.068.29,1.513,1.513,0,0,0,.3.246c.346.262.445.509.342.826a.767.767,0,0,1-.751.441c-.433,0-.516-.072-.481-.5a2.007,2.007,0,0,0,.481.056c.238-.032.294-.23.123-.4-.1-.1-.226-.187-.338-.278a.671.671,0,0,1-.274-.85.767.767,0,0,1,.846-.373C69.563,80.65,69.579,80.674,69.547,81.06Z" transform="translate(-41.192 -48.565)" fill="#fff"/>
    <path id="Path_160" data-name="Path 160" d="M171.364,80.74v.373h-.648v.524h.572v.4H170.7v.954h-.536V80.74Z" transform="translate(-102.556 -48.662)" fill="#fff"/>
    <path id="Path_161" data-name="Path 161" d="M105.6,80.75v.373a3.976,3.976,0,0,1-.437,0c-.2-.02-.262.068-.238.25v.25h.612v.4h-.616v.961h-.513V80.75Z" transform="translate(-62.928 -48.668)" fill="#fff"/>
    <path id="Path_162" data-name="Path 162" d="M79.776,82.993h-.548V81.129l-.4-.024V80.74h1.379v.338a.183.183,0,0,1-.04.028c-.4.04-.4.04-.4.449Z" transform="translate(-47.511 -48.662)" fill="#fff"/>
    <path id="Path_163" data-name="Path 163" d="M134.91,81.1V80.74H136.3v.366l-.4.024v1.855h-.556V81.392c0-.226-.064-.31-.282-.278A.716.716,0,0,1,134.91,81.1Z" transform="translate(-81.311 -48.662)" fill="#fff"/>
    <path id="Path_164" data-name="Path 164" d="M88.677,81.135l-.4-.024V80.75h1.387v.358l-.421.032v1.855h-.568Z" transform="translate(-53.207 -48.668)" fill="#fff"/>
    <path id="Path_165" data-name="Path 165" d="M73.55,80.74v.342l-.048.028c-.4.028-.4.028-.4.421v1.462h-.544V81.129l-.421-.024V80.74Z" transform="translate(-43.479 -48.662)" fill="#fff"/>
    <path id="Path_166" data-name="Path 166" d="M33,80.75v.362h-.4v1.859h-.572v-1.5c0-.33,0-.33-.322-.35a.763.763,0,0,1-.119,0v-.354Z" transform="translate(-19.039 -48.668)" fill="#fff"/>
    <path id="Path_167" data-name="Path 167" d="M9.565,81.133l-.445-.028V80.74h1.395v.366h-.4v1.883H9.565Z" transform="translate(-5.497 -48.662)" fill="#fff"/>
    <path id="Path_168" data-name="Path 168" d="M204.99,82.577h.648v.4H204.47V80.73h.52Z" transform="translate(-123.235 -48.656)" fill="#fff"/>
    <path id="Path_169" data-name="Path 169" d="M54.61,80.73h.516v1.387c0,.457,0,.457.461.461h.175v.4H54.61Z" transform="translate(-32.914 -48.656)" fill="#fff"/>
    <path id="Path_170" data-name="Path 170" d="M1.846,82.993H1.31V80.74h.536Z" transform="translate(-0.79 -48.662)" fill="#fff"/>
    <path id="Path_171" data-name="Path 171" d="M36,80.73h.524v2.253H36Z" transform="translate(-21.697 -48.656)" fill="#fff"/>
    <path id="Path_172" data-name="Path 172" d="M185.92,80.73h.524v2.253h-.524Z" transform="translate(-112.055 -48.656)" fill="#fff"/>
    <path id="Path_173" data-name="Path 173" d="M60.5,80.72h.524v2.257H60.5Z" transform="translate(-36.464 -48.65)" fill="#fff"/>
    <path id="Path_174" data-name="Path 174" d="M139.3,80.72h.524v2.257H139.3Z" transform="translate(-83.957 -48.65)" fill="#fff"/>
    <path id="Path_175" data-name="Path 175" d="M76.57,80.73h.524v2.249H76.57Z" transform="translate(-46.149 -48.656)" fill="#fff"/>
    <path id="Path_176" data-name="Path 176" d="M205.529,3.839l.679,1.049h-.592a.246.246,0,0,1-.163-.119c-.119-.191-.207-.4-.334-.58a1.614,1.614,0,0,0-.3-.258l-.068.052v.894h-.54V2.591c.437,0,.882-.028,1.323,0a.532.532,0,0,1,.512.509.6.6,0,0,1-.4.691Zm-.771-.3a1.263,1.263,0,0,0,.429,0,.493.493,0,0,0,.282-.274c.04-.135-.072-.258-.234-.278s-.31-.028-.477-.044Z" transform="translate(-123.078 -1.554)" fill="#fff"/>
  </g>
</svg>
