<svg xmlns="http://www.w3.org/2000/svg" xmlns:xlink="http://www.w3.org/1999/xlink" width="98.414" height="70.683" viewBox="0 0 98.414 70.683">
  <defs>
    <clipPath id="clip-path">
      <rect id="Rectangle_8" data-name="Rectangle 8" width="98.414" height="70.683" fill="#fff"/>
    </clipPath>
  </defs>
  <g id="الحسن" clip-path="url(#clip-path)">
    <path id="Path_185" data-name="Path 185" d="M-72.083-55.35a2.05,2.05,0,0,0-.265,1.828c.053.3.4.571.653.808,1.571,1.456,3.166,2.892,4.732,4.361.726.677,1.428,1.383,2.1,2.113.657.714,1.269,1.473,1.893,2.215.469.555.938,1.11,1.383,1.685.481.624.922,1.281,1.407,1.905a13.623,13.623,0,0,0,.95,1c-.1.608.473,1.081.812,1.64.808,1.314,1.656,2.6,2.513,3.884.436.653.938,1.261,1.379,1.909.9,1.326,2.337,1.811,3.712,2.374a14.528,14.528,0,0,0,1.9.465c.673.175,1.338.383,2.011.563.388.1.779.192,1.171.257.946.151,1.9.277,2.843.428.7.114,1.391.273,2.089.375.718.1,1.444.139,2.162.241.636.09,1.261.233,1.893.351.094.016.188.053.286.061.689.069,1.383.1,2.064.216.881.155,1.746.383,2.619.571.375.082.751.147,1.126.228,1,.212,2,.4,2.99.645a21.764,21.764,0,0,1,2.093.645c.151.053.241.294.359.445-.249.082-.538.29-.742.224-.771-.245-1.505-.587-2.268-.865a9.139,9.139,0,0,0-1.15-.294c-.563-.122-1.13-.233-1.693-.343q-1.218-.245-2.439-.485c-.661-.126-1.326-.245-1.991-.371-.441-.082-.877-.188-1.318-.245-.722-.09-1.448-.126-2.17-.224-.6-.082-1.2-.216-1.795-.33-.457-.086-.91-.192-1.371-.253-.689-.094-1.383-.135-2.068-.233-.632-.09-1.256-.224-1.889-.343-.518-.1-1.04-.192-1.558-.294-.636-.122-1.277-.224-1.909-.371a25.637,25.637,0,0,1-2.488-.657,12.678,12.678,0,0,1-2.133-.959,10.193,10.193,0,0,1-3.329-3.582,34.111,34.111,0,0,0-2.284-3.512c-.612-.726-.857-1.619-1.436-2.329-.518-.64-1-1.309-1.509-1.954-.681-.861-1.362-1.721-2.064-2.566-.363-.436-.763-.844-1.163-1.248-1.318-1.33-2.627-2.664-3.965-3.969-.673-.677-1.4-1.3-2.138-1.917a.711.711,0,0,0-.591-.155.8.8,0,0,0-.339.563,23.579,23.579,0,0,0-.053,3.353c.069,1.677.029,3.357.037,5.034,0,.587.049,1.175.008,1.758a3.372,3.372,0,0,1-.277,1.35,2.024,2.024,0,0,0,.143,2.121,4.6,4.6,0,0,1,.767,2.541c-.012.2.139.4.257.7a2.478,2.478,0,0,0,.612-1.5c.277-3.174-.151-6.347-.012-9.521.024-.6-.012-1.2.016-1.8a4.887,4.887,0,0,1,.192-.849h.135a2.341,2.341,0,0,1,.228.665c.086,2.015.171,4.03.208,6.05.029,1.677-.024,3.357,0,5.034a8.715,8.715,0,0,0,.228,1.469,1.976,1.976,0,0,0,.2.432c.265-.363.4-.547.538-.734a1.245,1.245,0,0,1,.131.053,3.433,3.433,0,0,1-.151.71,1.421,1.421,0,0,0,.963,1.93c.253.053.42-.029.4-.326q-.1-1.848-.188-3.7c-.016-.326.016-.657-.024-.975-.114-.926-.249-1.848-.379-2.77a14.447,14.447,0,0,1-.22-1.705c0-.273.228-.555.351-.832a2.615,2.615,0,0,1,.4.771c.171,1.428.212,2.876.457,4.287a27.589,27.589,0,0,1,.175,3.888,1.63,1.63,0,0,0,.257.812c.061.09.432.09.571,0a14.816,14.816,0,0,0,1.3-1.012c.436-.363.844-.763,1.281-1.122a.84.84,0,0,0,.245-1.191,14.959,14.959,0,0,1-.975-2.011,3.215,3.215,0,0,1,.094-1.212c.147.041.359.037.428.131.388.547.738,1.118,1.122,1.713-.579.29-.306.7-.155,1a.83.83,0,0,0,.787.551,3.157,3.157,0,0,1,2.668,1.122.567.567,0,0,0,.151.1c.33-.693.506-.616,1.032-.151a12.963,12.963,0,0,1,1.2,1.391c-.62.3-.653.392-.363.91.42.755.861,1.5,1.289,2.248a.681.681,0,0,0,.681.363c.534-.02,1.069,0,1.7,0-.294.575-.171,1.24-.971,1.444-.4.1-.233.592-.086.881a5.692,5.692,0,0,1,.742,2.484c0,.069-.016.143-.041.339-.49-.971-.914-1.832-1.354-2.688a4.293,4.293,0,0,0-.49-.767.431.431,0,0,0-.4-.086c-.832.359-1.677.7-2.468,1.138-.828.465-1.6,1.04-2.419,1.546a1.7,1.7,0,0,1-1.791-.078c-.559-.294-.689-.224-.971.367-.416.865-.608,1.024-1.224.91a1.47,1.47,0,0,1-.628-.371c-.33-.286-.551-.257-.775.114-.167.277-.392.522-.534.808a1.023,1.023,0,0,0,0,.51,5.341,5.341,0,0,0,.094.673c.065.314.224.453.559.281a10.564,10.564,0,0,1,1.142-.506,3.712,3.712,0,0,1,2.635-.012,1.55,1.55,0,0,0,1.693-.445,3.033,3.033,0,0,1,2.423-.983c.551.073,1.093.237,1.64.347a5.745,5.745,0,0,0,2.884.114,9.511,9.511,0,0,0,2.6-1.191.927.927,0,0,1,.22-.069,1.368,1.368,0,0,1-.62,1.591c-.53.257-1.089.457-1.591.755-.812.481-1.611,1-2.378,1.55a15.336,15.336,0,0,1-3.753,2.215,26.332,26.332,0,0,1-2.933.983,10.353,10.353,0,0,1-2.048.053,6.194,6.194,0,0,0-.632.078c-.306-.253-.587-.477-.861-.706a12.982,12.982,0,0,1-1.138-.971c-.314-.326-.538-.343-.836,0-.583.673-1.154,1.362-1.791,1.987A4.52,4.52,0,0,1-73.2-16.017,1.906,1.906,0,0,1-75.44-17.8c-.045-.62-.461-.844-1.044-.661a8.682,8.682,0,0,1-1.677.347,21.2,21.2,0,0,1-2.958.208,20.554,20.554,0,0,1-2.57-.379,11.579,11.579,0,0,1-1.411-.237,12.96,12.96,0,0,1-1.938-.673,14.521,14.521,0,0,1-4.006-2.574,7.382,7.382,0,0,1-1.73-2.639,4.908,4.908,0,0,1-.416-1.909,4.052,4.052,0,0,1,.747-2.235,10.949,10.949,0,0,1,3.945-3.3c.122-.069.249-.143.367-.216.881-.547.918-.685.412-1.7-.155.126-.306.228-.436.355a6.447,6.447,0,0,1-2.77,1.734c-.8.22-1.562.551-2.362.755-.571.147-1.2.1-1.762.261a11.666,11.666,0,0,1-3.488.171,24.65,24.65,0,0,1-2.88-.347c-.477-.065-.955-.139-1.424-.249-.7-.159-1.391-.33-2.072-.543a21.517,21.517,0,0,1-2.509-.885c-1.318-.6-2.627-1.232-3.875-1.958a21.571,21.571,0,0,1-2.835-2.023,28.373,28.373,0,0,1-2.313-2.227c-.628-.653-1.191-1.375-1.8-2.044-.481-.522-.559-.514-1.134-.106-.3.212-.6.416-.9.62-.029-.033-.057-.061-.082-.094.286-.237.555-.5.857-.71.555-.388.6-.514.359-1.138a21.9,21.9,0,0,1-.991-2.635,10.878,10.878,0,0,1-.494-3.08c.041-1.04-.069-2.1.049-3.125a8.261,8.261,0,0,1,.673-2.431c.538-1.191,1.212-2.325,1.856-3.472a3.384,3.384,0,0,1,.624-.681,22.119,22.119,0,0,1,2.223-2.154,18,18,0,0,1,2.974-1.762,40.715,40.715,0,0,1,3.924-1.648c.983-.355,2.023-.534,3.027-.836a15.782,15.782,0,0,1,4.1-.624c1.917-.061,3.83-.294,5.744-.33a29.678,29.678,0,0,1,3.435.31c.738.073,1.481.139,2.219.237.816.11,1.624.269,2.439.383a2.486,2.486,0,0,0,.869,0,.546.546,0,0,0,.277-.424,5.31,5.31,0,0,1,.424-2.064,3.062,3.062,0,0,1,1.314-1.558,5.449,5.449,0,0,0,1.012-.657,1.193,1.193,0,0,0,.355-.738,25.283,25.283,0,0,0,.02-2.835,30.606,30.606,0,0,0-.392-3.223,2.823,2.823,0,0,1,.273-1.53c.061-.159.139-.31.261-.579a2.529,2.529,0,0,1,.212.608c.082,1.7.2,3.4.212,5.1.029,2.949,0,5.9-.012,8.852,0,.432.343.583.624.722.991.481,2,.918,3,1.379.6.277.959.041,1-.612a1.709,1.709,0,0,0-.575-1.456c-.836-.812-1.579-1.717-2.362-2.578a2.371,2.371,0,0,1-.281-2.86c.461-1.154,1.562-1.6,2.492-2.211a1.222,1.222,0,0,0,.685-1.252c-.1-1.118-.1-2.244-.192-3.361-.073-.849-.233-1.693-.351-2.541-.024-.159-.033-.322-.057-.485-.126-.787-.253-1.579-.383-2.366a2.085,2.085,0,0,1,.522-1.9c.086.347.163.612.216.881.131.677.253,1.354.379,2.032.016.094.041.192.049.286.077,1.281.184,2.558.216,3.839.09,3.553.135,7.1.224,10.655a2.469,2.469,0,0,0,.853,1.958c1.093.946,2.064,2.032,3.1,3.047a1.945,1.945,0,0,0,.432.245,1.511,1.511,0,0,0,.163-.465c.008-1.191-.045-2.382,0-3.569a2.924,2.924,0,0,0-.865-2.284c-.457-.469-.832-1.012-1.256-1.513-.078-.094-.233-.118-.33-.2-.6-.506-1.293-1.016-1.224-1.9a3.269,3.269,0,0,1,2.032-2.872,5.775,5.775,0,0,0,1.256-.967.621.621,0,0,0,.131-.436c-.041-1.562-.061-3.129-.155-4.687-.057-.934-.237-1.856-.363-2.786-.016-.114-.037-.224-.049-.339-.131-1.073-.22-2.154-.4-3.215a3.275,3.275,0,0,1,.449-1.734c.012-.037.143-.073.159-.057a.543.543,0,0,1,.151.257c.082.755.139,1.509.22,2.264.122,1.11.318,2.215.388,3.329.118,1.95.159,3.9.233,5.858.041,1.024.094,2.048.122,3.076.041,1.383.147,2.774.061,4.153a2.881,2.881,0,0,0,.934,2.366c1.7,1.726,3.4,3.451,5.067,5.209,1.093,1.154,2.125,2.362,3.186,3.549.628.7,1.265,1.4,1.868,2.121a17.2,17.2,0,0,1,2.366,3.68c.339.718.677,1.444.955,2.187a6.7,6.7,0,0,1,.265,1.314,11.3,11.3,0,0,1,.216,1.762,4.8,4.8,0,0,1-.253,1.652,2.425,2.425,0,0,0,.371,2.362c.681,1.012,1.322,2.048,1.958,3.084.914,1.489,1.832,2.982,2.7,4.491a7.189,7.189,0,0,0,1.913,2.468A12.382,12.382,0,0,0-48.4-30.446a6.236,6.236,0,0,0,.971.228c.808.192,1.607.408,2.419.579.53.11,1.077.155,1.615.237.653.1,1.3.212,1.954.318l.575.1c.787.131,1.575.265,2.366.388.559.086,1.118.151,1.677.233.824.126,1.64.273,2.464.383.7.094,1.416.131,2.117.228.685.1,1.362.241,2.04.359.522.09,1.044.159,1.566.257.579.11,1.154.233,1.73.371.849.208,1.7.4,2.537.665.7.216,1.375.514,2.146.808-1.032.738-1.836.233-2.668-.078-.6-.22-1.207-.383-1.815-.571s-1.236-.388-1.86-.571c-.335-.1-.681-.171-1.024-.245-1.032-.208-2.064-.441-3.1-.6-.763-.122-1.546-.126-2.313-.228-.665-.09-1.318-.253-1.978-.371-.445-.082-.889-.163-1.334-.212-.783-.09-1.575-.147-2.358-.241-.412-.049-.816-.151-1.224-.216-.857-.135-1.713-.261-2.566-.4-.363-.057-.726-.126-1.085-.212-.791-.188-1.579-.392-2.37-.579-.53-.122-1.069-.216-1.6-.339a6.466,6.466,0,0,1-4.006-2.819c-.571-.853-1.1-1.738-1.648-2.607q-1.291-2.056-2.586-4.116a3.8,3.8,0,0,0-.371-.559c-.2-.224-.42-.51-.816-.122.359-.673-.02-1.065-.363-1.505-.759-.979-1.481-1.987-2.2-3a55.759,55.759,0,0,0-6.339-6.9c-1.171-1.146-2.444-2.187-3.684-3.263A2.913,2.913,0,0,0-72.083-55.35Zm7.7,35.074.481-1.1a4.02,4.02,0,0,0-.73-.2,3.905,3.905,0,0,0-1.069,0,3.889,3.889,0,0,0-1.2.432.771.771,0,0,0-.184.616,6.835,6.835,0,0,0,1.673.987c.192.065.575-.428.877-.665a1.045,1.045,0,0,1,.163-.09.909.909,0,0,1-.02.281c-.179.416.02.763.461.718a6.018,6.018,0,0,0,1.326-.233c.9-.3,1.8-.624,2.672-1a22.585,22.585,0,0,0,2.207-1.142c.514-.3.5-.583-.037-.783-.5-.184-1.057-.22-1.558-.408a3.175,3.175,0,0,0-2.513.224.689.689,0,0,0-.481.775c.033.522.008,1.048.008,1.587-.118-.02-.159-.016-.179-.033-.167-.151-.335-.306-.5-.465a.565.565,0,0,0-.906.037C-64.047-20.57-64.218-20.427-64.385-20.276Zm-14.155-7.082c-.069-1.868-.131-3.737-.208-5.605-.02-.485-.118-.967-.131-1.456a4.955,4.955,0,0,1,.1-.979,7.809,7.809,0,0,1,.224-.787.7.7,0,0,0-.233-.029,1.632,1.632,0,0,1-2.264-.624.618.618,0,0,0-.538-.171,2.4,2.4,0,0,0-1.783,2.284c-.024.779.343,1.061,1.081.755A1.716,1.716,0,0,1-79.842-32.5a7.644,7.644,0,0,1-.216,1.844,1.263,1.263,0,0,1-1.354.791,3.656,3.656,0,0,1-1.974-1.685c-.233-.412-.457-.367-.828-.269a3.053,3.053,0,0,1-2.215-.069,1.08,1.08,0,0,0-1.64.873,3.553,3.553,0,0,0,1.187,3.076,5.553,5.553,0,0,0,2.215,1.293,8.308,8.308,0,0,0,3.594.538c.942-.122,2.015-.078,2.464-1.232.008-.02.057-.029.086-.041-.363,1.354-.881,2.452-2.525,2.635a9.581,9.581,0,0,1-3.321-.224,10.667,10.667,0,0,1-2.7-1.3,3.575,3.575,0,0,1-1.607-4.275c.053-.131-.049-.326-.082-.494-.151.057-.355.069-.445.179a2.228,2.228,0,0,0-.726,1.77,6.479,6.479,0,0,0,.228,1.505,5.055,5.055,0,0,0,1,1.721,22.033,22.033,0,0,0,2.08,1.55A9.7,9.7,0,0,0-82.877-22.8a20.78,20.78,0,0,0,2.158.253,5.037,5.037,0,0,0,2.472-.233c.351-.122.693-.261,1.057-.4a1.921,1.921,0,0,1-.2.4c-.412.506-.742,1.11-1.5,1.2a8.1,8.1,0,0,0-1.611.257,6.744,6.744,0,0,1-2.9-.135,8.078,8.078,0,0,1-2.346-.771A11.182,11.182,0,0,1-88.931-24a5.145,5.145,0,0,1-1.962-3.537,3.265,3.265,0,0,1,.09-.865c.1-.461.224-.918.375-1.518a2.009,2.009,0,0,0-.42.245,3.769,3.769,0,0,0-1,1.509,4.327,4.327,0,0,0,.861,4.2A11.968,11.968,0,0,0-89.433-22.4a8.288,8.288,0,0,0,1.819,1.248,29.3,29.3,0,0,0,3.333,1.265,12.428,12.428,0,0,0,2.566.583,20.158,20.158,0,0,0,2.851,0,9.866,9.866,0,0,0,2.117-.216c.628-.167,1.456-.2,1.522-1.175.175.2.281.436.453.514.277.118,1.248-.481,1.387-.8a2.078,2.078,0,0,0-.4-2.085,3.056,3.056,0,0,1-.371-2.354c.673.563,1.191,1.073,2.174.824a4.561,4.561,0,0,0,2.036-1.322c-.1.653.33.9.681,1.167.192.147.522.245.608-.151a7.214,7.214,0,0,0,.184-1.35c.024-1.22.029-2.444-.008-3.667a.819.819,0,0,0-.4-.563c-.555-.322-1.183-.518-1.526-1.134a.479.479,0,0,0-.449-.143.77.77,0,0,0-.281,1.1,2.307,2.307,0,0,1,.571,1.644,9.46,9.46,0,0,1-.024,1.024,2.686,2.686,0,0,1-.5,1.2,3.737,3.737,0,0,1-1.314.832c-.812.326-1.411-.147-1.416-1.02a4.868,4.868,0,0,1,.6-2.77c.073-.11.024-.3.041-.592-1.126.416-2.154.8-3.182,1.179.563-.5,1.159-.9,1.721-1.33a.505.505,0,0,0,.02-.865c-.436-.416-.844-.857-1.265-1.285a1.668,1.668,0,0,1-.22-1.934c.62.351,1.236.7,1.872,1.061-.2.228-.31.363-.506.587.5.241.938.477,1.4.661a.524.524,0,0,0,.412-.147,1.693,1.693,0,0,0,.281-2.015c-.4-.877-.861-1.726-1.228-2.615a.92.92,0,0,0-.979-.608,3.451,3.451,0,0,1-1.265-.216,9.218,9.218,0,0,1-1.379-.889c-.237-.163-.388-.216-.485.143-.175.649-.392,1.289-.571,1.938a.461.461,0,0,0,.1.347,3.341,3.341,0,0,1,.6,2.586c-.167.131-.318.29-.314.441.024,1.024.114,2.048.118,3.072a15.262,15.262,0,0,1-.175,2.064A3.848,3.848,0,0,1-78.541-27.358Zm-6.927-6.927.086.061c-.061.135-.175.269-.175.408,0,.179.045.481.147.518A1.18,1.18,0,0,0-83.7-34.386a7.064,7.064,0,0,1,.836-2.876,2.241,2.241,0,0,1,1.375-1.154c.6-.179.832.363,1.212.636A1.087,1.087,0,0,0-79-37.552a1.279,1.279,0,0,0,.657-1.252q.018-5.256.016-10.512c0-.543-.212-.649-.734-.428A2.715,2.715,0,0,1-82-49.815a2.15,2.15,0,0,0-.518-.351,1.271,1.271,0,0,0-.555,0,.444.444,0,0,0-.016.3c.4.636.824,1.265,1.24,1.893a4.431,4.431,0,0,1,.73,1.171c.086.339-.143.755-.233,1.138-.253-.131-.514-.245-.751-.4-.147-.094-.233-.29-.383-.371a4.06,4.06,0,0,0-1.4-.669,4.756,4.756,0,0,0-3.141.926.585.585,0,0,0,.012,1.044c.257.192.567.318.828.51.4.294.881.559.783,1.167a2.611,2.611,0,0,1-.318.738,6.118,6.118,0,0,1-2.97,2.794,11.29,11.29,0,0,1-2.08.645,10.481,10.481,0,0,1-2.076.375,10.819,10.819,0,0,1-3.855-.392c-.775-.253-1.611-.343-2.366-.64a15.979,15.979,0,0,1-5-2.827,15.134,15.134,0,0,1-2.325-2.607,22.068,22.068,0,0,1-1.159-2.06c-.441-.812-.494-.828-1.314-.465a37.346,37.346,0,0,0-5.067,3.051c-.971.628-1.872,1.367-2.823,2.023a.715.715,0,0,0-.375.853,1.95,1.95,0,0,0,.416.747c.914.946,1.811,1.913,2.79,2.786.9.808,1.917,1.485,2.847,2.256a11.976,11.976,0,0,0,3.055,1.86c1,.42,2,.836,3.023,1.191.791.273,1.615.461,2.431.661.416.1.844.151,1.265.237a18.06,18.06,0,0,0,1.836.371c1.24.114,2.488.2,3.737.212a13.862,13.862,0,0,0,2.162-.241c.649-.1,1.293-.216,1.93-.363a8.732,8.732,0,0,0,1.881-.53c1.065-.526,2.2-1.02,2.66-2.362.147.669.155,1.3.832,1.607C-86-33.791-85.733-34.04-85.467-34.284Zm-6.458-28.71a3.354,3.354,0,0,1,.514.559c.306.579.583,1.179.853,1.779.318.718.436.767,1.236.791a16.867,16.867,0,0,1,2.762.241,14.478,14.478,0,0,0,2.709.4c.436.008.592-.167.583-.571s.008-.783,0-1.175a.666.666,0,0,0-.086-.363,5.766,5.766,0,0,0-3.651-2.293c-.787-.143-1.571-.318-2.366-.428-1.134-.155-2.276-.286-3.414-.392-.649-.061-1.3-.065-1.95-.073-1.281-.02-2.562-.069-3.839-.024-.934.033-1.864.2-2.794.3-.689.078-1.383.126-2.068.241-.485.082-.963.237-1.44.367s-.975.29-1.464.42c-.583.159-1.183.261-1.746.465a28.081,28.081,0,0,0-4.765,2.284,14.547,14.547,0,0,0-4.687,4.81,12.521,12.521,0,0,0-1.452,3.794,5.226,5.226,0,0,0-.212,1.081c-.037.763-.049,1.534-.012,2.3a21.855,21.855,0,0,0,.245,2.3c.073.469.273.918.379,1.383a3.713,3.713,0,0,0,.959,1.9.352.352,0,0,0,.322.045c.445-.286.877-.592,1.3-.906.363-.269.706-.563,1.069-.832a27.969,27.969,0,0,0,2.284-1.709,16.467,16.467,0,0,1,3.243-2.052c.889-.506,1.6-1.048,1.4-2.211a2.817,2.817,0,0,1,0-.828,4.2,4.2,0,0,1,.265-1.2c.318-.681.73-1.322,1.093-1.983a6.9,6.9,0,0,1,3.166-2.945c1.126-.538,2.28-1.02,3.439-1.489a5.661,5.661,0,0,1,1.122-.245c.506-.09,1.012-.175,1.518-.249.861-.126,1.717-.265,2.578-.359,1.081-.118,2.166-.2,3.361-.3a9.826,9.826,0,0,0-.567-1.175A1.337,1.337,0,0,1-91.925-62.995Zm2.276,21.106c-.653-.636-1.24-1.216-1.832-1.783a5.823,5.823,0,0,0-1.044-.942c-1.175-.673-2.378-1.3-3.586-1.905-1.469-.742-2.937-1.489-4.438-2.158a7.936,7.936,0,0,0-2.333-.7,6.126,6.126,0,0,0-2.843.192.667.667,0,0,0-.477.869,7.6,7.6,0,0,0,.559,1.326,22.861,22.861,0,0,0,1.391,2.121,6.712,6.712,0,0,0,1.1,1.077c.355.3.779.518,1.142.812a12.277,12.277,0,0,0,3.892,1.86q1.15.4,2.325.7a7.5,7.5,0,0,0,1.734.322,14.738,14.738,0,0,0,4.724-.412,15.116,15.116,0,0,0,2.439-.914.953.953,0,0,0,.049-1.721c-.269-.175-.547-.335-.824-.494a1.06,1.06,0,0,1-.424-1.456c.1-.2.179-.412.277-.612a4.449,4.449,0,0,1,3.047-2.647c.861-.188,1.016-.412,1.057-1.314.045-.926,0-1.856.045-2.782.033-.747.139-1.489.192-2.235.065-.955.1-1.913.167-2.868a.866.866,0,0,0-.62-.906c-.861-.216-1.717-.469-2.586-.636-.93-.179-1.881-.286-2.823-.408-.42-.053-.547.175-.494.567a4.546,4.546,0,0,1,.1,1.212,2.527,2.527,0,0,0,.991,2.464,2.913,2.913,0,0,1,1.073,2.631c-.065.526-.135,1.057-.192,1.583A3.867,3.867,0,0,1-88.56-49a1.017,1.017,0,0,1-.816.351.746.746,0,0,1-.612-.824,11.361,11.361,0,0,1,.518-1.587,2.606,2.606,0,0,0,.379.587c.159.131.4.286.563.245.179-.041.445-.3.436-.449a4.052,4.052,0,0,0-.3-1.436c-.245-.514-.334-1.142-.91-1.481-.2-.118-.277-.5-.477-.567-.4-.131-.335.379-.551.543-.045.033-.045.122-.078.175-.436.751-.877,1.5-1.309,2.248a10.568,10.568,0,0,0-.971,1.77,6.829,6.829,0,0,0-.159,1.673l.253.073c.363-.689.726-1.383,1.093-2.072.1.094.131.155.11.188a3.09,3.09,0,0,0-.155,2.794,1.44,1.44,0,0,0,.82.861,2.367,2.367,0,0,0,1.828-.208,1.979,1.979,0,0,1,.265-.126c.033.045.061.09.094.135-.408.347-.8.726-1.232,1.036-.412.294-.453.4-.135.787a10.249,10.249,0,0,1,.685.885.566.566,0,0,1,.094.441A10.816,10.816,0,0,1-89.649-41.888Zm-4.022-7.053a3.153,3.153,0,0,1-.126-.436c-.029-.175-.012-.359-.045-.53a10.435,10.435,0,0,1-.339-1.938,11.477,11.477,0,0,1,.383-2.207,2.746,2.746,0,0,1,2.729-2.3.648.648,0,0,0,.718-.791c-.135-.636-.359-1.252-.534-1.881a.607.607,0,0,0-.734-.465c-1.505.09-3.011-.065-4.532.159a16.657,16.657,0,0,0-2.631.506,18.19,18.19,0,0,0-2.456,1.032,9.082,9.082,0,0,0-3.341,2.35,9.733,9.733,0,0,0-1.456,2.578,5.676,5.676,0,0,0-.412,2.309c.016.33.151.449.457.379s.583-.155.877-.216a14.556,14.556,0,0,1,1.942-.375,6.211,6.211,0,0,1,3,.555c.955.428,1.95.783,2.884,1.248,1.105.551,2.158,1.207,3.251,1.779.155.082.555.024.6-.082a2.545,2.545,0,0,0,.245-1.012,4.9,4.9,0,0,1,.738-2.1,17.078,17.078,0,0,0,1.787-3.671c.126-.518-.086-.861-.608-.91a2.767,2.767,0,0,0-1.726.51,1.36,1.36,0,0,0-.62.763,5.607,5.607,0,0,0,.253,2.868A2.093,2.093,0,0,1-93.671-48.942Zm21.49-11.414h0c0,.734.053,1.473-.016,2.2a1.68,1.68,0,0,0,.844,1.624c.473.339.955.669,1.4,1.052,1.261,1.1,2.525,2.195,3.737,3.345A50.824,50.824,0,0,1-61-46.551c.742.955,1.53,1.881,2.317,2.8a2.087,2.087,0,0,0,.522.322,2.093,2.093,0,0,0,.245-.579,9.755,9.755,0,0,0-.412-3.378,8.834,8.834,0,0,0-.526-1.44,13.332,13.332,0,0,0-1.966-3.223c-.861-.983-1.628-2.044-2.48-3.031-1.114-1.293-2.24-2.582-3.414-3.814-1.448-1.518-2.953-2.982-4.451-4.451-.159-.155-.526-.306-.657-.228a.929.929,0,0,0-.335.673C-72.2-62.048-72.181-61.2-72.181-60.356ZM-77.566-49.3a3.63,3.63,0,0,0-.2.767c-.012,1.987-.041,3.977.008,5.964a4.111,4.111,0,0,0,.636,2.337,1.823,1.823,0,0,0,1.562.979c.347-.012.379-.159.257-.436-.192-.436-.363-.881-.543-1.322-.4-.975-.767-1.958-1.2-2.917a1.781,1.781,0,0,1,.1-1.991,5.207,5.207,0,0,1,1.456,2.358c-.179.155-.416.388-.367.49.5,1.106,1.04,2.195,1.591,3.276.065.126.261.188.4.281.082-.179.237-.355.237-.534,0-.571-.078-1.138-.086-1.709-.033-2.362-.049-4.724-.073-7.086,0-.6-.159-.677-.693-.445C-75.444-48.872-76.424-48.423-77.566-49.3Zm13.715,20.437a2.213,2.213,0,0,1,.188-.726c.151-.208.078-.6.5-.616a4.465,4.465,0,0,0,1.13-.216c.265-.086.518-.286.379-.624-.118-.3-.306-.416-.689-.281a15.428,15.428,0,0,1-1.889.481c-.938.212-1.872.424-2.819.6-.6.11-.828.335-.828.955,0,1.171,0,2.346.008,3.516a2.044,2.044,0,0,0,.151.514,2.516,2.516,0,0,0,.485-.383,8.774,8.774,0,0,0,.51-.849,1.084,1.084,0,0,0,1.008.824c1.044.139,1.138-.791,1.5-1.4,1.277.33,1.3.416,2.215.139a8.62,8.62,0,0,0,1.905-1.044c.1-.061.114-.326.086-.481-.012-.065-.233-.126-.363-.139-1.118-.078-2.235-.143-3.349-.216C-63.757-28.814-63.8-28.843-63.851-28.867ZM-70.3-24.18c-.693.375-1.3.722-1.925,1.032a.891.891,0,0,0-.616.771c-.057.571-.228,1.13-.33,1.7a1.077,1.077,0,0,0,.069.363,1.139,1.139,0,0,0,.347-.09c.412-.273.677.057.938.249a.524.524,0,0,1,.1.775c-.571.9-.6.836-1.252.2-.514-.5-.979-.473-1.562.057-.469.428-.461.543.069,1.216.02.024.029.065.053.082.355.2.742.608,1.057.559a3.288,3.288,0,0,0,1.607-.714c.987-.861,1.893-1.828,2.8-2.778a1.483,1.483,0,0,0,.322-.779,9.468,9.468,0,0,0-.008-1.02.507.507,0,0,0-.343-.538,7.314,7.314,0,0,1-1.122-.869A1.441,1.441,0,0,1-70.3-24.18ZM-83-55.391l.094.012a7.238,7.238,0,0,0,.008,1.073,4.039,4.039,0,0,0,1.15,2.725,2.235,2.235,0,0,0,2.178.575.437.437,0,0,0,.163-.379A1.806,1.806,0,0,0-81-52.544a.321.321,0,0,1-.237-.171,1.367,1.367,0,0,1,.616-1.159c.718-.163,1.44-.286,2.158-.449.143-.033.347-.155.379-.277a1.4,1.4,0,0,0-.755-1.705c-1-.522-2.019-1.024-3.035-1.518-.335-.163-.787,0-.824.269C-82.812-56.831-82.906-56.109-83-55.391Zm10.121.033a1.656,1.656,0,0,0-.645-1.489c-.8-.51-1.566-1.077-2.354-1.615a8.183,8.183,0,0,0-.889-.567c-.416-.212-.6-.078-.587.388a5.312,5.312,0,0,1,0,1.167c-.139.665.3.946.718,1.24q1.493,1.046,3.019,2.048a.668.668,0,0,0,.5.078c.086-.024.135-.253.159-.4C-72.923-54.779-72.911-55.052-72.883-55.358ZM-77.9-67.58h-.016c0-.816.008-1.628-.008-2.444,0-.131-.126-.257-.2-.388a2.254,2.254,0,0,0-.3.253,5.518,5.518,0,0,1-.579.649c-.428.335-.893.628-1.346.934-.612.412-.718.91-.216,1.452.7.751,1.44,1.456,2.174,2.17a.5.5,0,0,0,.379.1c.053-.008.106-.216.106-.33C-77.9-65.985-77.9-66.78-77.9-67.58Zm16.44,36.449c.033.767.179,1.081.592,1.13.8.09,1.611.159,2.419.192.547.02.71-.294.436-.779-.579-1.028-1.159-2.052-1.75-3.072-.069-.118-.269-.294-.31-.273a.98.98,0,0,0-.347.371,10.744,10.744,0,0,0-.526,1.065C-61.146-32.025-61.7-31.678-61.465-31.131Zm-11.61-20.825a4.667,4.667,0,0,0-.555-.64c-.853-.685-1.726-1.35-2.594-2.011a1.891,1.891,0,0,0-.571-.335.523.523,0,0,0-.73.367c-.078.351.179.416.49.494a12.207,12.207,0,0,1,1.224.518c.4.151.383.465.3.759a2.326,2.326,0,0,1-.844,1.305,1.78,1.78,0,0,0-.461.428.532.532,0,0,0-.029.432,1.151,1.151,0,0,0,1.1.432c.665-.257,1.338-.506,1.978-.812A1.132,1.132,0,0,0-73.074-51.956Zm.1-18.239c0-.665,0-1.416-.008-2.166a1.02,1.02,0,0,0-.131-.339,1.058,1.058,0,0,0-.355.192,5.906,5.906,0,0,1-.445.624,15.558,15.558,0,0,1-1.371,1.061c-.453.314-.543.583-.2.979q.93,1.059,1.9,2.08a1.637,1.637,0,0,0,.481.253,1.673,1.673,0,0,0,.208-.547C-72.895-68.743-72.94-69.428-72.972-70.195Zm-10.007,4.226-.094-.012c0-.522.012-1.04-.008-1.562a.486.486,0,0,0-.208-.339c-.053-.037-.22.065-.314.135-.494.355-.971.734-1.477,1.077-.587.4-.783.84-.494,1.33a2.765,2.765,0,0,0,.534.559c.416.375.828.759,1.265,1.11.228.179.453.2.5-.2C-83.183-64.574-83.077-65.271-82.979-65.969Zm18.112,33.891c0,.016,0,.033.008.049A11.444,11.444,0,0,0-63.4-32.29c.885-.286.926-.457.432-1.305-.082-.139-.179-.261-.269-.4-.233-.347-.473-.408-.885-.2a7.447,7.447,0,0,0-2.227,1.73,2.843,2.843,0,0,0-.269.461,1.529,1.529,0,0,0,.522.147C-65.683-31.894-65.275-32-64.867-32.078Zm-8.028,4.63c.02.041.037.086.057.126.555-.233,1.122-.436,1.656-.706A.677.677,0,0,0-71-29a4.361,4.361,0,0,0-.84-.632.671.671,0,0,0-.547-.008,2.454,2.454,0,0,0-1.048,1.346C-73.682-27.774-73.458-27.431-72.895-27.448ZM-79.85-57.961c.033-.073.061-.143.094-.216a12.6,12.6,0,0,0-2.464-2.142.469.469,0,0,0-.441.11,1.135,1.135,0,0,0,.408,1.387c.51.22,1.032.408,1.554.6C-80.417-58.124-80.132-58.051-79.85-57.961Zm4.5-1.326c.045-.012.09-.024.135-.033a1.4,1.4,0,0,0-.151-.494c-.371-.445-.771-.865-1.167-1.289-.184-.2-.4-.379-.665-.143a.5.5,0,0,0-.008.738,1.4,1.4,0,0,0,.375.367C-76.346-59.842-75.844-59.568-75.351-59.287Zm-4.773-1.546c.436.975,1.318,1.305,1.942,1.954.114-.294.253-.681.131-.8A3.49,3.49,0,0,0-80.123-60.833Zm9,27.756a3.782,3.782,0,0,0-.008-.575.373.373,0,0,0-.188-.228c-.045-.02-.184.078-.212.147-.224.563-.441,1.13-.636,1.7-.033.1.037.237.061.359a1.11,1.11,0,0,0,.383-.114A1.252,1.252,0,0,0-71.12-33.077Zm-9.872,1.734.587-.261c.273-.114.31-.31.094-.477a2.06,2.06,0,0,0-1.619-.4c-.057.008-.151.322-.11.359C-81.7-31.841-81.331-31.588-80.992-31.343ZM-78.5-52.756c-.053.082-.106.159-.159.241.2.224.371.518.624.645.147.073.445-.1.64-.216a.481.481,0,0,0-.029-.375A10.756,10.756,0,0,0-78.5-52.756Zm16.411,18.541c0,.33-.069.571.016.722a1.183,1.183,0,0,0,.522.4c.065.033.216-.118.33-.184a3.82,3.82,0,0,0-.31-.514A4.213,4.213,0,0,0-62.089-34.215Z" transform="translate(120.631 86.671)" fill="#fff"/>
    <path id="Path_186" data-name="Path 186" d="M15.335,26.719A5.8,5.8,0,0,0,13.814,24.4a1.347,1.347,0,0,0-2.231.281c-.045.065-.086.126-.208.31a2.56,2.56,0,0,1,.008-.657c.326-1,.734-1.921,1.95-1.783a1.01,1.01,0,0,1,.681.375,16.35,16.35,0,0,1,1.183,2.2,7.459,7.459,0,0,1,.3,1.562C15.437,26.7,15.384,26.711,15.335,26.719Z" transform="translate(42.481 16.886)" fill="#fff"/>
    <path id="Path_187" data-name="Path 187" d="M5.86,82.527c.073-.159.118-.277.184-.388.4-.681.812-.751,1.411-.265.245.2.522.367.812.567-.322.343-.592.669-.9.946a.447.447,0,0,1-.441.024C6.545,83.143,6.2,82.821,5.86,82.527Z" transform="translate(45.735 -18.061)" fill="#fff"/>
    <path id="Path_188" data-name="Path 188" d="M5.829,14.41a4.561,4.561,0,0,1-.779-.33c-.061-.037-.037-.322.041-.428a.415.415,0,0,1,.4.024,3.521,3.521,0,0,1,.4.628C5.874,14.337,5.854,14.373,5.829,14.41Z" transform="translate(46.235 22.17)" fill="#fff"/>
    <path id="Path_189" data-name="Path 189" d="M-43.392,18.814a5.551,5.551,0,0,1,.551.693.851.851,0,0,0,1.15.392c.4-.245.844-.477,1-1a1.561,1.561,0,0,1,.253-.383.6.6,0,0,1,.518.722c-.029.477-.008.959-.008,1.538-.188-.3-.318-.5-.534-.84-.106.192-.159.29-.22.383-.335.526-.612,1.036-1.4,1.093-.5.037-.612.653-.722,1.105a3.46,3.46,0,0,1-1.338,1.995c-.514.383-1.048.734-1.6,1.073A15,15,0,0,1-47.667,26.7a10.138,10.138,0,0,1-2.117.6c-.7.131-1.416.155-2.129.216a1.513,1.513,0,0,1-.636-.073c.424-.163.853-.322,1.277-.485,1.154-.449,2.333-.84,3.451-1.367.955-.453,1.836-1.057,2.745-1.6.4-.237.779-.51,1.2-.714,1.048-.51,1.122-1.293.649-2.293a6.671,6.671,0,0,1-.518-1.285,2.042,2.042,0,0,1,.167-.816C-43.514,18.859-43.453,18.834-43.392,18.814Z" transform="translate(80.318 19.263)" fill="#fff"/>
    <path id="Path_190" data-name="Path 190" d="M-66.131,35.682c-.51-.326-.942-.608-1.4-.9.286-.477.469-.971,1.077-.918a1.214,1.214,0,0,1,.653.261c.653.575,1.154.228,1.64-.224a.6.6,0,0,1,.844-.1c.914.547.955,1.04.041,1.583a.71.71,0,0,1-.547-.082,2.855,2.855,0,0,1-.677-.465c-.375-.347-.681-.188-.971.1C-65.69,35.163-65.882,35.4-66.131,35.682Z" transform="translate(89.187 10.293)" fill="#fff"/>
    <path id="Path_191" data-name="Path 191" d="M-32.2,13.209c.024.469-.265.62-.632.645a.678.678,0,0,1-.747-.7.764.764,0,0,1,.7-.653A.753.753,0,0,1-32.2,13.209Z" transform="translate(69.087 22.828)" fill="#fff"/>
    <path id="Path_192" data-name="Path 192" d="M-20.305,26.163a1.8,1.8,0,0,1-.6-.343c-.069-.086.045-.388.159-.518.086-.1.306-.086.465-.122.041.29.086.579.126.869C-20.2,26.086-20.252,26.126-20.305,26.163Z" transform="translate(61.592 15.32)" fill="#fff"/>
    <path id="Path_193" data-name="Path 193" d="M-20.628,14.973c-.1.151-.224.445-.29.432-.322-.061-.681.571-.963-.012a4.294,4.294,0,0,1,.538-.375,4.05,4.05,0,0,1,.6-.188C-20.705,14.879-20.668,14.928-20.628,14.973Z" transform="translate(62.159 21.448)" fill="#fff"/>
    <path id="Path_194" data-name="Path 194" d="M-20.023,29.068a2.677,2.677,0,0,1-.669.326c-.1.012-.33-.249-.31-.29.094-.179.228-.4.4-.449C-20.492,28.623-20.3,28.855-20.023,29.068Z" transform="translate(61.64 13.264)" fill="#fff"/>
    <path id="Path_195" data-name="Path 195" d="M-13.354,56.5a4.918,4.918,0,0,1,.343,1.048,3.845,3.845,0,0,1-.216,2.133,1.538,1.538,0,0,1-.7.722,1.465,1.465,0,0,0-.881.8,1.613,1.613,0,0,1-.167.224,5.775,5.775,0,0,0-.763-2.195c-.122-.3.143-.763.228-1.154.151.045.351.045.445.147a3.353,3.353,0,0,1,.388.616c.212.359.6.4,1.159.061.314-.188.175-.441.041-.7C-13.88,57.442-13.88,57.063-13.354,56.5Z" transform="translate(58.541 -3.223)" fill="#fff"/>
    <path id="Path_196" data-name="Path 196" d="M-19.437,65.506c-.008.33-.587,1.016-.8.889-.351-.2-.893-.6-.853-.832.069-.383.5-.738.849-1.012C-20.1,64.429-19.433,65.225-19.437,65.506Z" transform="translate(61.695 -7.983)" fill="#fff"/>
    <path id="Path_197" data-name="Path 197" d="M-12.254,70.8c0,.339-.649,1.126-.836,1a2.574,2.574,0,0,1-.779-.844c-.118-.216.6-.922.861-.918A.952.952,0,0,1-12.254,70.8Z" transform="translate(57.424 -11.234)" fill="#fff"/>
    <path id="Path_198" data-name="Path 198" d="M-14.12,36.595c.045-.436.249-.575.518-.49a2.084,2.084,0,0,1,.559.408c-.188.192-.375.388-.567.579Z" transform="translate(57.565 8.866)" fill="#fff"/>
    <path id="Path_199" data-name="Path 199" d="M-10.08,36.638c.049-.436.245-.587.522-.5A1.992,1.992,0,0,1-9,36.565c-.188.171-.355.428-.571.485C-9.7,37.083-9.913,36.785-10.08,36.638Z" transform="translate(55.173 8.847)" fill="#fff"/>
    <path id="Path_200" data-name="Path 200" d="M-30.542,54.408c.143.086.436.237.7.424a.716.716,0,0,0,.967-.045c.587-.453,1.265-.241,1.35.481.033.29-.306.661-.551.93s-.457.02-.64-.167c-.09-.094-.192-.175-.281-.269a.591.591,0,0,0-.906-.016c-.612.538-.8.559-1.383-.029-.143-.143-.281-.53-.212-.6C-31.244,54.861-31.268,54.294-30.542,54.408Z" transform="translate(67.864 -1.976)" fill="#fff"/>
    <path id="Path_201" data-name="Path 201" d="M-34.569,52.826c-.171-.4-.351-.791-.51-1.191-.024-.065.033-.163.053-.245.082.029.224.037.241.086.126.436.228.881.339,1.326Z" transform="translate(69.977 -0.198)" fill="#fff"/>
    <path id="Path_202" data-name="Path 202" d="M.81,71.773c.408-.322.592-.265.9.281C1.348,72.153,1.018,72.23.81,71.773Z" transform="translate(48.725 -12.149)" fill="#fff"/>
  </g>
</svg>
