<svg xmlns="http://www.w3.org/2000/svg" xmlns:xlink="http://www.w3.org/1999/xlink" width="74.52" height="42.231" viewBox="0 0 74.52 42.231">
  <defs>
    <clipPath id="clip-path">
      <rect id="Rectangle_5" data-name="Rectangle 5" width="74.52" height="42.231" fill="#fff"/>
    </clipPath>
  </defs>
  <g id="iso" clip-path="url(#clip-path)">
    <path id="Path_86" data-name="Path 86" d="M70.894,20.776H76.53c-.089.471-.171.927-.262,1.385q-1.243,6.325-2.492,12.624a1.364,1.364,0,0,0,1.009,1.825,9.848,9.848,0,0,0,3.513.506,10.9,10.9,0,0,0,3.966-.718,2.347,2.347,0,0,0,1.483-1.863q1.265-6.521,2.53-13.048c.139-.727.136-.727.882-.727h4.886l-.272,1.458q-.977,5.126-1.958,10.256c-.24,1.246-.474,2.5-.737,3.738A7.077,7.077,0,0,1,85.6,40.835a12.071,12.071,0,0,1-4.718,1.581,22.061,22.061,0,0,1-8.184-.275,7.046,7.046,0,0,1-3.248-1.619,4.9,4.9,0,0,1-1.531-4.851q1.448-7.3,2.881-14.6A2.011,2.011,0,0,0,70.894,20.776Z" transform="translate(-46.357 -14.195)" fill="#fff"/>
    <path id="Path_87" data-name="Path 87" d="M147.23,6.612h5.575a.361.361,0,0,1,.414.316q1.527,4.744,3.077,9.487c.044.133.089.266.152.449.095-.126.164-.218.228-.316Q162.369,8.433,168.061.312A.591.591,0,0,1,168.608,0h6.581L154.564,29.41Z" transform="translate(-100.669 0.001)" fill="#fff"/>
    <path id="Path_88" data-name="Path 88" d="M0,26.2c.335-1.714.658-3.371.993-5.028,0-.076.152-.139.244-.187.044-.025.117,0,.177,0H22.469c-.332,1.749-.667,3.453-1,5.193H13.69c-.13.661-.256,1.293-.383,1.929l-2.03,10.436c-.244,1.265-.493,2.53-.731,3.77-.032.164-.092.218-.25.218H4.94a1.344,1.344,0,0,1-.155-.025C5.847,37.083,6.9,31.672,7.973,26.22Z" transform="translate(0 -14.341)" fill="#fff"/>
    <path id="Path_89" data-name="Path 89" d="M79.34,3.634c.237-1.218.468-2.413.705-3.634h21.188c-.231,1.214-.462,2.41-.693,3.624Z" transform="translate(-54.249)" fill="#fff"/>
    <path id="Path_90" data-name="Path 90" d="M139.982,115.584v2.723H138.29v-6.844h1.082a21.808,21.808,0,0,1,2.53.073,1.853,1.853,0,0,1,.566,3.574c.98.863,1.2,2.125,1.841,3.223h-1.78c-.076,0-.174-.111-.215-.193-.247-.515-.478-1.037-.718-1.553a3.646,3.646,0,0,0-.234-.421A1.18,1.18,0,0,0,139.982,115.584Zm0-2.887v1.41a1.523,1.523,0,0,0,.032.19c.4-.019.8-.016,1.192-.066a.632.632,0,0,0,.607-.693.655.655,0,0,0-.572-.753,12.272,12.272,0,0,0-1.249-.089Z" transform="translate(-94.557 -76.212)" fill="#fff"/>
    <path id="Path_91" data-name="Path 91" d="M48.417,111.51H50.1a1.394,1.394,0,0,1,.028.2q0,1.926,0,3.849a2.7,2.7,0,0,1-2.618,2.846,5.544,5.544,0,0,1-2.109-.095,2.653,2.653,0,0,1-2.109-2.593c-.041-1.36,0-2.723,0-4.086a.459.459,0,0,1,.028-.1h1.7v3.947a1.474,1.474,0,0,0,1.48,1.534,1.59,1.59,0,0,0,1.875-1.164,3.163,3.163,0,0,0,.063-.715V111.88Z" transform="translate(-29.588 -76.246)" fill="#fff"/>
    <path id="Path_92" data-name="Path 92" d="M7.46,118.286c.316-.762.6-1.483.892-2.214.588-1.464,1.183-2.928,1.765-4.4a.348.348,0,0,1,.392-.266c.49.019.984,0,1.474,0a.389.389,0,0,1,.291.168c.984,2.176,1.954,4.358,2.928,6.54a.579.579,0,0,1,.025.139H13.535a.316.316,0,0,1-.2-.171c-.142-.316-.275-.632-.4-.949a.291.291,0,0,0-.316-.228H10.009a.275.275,0,0,0-.316.212c-.1.316-.228.633-.338.93-.047.136-.108.212-.272.209C8.58,118.277,8.042,118.286,7.46,118.286Zm4.876-2.581-1.1-2.615-.987,2.615Z" transform="translate(-5.101 -76.175)" fill="#fff"/>
    <path id="Path_93" data-name="Path 93" d="M190.3,118.277h-1.7a.316.316,0,0,1-.2-.161q-.209-.474-.389-.949a.3.3,0,0,0-.316-.234h-2.618a.269.269,0,0,0-.316.209q-.161.474-.361.949c-.032.076-.123.171-.193.174H182.52l.914-2.255c.582-1.445,1.17-2.89,1.746-4.339a.348.348,0,0,1,.389-.269c.5.019,1.006,0,1.505,0a.354.354,0,0,1,.262.164q1.471,3.273,2.925,6.549C190.277,118.179,190.284,118.23,190.3,118.277Zm-4-5.19-.987,2.612H187.4Z" transform="translate(-124.799 -76.17)" fill="#fff"/>
    <path id="Path_94" data-name="Path 94" d="M82.294,113.011a12.455,12.455,0,0,0-1.2-.4,8.715,8.715,0,0,0-1.183-.161.566.566,0,0,0-.348.063c-.164.111-.4.25-.421.4a.632.632,0,0,0,.285.506c.414.234.867.4,1.306.6.262.117.534.225.791.361A1.9,1.9,0,0,1,82.6,116.1a1.806,1.806,0,0,1-1.05,1.755,3.938,3.938,0,0,1-3.292.06c-.778-.291-.772-.316-.772-1.148v-.677c.351.193.661.373.977.541a2.865,2.865,0,0,0,1.689.294c.291-.032.563-.114.632-.44s-.038-.512-.4-.7c-.427-.215-.889-.361-1.316-.576a4.763,4.763,0,0,1-1.176-.7,1.834,1.834,0,0,1,.4-2.957,3.776,3.776,0,0,1,2.691-.266c.37.076.724.221,1.088.316a.259.259,0,0,1,.215.316C82.272,112.274,82.294,112.625,82.294,113.011Z" transform="translate(-52.862 -76.01)" fill="#fff"/>
    <path id="Path_95" data-name="Path 95" d="M107.546,118.348v-5.575H105.06V111.53H111.7v1.233h-2.448v5.585Z" transform="translate(-71.835 -76.259)" fill="#fff"/>
    <path id="Path_96" data-name="Path 96" d="M170.509,118.355H168.83V111.53h1.679Z" transform="translate(-115.438 -76.259)" fill="#fff"/>
  </g>
</svg>
