<svg xmlns="http://www.w3.org/2000/svg" xmlns:xlink="http://www.w3.org/1999/xlink" width="60.358" height="54.206" viewBox="0 0 60.358 54.206">
  <defs>
    <clipPath id="clip-path">
      <rect id="Rectangle_38" data-name="Rectangle 38" width="60.358" height="54.206" fill="#fff"/>
    </clipPath>
  </defs>
  <g id="asiin" clip-path="url(#clip-path)">
    <path id="Path_353" data-name="Path 353" d="M108.287,29.632l-14.339.045c-1.486,0-1.55,0-1.66-1.486a30,30,0,0,0-4.273-13.777A29.629,29.629,0,0,0,71.975,1.607c-.3-.1-.61-.2-.907-.323-.061-.026-.09-.123-.278-.388l4.2-.937h6.995a7.057,7.057,0,0,0,.824.233,29.711,29.711,0,0,1,25.035,24.689L108.3,27.7Z" transform="translate(-47.929 0.027)" fill="#fff"/>
    <path id="Path_354" data-name="Path 354" d="M158.462,130.1c-3.058.142-3.058.145-4.7-2.374s-3.271-5.048-5.044-7.783c-.039.546-.078.872-.078,1.2v7.586c0,1.321-.068,1.4-1.331,1.4-2.739.016-2.4.136-2.406-2.383V113.9c0-1.444.042-1.372,1.492-1.5a2.735,2.735,0,0,1,2.887,1.579c1.592,2.645,3.336,5.2,5.022,7.789.1.158.223.3.5.672v-9.126c0-.591.271-.895.878-.878l2.764.068Z" transform="translate(-98.104 -76.09)" fill="#fff"/>
    <path id="Path_355" data-name="Path 355" d="M7.49,24.395c.488-1.146.927-2.335,1.508-3.439a29.953,29.953,0,0,1,14.1-13.5,4,4,0,0,1,2.787-.323A27.808,27.808,0,0,1,44.147,20.817c.733,1.292,1.311,2.648,1.96,3.972l-.223.187c-.43-.365-.846-.74-1.292-1.092a13.5,13.5,0,0,0-14.361-2.1,1.854,1.854,0,0,1-1.9-.194A15.407,15.407,0,0,0,8.107,24.256a2.506,2.506,0,0,1-.358.274Z" transform="translate(-5.071 -4.75)" fill="#fff"/>
    <path id="Path_356" data-name="Path 356" d="M24.309,51.468c-.824.775-1.521,1.36-2.138,2.025A13.457,13.457,0,0,0,18.5,61.8c-.081,1.03-.53,1.266-1.447,1.247-4.453-.1-8.907-.152-13.36-.236-1.075-.023-1.259-.255-1.143-1.311A13.887,13.887,0,0,1,22.107,50.225C22.821,50.545,23.476,50.994,24.309,51.468Z" transform="translate(-1.703 -33.164)" fill="#fff"/>
    <path id="Path_357" data-name="Path 357" d="M15.524,130.152a31.61,31.61,0,0,1-3.355-.045c-.291-.032-.61-.581-.759-.969-.811-2.044-.791-2.051-3.029-2.051-.846,0-1.692.039-2.532,0a1.213,1.213,0,0,0-1.414.949c-.772,2.241-.8,2.235-3.2,2.164A10.613,10.613,0,0,1,0,130.046,9.235,9.235,0,0,1,.239,129c1.857-5.128,3.746-10.25,5.574-15.382a1.542,1.542,0,0,1,1.821-1.13c.907.039,1.573-.019,1.963,1.082,1.834,5.183,3.769,10.334,5.661,15.5A9.957,9.957,0,0,1,15.524,130.152ZM9.65,123.787c-.62-1.847-1.169-3.488-1.718-5.132H7.68l-1.767,5.125Z" transform="translate(0 -76.16)" fill="#fff"/>
    <path id="Path_358" data-name="Path 358" d="M61.843,113.955A26.932,26.932,0,0,1,59.738,116a1.218,1.218,0,0,1-1.04-.09,5.329,5.329,0,0,0-3.84-.572,1.833,1.833,0,0,0-1.6,1.838,1.679,1.679,0,0,0,1.476,1.65c.969.213,1.976.346,2.968.5a4.7,4.7,0,0,1,4.376,4.266,4.98,4.98,0,0,1-2.884,5.458,9.544,9.544,0,0,1-8.9-.455,11.722,11.722,0,0,1-1.408-1.153,22.2,22.2,0,0,1,2.044-2c.21-.161.807,0,1.134.2a6.268,6.268,0,0,0,4.76.7,1.78,1.78,0,0,0,1.582-1.831c0-1.008-.423-1.524-1.6-1.77-.9-.191-1.825-.281-2.735-.43-2.806-.455-4.369-2.144-4.486-4.825a5.232,5.232,0,0,1,3.946-5.261,8.383,8.383,0,0,1,7.36,1.146C61.159,113.548,61.436,113.7,61.843,113.955Z" transform="translate(-33.101 -75.735)" fill="#fff"/>
    <path id="Path_359" data-name="Path 359" d="M102.269,121.392c0,2.532-.032,5.064,0,7.592,0,.969-.352,1.266-1.292,1.256-2.839-.032-2.471.139-2.48-2.454V114.164c0-1.637,0-1.647,1.573-1.644,2.351,0,2.16-.2,2.167,2.122Q102.272,118.014,102.269,121.392Z" transform="translate(-66.681 -76.18)" fill="#fff"/>
    <path id="Path_360" data-name="Path 360" d="M125.446,121.365c0,2.525-.032,5.051,0,7.573.016.946-.323,1.276-1.259,1.263-2.861-.029-2.487.129-2.493-2.429q-.019-6.911,0-13.825c0-1.437.032-1.469,1.5-1.466,2.522,0,2.225-.213,2.238,2.261C125.455,116.969,125.446,119.175,125.446,121.365Z" transform="translate(-82.384 -76.152)" fill="#fff"/>
  </g>
</svg>
