<svg xmlns="http://www.w3.org/2000/svg" width="79.104" height="88.03" viewBox="0 0 79.104 88.03">
  <g id="الجودة_ابيض" data-name="الجودة ابيض" transform="translate(-1.39)">
    <path id="Path_449" data-name="Path 449" d="M96.177,60.118l-.258.343c-.83,1.345-1.688,2.69-2.518,4.035a3.122,3.122,0,0,1-.172.315c-.114.2-.258.4-.372.6a2.594,2.594,0,0,0-.315.458Q77.432,90.038,62.321,114.235c-.887,1.431-1.774,2.862-2.662,4.321-.143.2-.258.4-.4.63-1.431,2.318-2.89,4.608-4.321,6.926-.859,1.374-1.717,2.747-2.547,4.092-.057.086-.114.172-.229.315q-10-12.32-20-24.612l-4.636,3.949c-1.374-1.917-2.747-3.806-4.121-5.7q8.886-7.255,17.8-14.538c3.377,4.751,6.725,9.473,10.1,14.223.057-.057.114-.086.172-.143L63.58,91.169a.625.625,0,0,0,.114-.143c.4.343.8.687,1.231,1.03a7.179,7.179,0,0,0,1.889-2.747,17.668,17.668,0,0,0,.544-2.118c.429-.429.83-.859,1.259-1.288a6.023,6.023,0,0,1,.715-.057h7.641a3.215,3.215,0,0,0,.916-.086c1.746-.487,2.747-1.431,2.89-3.062.029-.286.029-.572.029-.859V73.2l3.234-3.32,9.845-10.188a.451.451,0,0,1,.487-.143c.6.172,1.231.315,1.832.458A.216.216,0,0,0,96.177,60.118ZM75.114,87.248a1.393,1.393,0,0,0-1.374,1.374A1.412,1.412,0,0,0,75.114,90a1.393,1.393,0,0,0,1.374-1.374A1.339,1.339,0,0,0,75.114,87.248Z" transform="translate(-15.711 -42.489)" fill="#fff"/>
    <path id="Path_450" data-name="Path 450" d="M138.762.057c0,.83,0,1.66-.029,2.461,0,.515-.172.687-.715.687-.572,0-1.145.029-1.746.057a.549.549,0,0,1-.6-.458c-.057-.887-.114-1.774-.172-2.69h.4l.172,2.662h.6c-.372-.544-.229-1.116-.286-1.688-.029-.2.086-.315.315-.315h.029c1.116-.057,1.545.572,1.145,1.66a1.533,1.533,0,0,1-.143.315h.229c.286.057.4-.057.372-.372-.029-.8,0-1.574,0-2.375A1.112,1.112,0,0,0,138.762.057Zm-2.032,1.688c.086.258.143.544.258.8.114.2.286.2.429-.029A1.277,1.277,0,0,0,137.5,1.4c-.029-.086-.143-.143-.229-.172C136.874,1.116,136.788,1.2,136.731,1.746Z" transform="translate(-95.73)" fill="#fff"/>
    <path id="Path_451" data-name="Path 451" d="M148.787.2a1.217,1.217,0,0,0-.057.315V3.348h-.4V.572c0-.114-.029-.229-.029-.372Z" transform="translate(-104.866 -0.143)" fill="#fff"/>
    <path id="Path_452" data-name="Path 452" d="M148.859,110.474c-.172.715-.315,1.431-.544,2.118a7.178,7.178,0,0,1-1.889,2.747c-.4-.343-.8-.687-1.231-1.03-.315-.286-.63-.572-.973-.887a5.531,5.531,0,0,0,1.717-4.178,11.892,11.892,0,0,1-1.8-.258,8.253,8.253,0,0,1-6.3-6.468,8.583,8.583,0,0,1,4.865-9.73,7.162,7.162,0,0,1,2.747-.658c1.116-.029,2.232,0,3.406,0v14.195h9.5c.63,0,.973-.258.973-.8v-9.3a.751.751,0,0,0-.487-.715,4.343,4.343,0,0,0-.8-.258,6.026,6.026,0,0,0-2.375.086,1.007,1.007,0,0,0-.859,1.145v7.5h-2.948v-7.7c0-2.347,1-3.606,3.32-4.007a10.2,10.2,0,0,1,4.264.114,3.5,3.5,0,0,1,2.862,3.635v9.129c0,.286,0,.572-.029.859-.172,1.631-1.145,2.576-2.89,3.062a3.215,3.215,0,0,1-.916.086h-7.641a6.025,6.025,0,0,0-.715.057c-.4-.029-.8-.029-1.259-.057Zm-2.976-4.178V94.934c-2.633-.086-5.38,2.833-5.38,5.7A5.532,5.532,0,0,0,145.882,106.3Z" transform="translate(-97.24 -65.743)" fill="#fff"/>
    <path id="Path_453" data-name="Path 453" d="M69.1,100.436c0,1.488-.057,2.976,0,4.464a3.894,3.894,0,0,1-3.577,4.064,7.172,7.172,0,0,1-3.119-.143,3.641,3.641,0,0,1-2.662-3.491c-.029-3.205-.029-6.439,0-9.644a3.686,3.686,0,0,1,3.463-3.663,7.631,7.631,0,0,1,3.491.315,3.418,3.418,0,0,1,2.375,3.348C69.1,97.231,69.1,98.834,69.1,100.436Zm-2.948.143v-4.35c0-.63-.2-.973-.83-1.088a6.116,6.116,0,0,0-1.774-.086.942.942,0,0,0-.916,1v8.986a.948.948,0,0,0,.944,1.059,5.81,5.81,0,0,0,1.574-.057c.773-.143,1-.487,1-1.231Z" transform="translate(-41.64 -65.636)" fill="#fff"/>
    <path id="Path_454" data-name="Path 454" d="M99.432,94.775V92.057a5.885,5.885,0,0,1,2.118.229,8.32,8.32,0,0,1,6.038,6.639,7.163,7.163,0,0,1,.143,1.574c.029,1.631.029,3.263,0,4.922a3.788,3.788,0,0,1-3.062,3.635,4.7,4.7,0,0,1-.658.057H97.6V106.28h5.981c.887,0,1.173-.258,1.173-1.145,0-1.66.057-3.348-.029-5.008a5.4,5.4,0,0,0-3.348-4.837A9.669,9.669,0,0,0,99.432,94.775Z" transform="translate(-68.676 -65.699)" fill="#fff"/>
    <path id="Path_455" data-name="Path 455" d="M148.6,132.446c.143-.2.258-.4.4-.63,1.345-.2,2.69-.315,4.007-.572A39.687,39.687,0,0,0,184.6,96.215,39.12,39.12,0,0,0,182.2,78.7c.114-.2.258-.4.372-.6a33.444,33.444,0,0,1,1.774,5.752,39.646,39.646,0,0,1,.887,11.619,39.906,39.906,0,0,1-28.275,35.4,39.464,39.464,0,0,1-8.156,1.545A.424.424,0,0,1,148.6,132.446Z" transform="translate(-105.081 -55.749)" fill="#fff"/>
    <path id="Path_456" data-name="Path 456" d="M60.6,13.07a15.038,15.038,0,0,1,7.927-6.5A22.827,22.827,0,0,1,76.254,5.4a.216.216,0,0,1,.114.029l-.057.057c-4.15,2.2-8.271,4.464-12.592,6.353-1,.458-2.032.83-3.062,1.259C60.629,13.1,60.629,13.07,60.6,13.07Z" transform="translate(-42.265 -3.855)" fill="#fff"/>
    <path id="Path_457" data-name="Path 457" d="M197.539,118.4v5.867c0,.544-.343.8-.973.8H191.1c2.118-2.2,4.236-4.379,6.353-6.582C197.453,118.457,197.511,118.429,197.539,118.4Z" transform="translate(-135.418 -84.516)" fill="#fff"/>
    <path id="Path_458" data-name="Path 458" d="M12.483,69.8a1.534,1.534,0,0,1,.143.315c.143,1.2.258,2.4.429,3.577a3.871,3.871,0,0,0,.487,1.316,2.568,2.568,0,0,1,.286,1.946c-.229.773-.4,1.6-.6,2.4a2.412,2.412,0,0,1-.172.4,4.208,4.208,0,0,1-1.545-2.6,8.831,8.831,0,0,1,.286-4.722c.286-.83.429-1.688.63-2.518C12.426,69.829,12.455,69.8,12.483,69.8Z" transform="translate(-7.084 -49.824)" fill="#fff"/>
    <path id="Path_459" data-name="Path 459" d="M2.154,115.8l.114.229c.2.487.343,1,.572,1.488a9.83,9.83,0,0,0,2.089,2.862A1.84,1.84,0,0,1,5.5,121.61c.086.944.229,1.86.315,2.8a5.046,5.046,0,0,1,0,.658C3.528,124.214,1.324,118.748,2.154,115.8Z" transform="translate(-0.418 -82.66)" fill="#fff"/>
    <path id="Path_460" data-name="Path 460" d="M5.4,163.5a18.181,18.181,0,0,0,1.917,2,21.4,21.4,0,0,0,2.175,1.374,3.229,3.229,0,0,1,.973.773,11.673,11.673,0,0,1,1.574,3.091c.029.086.029.172.057.315-.286-.114-.544-.172-.773-.286A9.945,9.945,0,0,1,5.486,164.1c-.029-.172-.057-.4-.086-.6Z" transform="translate(-2.862 -116.709)" fill="#fff"/>
    <path id="Path_461" data-name="Path 461" d="M27.188,155.8a6.5,6.5,0,0,1,.515,2.518c-.029,1.374-.086,2.747-.229,4.092a20.508,20.508,0,0,1-.515,2.576,1.344,1.344,0,0,1-.172.258c-.086-.086-.172-.143-.2-.229-.4-.8-.773-1.6-1.173-2.4a1.954,1.954,0,0,1-.114-1.6c.6-1.631,1.173-3.291,1.746-4.951A1.03,1.03,0,0,0,27.188,155.8Z" transform="translate(-16.981 -111.212)" fill="#fff"/>
    <path id="Path_462" data-name="Path 462" d="M7.659,101.359a4.713,4.713,0,0,1-.63-.687A10,10,0,0,1,5.2,96.093,8.056,8.056,0,0,1,5.628,91.6a11.51,11.51,0,0,0,1.889,4.894,2.584,2.584,0,0,1,.372,1.231,18.791,18.791,0,0,1,.029,2.2,11.179,11.179,0,0,1-.143,1.374C7.717,101.33,7.688,101.33,7.659,101.359Z" transform="translate(-2.632 -65.386)" fill="#fff"/>
    <path id="Path_463" data-name="Path 463" d="M6.831,147.986c-2.776-1.231-5.781-5.81-5.409-8.586.086.114.143.172.2.258.258.4.544.773.773,1.173a7.922,7.922,0,0,0,2.2,2.375A3.021,3.021,0,0,1,6.087,145.3a12.336,12.336,0,0,0,.687,2.49C6.8,147.842,6.8,147.928,6.831,147.986Z" transform="translate(0 -99.506)" fill="#fff"/>
    <path id="Path_464" data-name="Path 464" d="M56.714,36.946a25.947,25.947,0,0,1-3.749,1.946,17.8,17.8,0,0,1-4.693,1.259,1.748,1.748,0,0,1-.372-.086c.029-.143.029-.315.114-.4q1.159-1.2,2.318-2.318a.675.675,0,0,1,.458-.2c1.917-.086,3.863-.143,5.781-.2C56.6,36.918,56.629,36.918,56.714,36.946Z" transform="translate(-33.199 -26.358)" fill="#fff"/>
    <path id="Path_465" data-name="Path 465" d="M20.183,118.429c-.229.859-.4,1.746-.658,2.6a16.667,16.667,0,0,1-2.8,5.38,1.028,1.028,0,0,1-.286.2,1.29,1.29,0,0,1-.086-.315c-.086-.916-.172-1.8-.286-2.719a2.018,2.018,0,0,1,.715-1.774c.687-.658,1.374-1.316,2.061-2,.429-.429.8-.916,1.2-1.4A.258.258,0,0,1,20.183,118.429Z" transform="translate(-10.462 -84.516)" fill="#fff"/>
    <path id="Path_466" data-name="Path 466" d="M50.118,14.4c-.086.229-.086.4-.2.515a9.44,9.44,0,0,0-1.631,3.148,2.006,2.006,0,0,0-.172,1.231,1.192,1.192,0,0,1-.315,1.087c-.83,1.03-1.688,2.032-2.576,3.062C44.509,20.954,47.4,15.631,50.118,14.4Z" transform="translate(-31.211 -10.279)" fill="#fff"/>
    <path id="Path_467" data-name="Path 467" d="M22.109,137.057a20.962,20.962,0,0,1-2.089,8.929h-.143c-.114-.258-.229-.515-.315-.773-.172-.744-.343-1.46-.487-2.2a1.952,1.952,0,0,1,.229-1.431c.6-1.03,1.145-2.089,1.746-3.148.286-.487.572-.944.859-1.431A.728.728,0,0,0,22.109,137.057Z" transform="translate(-12.589 -97.793)" fill="#fff"/>
    <path id="Path_468" data-name="Path 468" d="M43.141,49.6c-.715,1.345-6.182,4.636-7.841,4.379a1.6,1.6,0,0,1,.143-.229c.572-.8,1.116-1.6,1.688-2.433a1.6,1.6,0,0,1,1.03-.687c1.431-.315,2.862-.658,4.321-.973C42.655,49.629,42.855,49.629,43.141,49.6Z" transform="translate(-24.205 -35.405)" fill="#fff"/>
    <path id="Path_469" data-name="Path 469" d="M25.3,69.938a8.688,8.688,0,0,1,.343-1.03c.372-.859.8-1.717,1.173-2.576a.73.73,0,0,1,.6-.458A12.225,12.225,0,0,0,31.8,64.186c.172-.086.343-.2.515-.286h.057C31.911,65.5,27.418,69.338,25.3,69.938Z" transform="translate(-17.067 -45.613)" fill="#fff"/>
    <path id="Path_470" data-name="Path 470" d="M34.9,30.9c-.143.429-.315.859-.429,1.288-.229.887-.515,1.746-.658,2.633a8.022,8.022,0,0,0,.029,1.431,1.541,1.541,0,0,1-.143.8c-.63,1-1.316,2-2,3.034a2.115,2.115,0,0,1-.315-1.4,13.4,13.4,0,0,1,2.518-6.9,5.044,5.044,0,0,1,1-.887Z" transform="translate(-21.4 -22.057)" fill="#fff"/>
    <path id="Path_471" data-name="Path 471" d="M22.985,47.8c-.172.8-.372,1.631-.544,2.461a5.957,5.957,0,0,0,.114,2.747,2.71,2.71,0,0,1-.172,2c-.286.658-.544,1.316-.83,1.975a9.977,9.977,0,0,1-.515.887C19.894,54.9,20.982,49.431,22.985,47.8Z" transform="translate(-13.693 -34.12)" fill="#fff"/>
    <path id="Path_472" data-name="Path 472" d="M16.4,106.241c.143-.887.286-1.746.4-2.576a.7.7,0,0,0,.029-.343,1.191,1.191,0,0,1,.458-1.231c.315-.258.63-.487.944-.715.572-.487,1.173-.944,1.746-1.46.544-.487,1.059-.973,1.6-1.517C21.322,100.088,17.545,105.784,16.4,106.241Z" transform="translate(-10.714 -70.239)" fill="#fff"/>
    <path id="Path_473" data-name="Path 473" d="M158.275,4.748c.143.029.258.057.372.086l.6-2.662c.143.029.229.057.372.086-.143.744-.315,1.431-.458,2.146a2.385,2.385,0,0,1-.114.429.538.538,0,0,1-.687.372c-.83-.229-1.688-.315-2.518-.458-.458-.086-.916-.2-1.374-.258-.6-.057-1.2-.057-1.8-.057-.057,0-.172.114-.2.2a5.907,5.907,0,0,0-.086.744c-.143,0-.229-.029-.343-.029-.086-.973.029-1.2.572-1.374.029-.458.057-.916.114-1.345.029-.4.229-.6.572-.572.372.029.544.229.544.658-.029.458-.057.887-.086,1.316.458.229.515.2.572-.286L154.5,2.2a2.176,2.176,0,0,1,.4.029c-.057.6-.086,1.145-.172,1.717-.029.258.057.372.372.315q.172-1.288.343-2.662c.114,0,.229.029.4.029-.114.887-.229,1.774-.343,2.69a5.477,5.477,0,0,1,.6.114,3.014,3.014,0,0,1,.029-1.746c0-.086.172-.229.286-.229a2.454,2.454,0,0,1,.773.143.61.61,0,0,1,.4.715,1.824,1.824,0,0,1-.429,1.259l.029.029c.715.143.715.143.83-.572.086-.4.172-.83.258-1.259.143.029.258.057.372.086C158.532,3.432,158.418,4.09,158.275,4.748Zm-1-1.517c-.143-.143-.2-.286-.343-.315a.553.553,0,0,0-.429,0,2.331,2.331,0,0,0-.057,1.259c.114.2.315.258.429.029C157.016,3.918,157.13,3.6,157.273,3.231Zm-4.236.8c.315.029.315.029.343-.2.029-.372.057-.715.057-1.088,0-.086-.086-.172-.143-.258-.057.086-.172.143-.172.229C153.066,3.145,153.066,3.575,153.038,4.033Z" transform="translate(-107.515 -1.142)" fill="#fff"/>
    <path id="Path_474" data-name="Path 474" d="M25.682,81A19.69,19.69,0,0,1,19.3,87.468c.286-.973.572-1.946.916-2.919a1.53,1.53,0,0,1,.944-.887,15.768,15.768,0,0,0,3.52-2.118A4.232,4.232,0,0,1,25.682,81Z" transform="translate(-12.784 -57.819)" fill="#fff"/>
    <path id="Path_475" data-name="Path 475" d="M244.583,48.558a2.581,2.581,0,0,0-.286.258c-.544-.515-.687-.973-.458-1.488a1.291,1.291,0,0,1,1.288-.744,1.091,1.091,0,0,1,.973.887,4.173,4.173,0,0,1,.544.2c-.487.458-.887.83-1.288,1.2-.172.172-.2.286-.057.487.172.2.286.029.4-.086.429-.343.83-.715,1.288-1.087.086.086.172.2.258.286-.515.429-1,.859-1.517,1.288a4.509,4.509,0,0,0,.343.429c.544-.429,1.03-.83,1.574-1.259.086.114.172.2.258.315-.515.429-1.03.83-1.545,1.259a2.5,2.5,0,0,0,.229.286c.229-.172.458-.343.687-.487a4.772,4.772,0,0,1,.572-.229,4.368,4.368,0,0,0,.429-.372c.229.315.429.572.6.859a1.167,1.167,0,0,1-.487,1.545,1.081,1.081,0,0,1-1.574-.258c-.286-.429-.572-.859-.887-1.288a6.1,6.1,0,0,0-.83-.887c-.429-.4-.458-.715-.029-1.116.143-.143.286-.258.429-.4a.725.725,0,0,0,0-1.03.735.735,0,0,0-1.059.029.765.765,0,0,0-.114,1.059A3.578,3.578,0,0,0,244.583,48.558Zm3.72,2.032c-.057.715-.8.744-1.059,1.2a.737.737,0,0,0,1.03-.114C248.618,51.42,248.618,51.048,248.3,50.59Zm-.4.029a.787.787,0,0,0-.343-.029,5.062,5.062,0,0,0-.63.458.385.385,0,0,0-.057.258c.086,0,.2.057.258,0l.6-.429C247.788,50.847,247.816,50.762,247.9,50.618Z" transform="translate(-172.988 -33.247)" fill="#fff"/>
    <path id="Path_476" data-name="Path 476" d="M31.62,191.631a1.637,1.637,0,0,1-1.631,1.66A1.68,1.68,0,0,1,28.3,191.66a1.66,1.66,0,0,1,3.32-.029Z" transform="translate(-19.209 -135.625)" fill="#fff"/>
    <path id="Path_477" data-name="Path 477" d="M194.8,10.1c.143.057.229.114.372.172-.2.544-.429,1.03-.6,1.574-.029.114.029.229.029.343.086-.086.229-.143.258-.229.229-.515.429-1.03.63-1.574.114.057.229.086.372.143-.2.544-.4,1.059-.63,1.6-.114.258-.057.372.258.4.286-.572.544-1.173.859-1.774l.343.172c-.229.515-.487,1-.687,1.517-.057.114,0,.258,0,.372.086-.086.229-.143.286-.229.258-.487.458-.973.715-1.517.114.057.229.114.372.172-.258.544-.487,1.03-.715,1.545a.731.731,0,0,0,.029.343c.086-.086.229-.114.286-.229.258-.487.487-1,.715-1.517.114.057.229.114.372.172-.286.6-.544,1.173-.83,1.746-.143.286-.4.343-.744.2-.458-.2-.887-.4-1.345-.6-.544-.258-1.088-.515-1.66-.773-.086-.057-.229-.029-.343-.057a.517.517,0,0,1-.429-.715c.286-.83.572-1.631.859-2.461.143.057.229.086.372.143-.315.859-.6,1.688-.916,2.547.114.057.229.086.343.143.258-.63.486-1.231.744-1.86.114.057.229.086.372.143-.2.544-.429,1.03-.6,1.574a.852.852,0,0,0,.029.372c.086-.086.229-.143.286-.258C194.4,11.161,194.573,10.646,194.8,10.1Z" transform="translate(-136.544 -6.353)" fill="#fff"/>
    <path id="Path_478" data-name="Path 478" d="M227.888,27.5c.114.086.2.143.315.229-.515.744-1.03,1.46-1.574,2.2.086.086.172.143.258.229.286-.372.572-.744.83-1.087a.556.556,0,0,1,.859-.172c.286.229.286.515.029.859s-.515.687-.8,1.059a4.981,4.981,0,0,0,.4.343l1.288-1.545c.114.086.2.172.315.258-.429.515-.83,1.03-1.259,1.545.172.143.315.286.487.458a1.339,1.339,0,0,1,1.088-1.173,1.04,1.04,0,0,1,1.03.372,2.006,2.006,0,0,0-.229.286c-.572-.372-.944-.343-1.259.057s-.229.773.343,1.316a3.865,3.865,0,0,0-.258.315c-.515-.487-1-.944-1.488-1.4-.143-.114-.315-.2-.458-.315-.4-.286-.773-.6-1.173-.916a.576.576,0,0,1-.172-.887C226.887,28.874,227.373,28.187,227.888,27.5Zm-.658,2.89c0,.029.029.086.029.114.114,0,.286.029.343-.029.258-.286.487-.63.744-.944.029-.057,0-.143,0-.229a.635.635,0,0,0-.258.029A10.637,10.637,0,0,0,227.23,30.39Z" transform="translate(-160.558 -19.63)" fill="#fff"/>
    <path id="Path_479" data-name="Path 479" d="M79.347,79.574a1.35,1.35,0,0,1-1.374,1.345A1.407,1.407,0,0,1,76.6,79.574a1.374,1.374,0,1,1,2.747,0Z" transform="translate(-53.686 -55.82)" fill="#fff"/>
    <path id="Path_480" data-name="Path 480" d="M65,79.574A1.35,1.35,0,0,1,66.345,78.2a1.393,1.393,0,0,1,1.374,1.374,1.35,1.35,0,0,1-1.374,1.345A1.4,1.4,0,0,1,65,79.574Z" transform="translate(-45.406 -55.82)" fill="#fff"/>
    <path id="Path_481" data-name="Path 481" d="M125.1.629c.143,0,.258-.029.4-.029.057.887.143,1.774.172,2.633.029.315-.2.515-.544.544-.487.029-.515,0-.572-.458a3.111,3.111,0,0,0-.114-.744.668.668,0,0,0-.343-.343.637.637,0,0,0-.572.172.967.967,0,0,0,.029.63c0,.029.2.057.315.057.515,0,.715.286.487.773a1.107,1.107,0,0,1-1.087.658.974.974,0,0,1-.887-.8c-.143-.658-.2-1.345-.286-2.032.172,0,.258-.029.4-.029.057.487.114.944.172,1.4.029.143.029.286.057.429a.728.728,0,0,0,.6.63c.315.029.572-.2.715-.572-.029,0-.029-.029-.057-.029-.258-.029-.6.143-.715-.172a2.038,2.038,0,0,1-.114-1.088c.086-.429.515-.458.887-.458a.7.7,0,0,1,.773.515,3.93,3.93,0,0,1,.143.8c.029.2.086.286.372.258C125.248,2.432,125.191,1.544,125.1.629Z" transform="translate(-86.164 -0.428)" fill="#fff"/>
    <path id="Path_482" data-name="Path 482" d="M211.337,22.879c-.258.2-.458.4-.715.63-.057-.172-.114-.286-.143-.372.172-.143.315-.286.458-.429-.63-.658-.715-1.288-.258-1.832a1.187,1.187,0,0,1,1.746-.143c-.315.572-.6,1.145-.916,1.746.172.2.315.2.429-.057a10.847,10.847,0,0,1,.572-.973.532.532,0,0,1,.773-.229.558.558,0,0,1,.2.8c-.229.4-.458.8-.715,1.173-.2.315-.429.372-.687.114C211.881,23.05,211.566,23.05,211.337,22.879Zm.544-2a.819.819,0,0,0-1.03.429.707.707,0,0,0,.286.944C211.394,21.791,211.623,21.333,211.881,20.875Zm.258,1.975c.286.172.286.172.429-.057.172-.286.372-.6.544-.916a.619.619,0,0,0-.029-.315c-.086.057-.2.057-.258.143C212.567,22.077,212.367,22.449,212.138,22.85Z" transform="translate(-149.187 -14.579)" fill="#fff"/>
    <path id="Path_483" data-name="Path 483" d="M184.307,10.3c.2-.658.4-1.288.6-1.917.143.029.258.086.372.114-.2.63-.372,1.231-.544,1.832a.514.514,0,0,1-.658.343c-.515-.143-1.059-.315-1.574-.487a.555.555,0,0,1-.372-.744c.172-.572.343-1.145.515-1.746a2.658,2.658,0,0,1,.372.114c-.172.544-.315,1.088-.487,1.6-.086.258,0,.372.229.429C183.277,9.989,183.763,10.161,184.307,10.3Z" transform="translate(-128.997 -5.496)" fill="#fff"/>
    <path id="Path_484" data-name="Path 484" d="M220.4,28.36c.086-.114.143-.229.229-.343.258.172.515.343.744.487.687-.6.8-1.145.372-1.717a2.519,2.519,0,0,0,.172-.286c.487.143.63.944.372,1.4a4.767,4.767,0,0,1-.515.8.473.473,0,0,1-.658.143C220.858,28.675,220.629,28.532,220.4,28.36Z" transform="translate(-156.333 -18.916)" fill="#fff"/>
    <path id="Path_485" data-name="Path 485" d="M239.486,42.376l-.286-.286c.715-.773,1.46-1.517,2.2-2.289.086.114.143.2.229.315C240.946,40.859,240.23,41.6,239.486,42.376Z" transform="translate(-169.752 -28.41)" fill="#fff"/>
    <path id="Path_486" data-name="Path 486" d="M178.072,7.448c-.143-.029-.229-.057-.372-.086.258-1.03.487-2.032.744-3.062a1.851,1.851,0,0,1,.372.114C178.559,5.416,178.33,6.418,178.072,7.448Z" transform="translate(-125.853 -3.069)" fill="#fff"/>
    <path id="Path_487" data-name="Path 487" d="M173.587,3.714c0,.057-.029.086-.029.143a.028.028,0,0,1,.029.029h.029l-.057.057a3.878,3.878,0,0,1-.572-.057c-.029,0-.086-.114-.086-.172s.057-.143.114-.143a.251.251,0,0,1,.2.029c.057.029.057.143.086.172C173.415,3.771,173.5,3.714,173.587,3.714Z" transform="translate(-122.426 -2.54)" fill="#fff"/>
    <path id="Path_488" data-name="Path 488" d="M158.7,12.786l.086-.086.172.172c.057-.057.114-.114.143-.114a.836.836,0,0,1,.258.057c-.029.086-.029.172-.057.258a.91.91,0,0,1-.258-.086C158.929,12.929,158.814,12.843,158.7,12.786Z" transform="translate(-112.29 -9.065)" fill="#fff"/>
    <path id="Path_489" data-name="Path 489" d="M215.5,18.32c-.143-.086-.286-.143-.4-.229.286-.057.315-.6.773-.4-.258.114-.572.2-.2.6A.5.5,0,0,1,215.5,18.32Z" transform="translate(-152.549 -12.596)" fill="#fff"/>
    <path id="Path_490" data-name="Path 490" d="M248.944,60.415a1.274,1.274,0,0,1-.343-.172,1.245,1.245,0,0,1-.2-.172c.057-.057.114-.172.172-.172a.245.245,0,0,1,.2.172A1.223,1.223,0,0,1,248.944,60.415Z" transform="translate(-176.319 -42.758)" fill="#fff"/>
    <path id="Path_491" data-name="Path 491" d="M255.83,50.647c-.343-.057-.515.057-.515.4a4.282,4.282,0,0,1-.315-.372C255.6,50.561,255.715,50.561,255.83,50.647Z" transform="translate(-181.031 -36.109)" fill="#fff"/>
    <path id="Path_492" data-name="Path 492" d="M251.158,45.672c-.114.114-.172.2-.258.2-.057,0-.114-.086-.2-.143a.772.772,0,0,1,.2-.229A1.235,1.235,0,0,1,251.158,45.672Z" transform="translate(-177.961 -32.479)" fill="#fff"/>
    <path id="Path_493" data-name="Path 493" d="M237.529,33.129c-.114.086-.2.2-.258.2a.258.258,0,0,1-.172-.172.251.251,0,0,1,.2-.172C237.358,32.957,237.415,33.043,237.529,33.129Z" transform="translate(-168.253 -23.542)" fill="#fff"/>
    <path id="Path_494" data-name="Path 494" d="M60.657,32.157c-.029,0-.029.029-.057.029V32.1C60.629,32.129,60.629,32.157,60.657,32.157Z" transform="translate(-42.265 -22.913)" fill="#fff"/>
    <path id="Path_495" data-name="Path 495" d="M43.7,30.829l.029-.029h.029c-.029,0-.057,0-.057.029Z" transform="translate(-30.201 -21.986)" fill="#fff"/>
    <path id="Path_496" data-name="Path 496" d="M5.329,163.5h0Z" transform="translate(-2.791 -116.709)" fill="#fff"/>
    <path id="Path_497" data-name="Path 497" d="M200.671,156.4a1.356,1.356,0,0,1,1.374,1.374,1.393,1.393,0,0,1-1.374,1.374,1.412,1.412,0,0,1-1.374-1.374A1.339,1.339,0,0,1,200.671,156.4Z" transform="translate(-141.269 -111.638)" fill="#fff"/>
  </g>
</svg>
