<svg xmlns="http://www.w3.org/2000/svg" xmlns:xlink="http://www.w3.org/1999/xlink" width="62.462" height="62.676" viewBox="0 0 62.462 62.676">
  <defs>
    <clipPath id="clip-path">
      <rect id="Rectangle_4" data-name="Rectangle 4" width="62.462" height="62.676" fill="#fff"/>
    </clipPath>
  </defs>
  <g id="abet" clip-path="url(#clip-path)">
    <path id="Path_81" data-name="Path 81" d="M56.205,40.567a20.28,20.28,0,1,0-.006,0Zm.021-35.453a15.161,15.161,0,1,0,15.11,14.463A15.161,15.161,0,0,0,56.226,5.114Z" transform="translate(-25.108)" fill="#fff"/>
    <path id="Path_82" data-name="Path 82" d="M71.651,168.857c.111.057.2.108.3.156A2.969,2.969,0,0,1,73.6,171.72a4.533,4.533,0,0,1-.722,2.84,4.066,4.066,0,0,1-2.791,1.639,9.959,9.959,0,0,1-1.636.138c-2.088.015-4.172,0-6.257.015-.331,0-.391-.105-.391-.409v-12.98c0-.286.06-.4.376-.394,2.28.018,4.563,0,6.846.024a6.269,6.269,0,0,1,2.193.382,3.026,3.026,0,0,1,2.076,2.912,2.872,2.872,0,0,1-1.483,2.834.47.47,0,0,0-.075.051,1.03,1.03,0,0,0-.081.084Zm-6.224,4.512c1.155,0,2.268.045,3.372-.018.758-.042,1.134-.65,1.083-1.537a1.17,1.17,0,0,0-1.224-1.152c-1-.018-1.994,0-2.99,0-.135,0-.244,0-.244.189.006.809,0,1.636,0,2.506Zm0-7.821v2.009a.271.271,0,0,0,.187.2c.984,0,1.97.033,2.951,0,.713-.03,1.032-.46,1-1.221a.99.99,0,0,0-1.095-.978H66.047Z" transform="translate(-43.21 -113.668)" fill="#fff"/>
    <path id="Path_83" data-name="Path 83" d="M128.169,162.572v3.152h-6.434c-.3,0-.382.084-.367.367.021.373,0,.749,0,1.122s0,.418.4.418h3.676c0,.129.018.238.018.349,0,.788-.015,1.576,0,2.364,0,.3-.072.412-.394.406-1.11-.018-2.22,0-3.33,0-.3,0-.4.093-.385.391.018.538,0,1.08,0,1.618,0,.43,0,.43.418.43h6.518v3.125H117.65v-13.35c0-.4,0-.406.409-.406h9.776Z" transform="translate(-82.26 -113.661)" fill="#fff"/>
    <path id="Path_84" data-name="Path 84" d="M13.752,176.3H9.959a.325.325,0,0,1-.37-.277c-.18-.626-.385-1.245-.569-1.871-.057-.2-.135-.3-.361-.3H5.017a.325.325,0,0,0-.364.286c-.186.638-.391,1.266-.581,1.9-.048.153-.1.25-.3.25H.128a1.2,1.2,0,0,1-.168-.027c.033-.114.057-.22.093-.319q2.382-6.521,4.732-13.046a.469.469,0,0,1,.532-.37c1.035.018,2.076,0,3.11,0a.4.4,0,0,1,.454.3q2.367,6.573,4.762,13.142A2.249,2.249,0,0,1,13.752,176.3Zm-8.065-5.433H8.007c-.388-1.453-.764-2.87-1.155-4.329Z" transform="translate(0.028 -113.633)" fill="#fff"/>
    <path id="Path_85" data-name="Path 85" d="M180.792,165.858h-3.859v10.453c-.162,0-.283.024-.4.024h-2.957c-.427,0-.43,0-.43-.421v-9.59c0-.469,0-.469-.469-.469H169.25V163c0-.427,0-.43.445-.43H180.4c.3,0,.406.075.4.4-.024.842,0,1.682,0,2.524Z" transform="translate(-118.339 -113.668)" fill="#fff"/>
  </g>
</svg>
