<svg id="acpe" xmlns="http://www.w3.org/2000/svg" width="63.229" height="63.206" viewBox="0 0 63.229 63.206">
  <path id="Path_71" data-name="Path 71" d="M14.15,47.788c.117-8.75,3.007-16.139,8.941-22.223A30.675,30.675,0,0,1,47.38,16a30.321,30.321,0,0,1,20.21,8.694,30.75,30.75,0,0,1,9.748,24.531,30.239,30.239,0,0,1-8.918,20.383,30.8,30.8,0,0,1-24.3,9.522,30.244,30.244,0,0,1-19.255-7.868A31.029,31.029,0,0,1,14.15,47.788ZM28.2,26.495v36.69h35.22V26.495ZM75.313,46.517c-.069-.764-.11-1.475-.211-2.191-.158-1.126-.313-2.257-.553-3.368a27.6,27.6,0,0,0-2.726-7.307.329.329,0,0,0-.344-.2h-6.26a1.05,1.05,0,0,0-.234.018v13.05ZM26.52,33.448H19.98a.268.268,0,0,0-.2.125c-.545,1.167-1.121,2.321-1.61,3.511A24.636,24.636,0,0,0,16.9,41.441c-.161.764-.255,1.559-.377,2.342-.069.464-.143.93-.173,1.4s0,.879,0,1.317H26.538Zm48.706,15.17H64.981V61.475a.891.891,0,0,0,.1.018h6.535a.431.431,0,0,0,.311-.214c.375-.752.764-1.5,1.085-2.275a26.905,26.905,0,0,0,1.511-4.724c.2-.966.354-1.944.51-2.92.079-.474.145-.953.178-1.432A12.458,12.458,0,0,0,75.226,48.619Zm-58.982,0c.031.222.061.415.082.614.084.848.132,1.7.255,2.548a24,24,0,0,0,.51,2.8q.512,1.911,1.2,3.756c.359.971.843,1.9,1.274,2.843a.51.51,0,0,0,.527.331H26.52v-12.9Zm34.2,28.04A27.951,27.951,0,0,0,64.37,70.416H55.923a.377.377,0,0,0-.362.242,21.912,21.912,0,0,1-4.454,5.4C50.883,76.251,50.664,76.457,50.445,76.659Zm14.1-51.886a31.678,31.678,0,0,0-6.528-4.1c-1.827-.864-6.548-2.293-7.259-2.15.316.28.647.545.94.846q.955.978,1.875,1.992a15.6,15.6,0,0,1,2.107,2.9.915.915,0,0,0,.94.53C59.238,24.757,61.855,24.773,64.545,24.773Zm-37.421,0h.324c2.314,0,4.624-.033,6.935.02.764.018,1.335-.092,1.6-.879,0-.018.028-.031.041-.046.612-.82,1.185-1.671,1.842-2.456s1.34-1.417,2-2.13c.255-.278.474-.586.619-.764a28.282,28.282,0,0,0-13.359,6.255Zm.061,45.644a28.616,28.616,0,0,0,13.624,6.255c-.255-.237-.479-.405-.668-.594-.764-.777-1.6-1.513-2.293-2.354-.8-.968-1.5-2.026-2.222-3.058a.487.487,0,0,0-.459-.255H27.445ZM46.651,24.762h6.879a25.474,25.474,0,0,0-6.879-6.742Zm-2.161-6.673a24.842,24.842,0,0,0-6.535,6.66h6.535Zm2.166,52.334v6.484a22.777,22.777,0,0,0,6.566-6.484Zm-8.694,0a24.613,24.613,0,0,0,6.515,6.467V70.429Zm32.565-6.775H64.981v6.339a29.378,29.378,0,0,0,5.547-6.334Zm-49.506,0a29.207,29.207,0,0,0,5.488,6.283V63.641Zm49.43-32.275a29.482,29.482,0,0,0-5.465-6.23v6.217Zm-49.346-.025h5.412V25.2a29.388,29.388,0,0,0-5.412,6.151ZM55.047,68.306V65.784h-.423V67.44a11.333,11.333,0,0,1-.859-1.274c-.255-.431-.255-.438-.764-.357v2.515h.489v-1.7c.313.51.591.935.836,1.376A.538.538,0,0,0,55.047,68.306Zm-3.715.094a1.193,1.193,0,0,0,1.274-1.343A1.232,1.232,0,0,0,51.332,65.7a1.351,1.351,0,0,0,0,2.7Zm-11.72-1.164c.285.015.51.031.642.3.084.168.255.3.326.466.171.362.446.395.833.293L40.648,67.2c.074-.036.191-.084.3-.148a.642.642,0,0,0,.255-.792.854.854,0,0,0-.51-.469,11.571,11.571,0,0,0-1.529-.023v2.548h.474Zm3.717.2h-.051c-.285-.451-.6-.889-.843-1.361a.51.51,0,0,0-.67-.29v2.522H42.2V66.683a9.7,9.7,0,0,1,.831,1.274c.166.3.357.474.724.339V65.781h-.42Zm-9.483.874V65.787h-.42V67.44a10.07,10.07,0,0,1-.894-1.368.51.51,0,0,0-.665-.28v2.522h.426V66.7a9.3,9.3,0,0,1,.838,1.274c.163.3.359.451.713.336Zm12.834.013c-.311-.764-.637-1.529-.915-2.308-.092-.255-.242-.232-.433-.255s-.283.092-.344.255c-.127.347-.255.688-.4,1.032-.158.415-.316.831-.479,1.274.183,0,.392.061.471-.015a1.748,1.748,0,0,0,.273-.51h1.06c.229.566.229.566.762.527Zm11.249,0c0-.046.018-.079,0-.1-.3-.764-.6-1.529-.92-2.27a.415.415,0,0,0-.255-.176.367.367,0,0,0-.51.3,4.114,4.114,0,0,1-.158.451l-.7,1.784c.369.084.629.041.678-.382,0-.054.138-.122.219-.135a2.038,2.038,0,0,1,.395,0c.632.015.489-.1.716.494,0,.018.023.028.036.043ZM36.7,65.776v2.533h1.921v-.347h-1.2c-.084,0-.229-.082-.24-.143a4.533,4.533,0,0,1,0-.65H38.5v-.362c-.364,0-.711-.018-1.052,0-.288.018-.273-.15-.278-.347s.013-.352.288-.334c.362.02.729,0,1.106,0v-.357Zm12.12.354v-.347H46.756l.018.357h.782v2.168h.563V66.13ZM36.3,65.779H34.312v.364h.731v2.173h.54V66.123H36.3Zm22.027,0v2.548h1.8v-.349H58.792V65.789Zm-8.663,2.548V65.8h-.456v2.53Zm-18.388,0V65.779h-.446v2.548Z" transform="translate(-14.15 -15.962)" fill="#fff"/>
  <path id="Path_72" data-name="Path 72" d="M79.044,88.52v5.534a2.211,2.211,0,0,0,.364,1.248,2.418,2.418,0,0,0,1.228.82,3.879,3.879,0,0,1,.367.127.764.764,0,0,1,.173.166c-.071.043-.14.122-.214.127a5.383,5.383,0,0,1-.673,0c-.209,0-.42-.054-.629-.054H75.018c-.232,0-.461.051-.69.051a.825.825,0,0,1-.288-.112c.074-.064.138-.155.224-.189a2.235,2.235,0,0,0,1.529-2.194q.064-6,.059-11.993a2.037,2.037,0,0,0-.629-1.748,4.444,4.444,0,0,0-.591-.321c-.061-.036-.161-.1-.158-.14s.076-.2.127-.206c1.047-.087,1.529-.9,2.11-1.6a24.555,24.555,0,0,0,2.637-4.331l2.268-4.372q1.078-2.089,2.181-4.207c.426-.818.854-1.638,1.292-2.451.059-.11.186-.255.255-.255a.51.51,0,0,1,.324.255c.627,1.149,1.238,2.308,1.86,3.463.359.67.726,1.333,1.09,2,.275-.54.51-1.073.808-1.572a8.747,8.747,0,0,1,2.584-2.711,10.757,10.757,0,0,1,4.4-1.806,12.484,12.484,0,0,1,2.548-.186,16.521,16.521,0,0,1,5.506,1.1c.65.255,1.261.6,1.916.917-.41,1.19-.805,2.342-1.2,3.491h-.135c-.115-.285-.229-.571-.346-.856a5.551,5.551,0,0,0-3.529-3.529,10.762,10.762,0,0,0-2.094-.367,6.64,6.64,0,0,0-2.66.3,5.468,5.468,0,0,0-2.874,2.138,9.206,9.206,0,0,0-1.419,3.587,12.588,12.588,0,0,0-.161,3.328,8.529,8.529,0,0,0,1.814,4.925,6.148,6.148,0,0,0,3.442,2.171,10.7,10.7,0,0,0,2.443.3,5.728,5.728,0,0,0,4.691-2.26,7.85,7.85,0,0,0,1.231-2.186c.033-.092.132-.158.2-.237.071.074.181.138.206.227.255.866.51,1.738.747,2.614.023.089-.084.255-.171.324a8.918,8.918,0,0,1-2.64,1.59h.938c.255.869.51,1.725.764,2.584.082.285.168.573.222.864a.354.354,0,0,1-.115.306c-.061.041-.234-.013-.3-.082-.168-.171-.3-.375-.454-.561a5.937,5.937,0,0,0-2.744-1.761A9.919,9.919,0,0,0,98.8,80.24c-1.577.018-3.154,0-4.757,0v6.9h.311c1.406,0,2.8.013,4.217,0a6.625,6.625,0,0,0,2.5-.425,2.948,2.948,0,0,0,1.824-1.6c.033-.089.122-.155.255-.3a1.353,1.353,0,0,1,.153.392q.015,2.4,0,4.8a.94.94,0,0,1-.122.313c-.074-.069-.189-.125-.217-.209a2.99,2.99,0,0,0-2.53-2.038,13.728,13.728,0,0,0-2.071-.186c-1.322-.028-2.647,0-3.97,0h-.357c0,.115-.015.214-.015.311,0,1.863-.013,3.728,0,5.59a1.631,1.631,0,0,0,.711,1.59,2.9,2.9,0,0,0,1.259.316c1.274.041,2.548.048,3.822,0a9.349,9.349,0,0,0,3.009-.708,11.817,11.817,0,0,0,2.933-1.62c.415-.318.805-.673,1.213-1a1.416,1.416,0,0,1,.339-.132c-.066.255-.1.441-.155.619-.349,1.154-.7,2.293-1.052,3.46-.046.153-.14.186-.293.183H89.738a7.207,7.207,0,0,1-.866-.1l-.018-.117c.143-.074.283-.155.431-.224a2.316,2.316,0,0,0,1.353-1.8,10.734,10.734,0,0,0,.125-1.592q0-3.145,0-6.293v-.349c-.3.255-.576.51-.871.744a6.283,6.283,0,0,1-2.145,1.05c-.813.232-1.638.426-2.466.6A10.794,10.794,0,0,1,84,88.554c-.611.048-1.226.11-1.84.117-.739,0-1.478-.028-2.217-.059C79.661,88.594,79.38,88.554,79.044,88.52Zm11.748-6.428a3.517,3.517,0,0,0-.372-1.575.882.882,0,0,0-.724-.51c-.15,0-.3.051-.448.038a.945.945,0,0,1-.3-.132,2.018,2.018,0,0,1,.242-.224c.2-.135.469-.214.6-.4a1.7,1.7,0,0,0,.033-1.8c-.785-1.707-1.605-3.4-2.421-5.1a.352.352,0,0,0-.27-.161H81.24a.306.306,0,0,0-.316.211c-.255.53-.55,1.047-.813,1.58A11.963,11.963,0,0,0,78.7,77.513a1.648,1.648,0,0,0,1.666,2.107c1.478.089,2.963.038,4.446.082a11.05,11.05,0,0,1,2.887.51A6.188,6.188,0,0,1,90.793,82.092ZM79.054,80.359v7.328a9.039,9.039,0,0,0,1.208.181,15.323,15.323,0,0,0,3.891-.237,4.9,4.9,0,0,0,2.859-1.582,3.223,3.223,0,0,0,.678-2.815,3.026,3.026,0,0,0-1.674-2.079,7.5,7.5,0,0,0-3.266-.782C81.528,80.319,80.308,80.359,79.054,80.359ZM86.9,71.426c-.917-1.766-1.819-3.5-2.739-5.282l-2.7,5.282Z" transform="translate(-58.78 -50.165)" fill="#fff"/>
  <path id="Path_73" data-name="Path 73" d="M203.3,193.369a.576.576,0,0,1-.576.6.668.668,0,0,1-.642-.629.59.59,0,0,1,.678-.591.545.545,0,0,1,.54.619Zm-.275.255h.079c-.013-.171.033-.382-.051-.51s-.3-.155-.456-.227l-.036.079c.469.087.51.15.319.476Z" transform="translate(-154.197 -147.706)" fill="#fff"/>
  <path id="Path_74" data-name="Path 74" d="M157.227,213.821c0-.632.278-.966.808-.9a.841.841,0,0,1,.525.326,1.152,1.152,0,0,1,.031,1.124.729.729,0,0,1-.8.364.815.815,0,0,1-.561-.673C157.222,213.984,157.23,213.9,157.227,213.821Z" transform="translate(-120.771 -162.733)" fill="#fff"/>
  <path id="Path_75" data-name="Path 75" d="M114.12,213.569v-.749a6.989,6.989,0,0,1,.91.1.374.374,0,0,1,.158.334.571.571,0,0,1-.341.3A3.57,3.57,0,0,1,114.12,213.569Z" transform="translate(-88.648 -162.662)" fill="#fff"/>
  <path id="Path_76" data-name="Path 76" d="M135.977,214.649h-.747c.112-.319.224-.632.364-1.019Z" transform="translate(-104.38 -163.266)" fill="#fff"/>
  <path id="Path_77" data-name="Path 77" d="M179.89,213.57l.385,1.037h-.764Z" transform="translate(-137.377 -163.221)" fill="#fff"/>
</svg>
