<svg xmlns="http://www.w3.org/2000/svg" width="67.923" height="95.896" viewBox="0 0 67.923 95.896">
  <g id="uni_logo_-_white" data-name="uni logo - white" transform="translate(-0.001 -0.018)">
    <path id="Path_1" data-name="Path 1" d="M35.874,217.19c0-.883-.039-1.768,0-2.66a2.4,2.4,0,0,1,1.935-2.208c.133-.022.351,0,.4.082a.513.513,0,0,1-.046.418c-.164.293-.392.551-.549.849-.242.484-.181.636.341.65,1.209.031,2.4,0,3.765,0-.242-.413-.394-.711-.571-1-.077-.131-.22-.23-.268-.368s-.118-.4-.041-.508a.592.592,0,0,1,.5-.1,2.79,2.79,0,0,1,1.99,2.546,9.673,9.673,0,0,1-.092,1.262,2.9,2.9,0,0,0-.1.527v18.753a2.9,2.9,0,0,0,.1.527v.406l.024.3c.542.058,1.083.138,1.627.15.094,0,.264-.293.281-.462.041-.435.017-.878.017-1.318v-1.224a3.2,3.2,0,0,0,.089-.534q0-7.835,0-15.667a3.371,3.371,0,0,0-.087-.534,21.8,21.8,0,0,1,0-2.418A2.687,2.687,0,0,1,46.9,212.37c.16-.065.392.044.59.073a1.692,1.692,0,0,1-.1.609c-.162.273-.421.484-.609.747a1.666,1.666,0,0,0-.157.452,1.967,1.967,0,0,0,.464.131H57.333c.2,0,.392-.044.759-.087-.329-.467-.578-.834-.842-1.19-.152-.2-.409-.421-.135-.641a.783.783,0,0,1,.665-.053,2.664,2.664,0,0,1,1.574,2.522c.015.169,0,.339,0,.508a3.128,3.128,0,0,0-.1.53v19.563a3.144,3.144,0,0,0,.1.53v.51a2.193,2.193,0,0,0,1.712.23.646.646,0,0,0,.2-.435c.029-.455.015-.914.015-1.371v-14.34c0-1.748-.085-3.5-.068-5.245a3.034,3.034,0,0,1,1.451-2.853c.044-.024.082-.073.128-.08.3-.041.607-.073.909-.109-.058.281-.1.563-.184.837a1.661,1.661,0,0,1-.23.392c-.387.607-.351.725.346.759.967.039,1.964.036,2.948.019.484,0,.592-.21.358-.665-.145-.283-.365-.527-.522-.805a2.287,2.287,0,0,1-.15-.5,1.781,1.781,0,0,1,.568-.094,2.836,2.836,0,0,1,1.983,2.38c-.065,1.308-.06,2.616-.06,3.927q0,8.727-.015,17.454c0,.505.14.725.655.692.423-.022.849.019,1.274.019.67,0,.745-.068.725-.725,0-.885-.065-1.768-.068-2.66V216.145c0-1.562.445-2.341,1.6-2.766.37-.138.779-.322.987.285.041.121.37.184.571.2.365.029.725,0,1.1,0,.31,0,.568.019.629-.4.051-.343.334-.348.592-.242a2.615,2.615,0,0,1,1.961,2.113,10.132,10.132,0,0,1,.1,1.267V235.95c0,.725.012.75.774.793a7.584,7.584,0,0,0,1.17.019.525.525,0,0,0,.38-.334c.046-.607.036-1.209.036-1.823q0-7.255-.015-14.495c0-1.02-.029-2.041-.024-3.061a2.183,2.183,0,0,1,1.195-2.094,1.919,1.919,0,0,1,.667-.077,4.238,4.238,0,0,1-.024.658,18.527,18.527,0,0,0-.525,2.624c-.1,1.968-.075,3.942-.08,5.915v10.667a10.669,10.669,0,0,0,0,1.361,7.571,7.571,0,0,0,.346.907,1.693,1.693,0,0,1,.085.868c-.039.131-.433.21-.667.213-1.514.019-3.028,0-4.541,0-.307,0-.655.031-.713-.389-.051-.375-.092-.767.459-.846.1-.014.2-.2.242-.322a1.422,1.422,0,0,0,0-.406c0-6.287-.041-12.555.022-18.833.024-2.275-1.238-2.916-3.24-2.716-1.364.138-1.782.779-1.756,2.353.027,1.514.053,3.025.056,4.537q.015,5.738,0,11.477c0,.863-.087,1.729-.056,2.59a8.3,8.3,0,0,0,.3,1.519c.036.162.145.312.172.484.058.341,0,.588-.457.568q-1.908-.077-3.818-.085c-.588,0-1.178.051-1.8.082-.022-.58-.266-1.146.382-1.528.1-.058.111-.31.116-.484v-1.478a3.117,3.117,0,0,0,.087-.534V218.312a3.439,3.439,0,0,0-.085-.537c-.012-1.492.046-1.236-1.209-1.209-1.02.014-2.041.017-3.061,0-.363,0-.595.039-.561.484.027.384,0,.771,0,1.158v16.33a17.014,17.014,0,0,0,.022,1.722c.036.389.242.759.31,1.149.087.44-.152.612-.58.607-1.451-.017-2.9,0-4.336-.046a.755.755,0,0,1-.588-.339.619.619,0,0,1,.3-.817.912.912,0,0,0,.37-.67c.024-.675-.063-1.354-.065-2.031V217.27c0-.59-.123-.7-.725-.689-2.346.027-4.691.058-7.037.065-1.1,0-2.208-.039-3.311-.068-.53-.015-.684.109-.682.636,0,.8.056,1.6.053,2.4q-.022,7.141-.058,14.284v2.288a.7.7,0,0,0,.409.725c.169.087.21.505.22.776,0,.094-.264.278-.411.283C45.1,238,43.591,238,42.077,238c-.551,0-.849-.37-.568-.832a5.231,5.231,0,0,0,.4-3.4c-.022-.271,0-.544,0-.817V218.662c0-.508.044-1.016.082-1.523.034-.414-.135-.583-.556-.58-1.277,0-2.551-.012-3.828-.019-.322,0-.513.126-.505.484.012.438,0,.878,0,1.315v16.127c0,.406-.1.815-.063,1.209a8.8,8.8,0,0,0,.3,1.047,6.155,6.155,0,0,1,.157,1.086c0,.087-.218.259-.339.259-1.751.019-3.5.017-5.255.012-.462,0-.534-.355-.38-.636a5.423,5.423,0,0,0,.3-3.177c-.017-.322,0-.646,0-.967V218.343c0-.68.063-1.357.065-2.036,0-.933-.329-1.424-1.241-1.6a7.035,7.035,0,0,0-2.065-.056,1.688,1.688,0,0,0-1.548,1.693c-.08,1.042-.048,2.094-.063,3.144,0,.172.012.341.015.51v14.647c0,.508-.065,1.016-.082,1.523,0,.3.046.561.406.665.455.133.3.537.256.815a.631.631,0,0,1-.445.411c-1.693.031-3.4.019-5.1.019-.322,0-.423-.193-.382-.467a1.1,1.1,0,0,1,.172-.525,2.567,2.567,0,0,0,.382-1.9c-.017-.883-.075-1.763-.077-2.645q-.015-4.237,0-8.464c0-1.359.114-2.72.065-4.075-.048-1.27-.242-2.532-.382-3.794-.031-.264-.186-.51-.242-.771a3.1,3.1,0,0,1-.022-.583,1.965,1.965,0,0,1,.624.036,1.985,1.985,0,0,1,1.161,2.026c.031.933.029,1.869.027,2.805q0,8.19-.036,16.381c0,.433.126.638.563.636s.851.015,1.274.024a.513.513,0,0,0,.571-.52c.022-.218.024-.44.024-.66V216.145a5.2,5.2,0,0,1,.118-1.112,2.78,2.78,0,0,1,2.08-1.867c.126,0,.375.157.382.259.029.394.317.423.576.443a5.078,5.078,0,0,0,1.272,0c.242-.044.45-.29.641-.484,1.381-.222,2.4.817,2.4,2.454v20.1c0,.771,0,.779.791.822.375.022.747.022,1.122.022.653,0,.725-.063.769-.725.015-.167.039-.336.058-.5v-.22l-.058-.4c.06-.138.177-.273.177-.411q.015-8.464,0-16.944A1.868,1.868,0,0,0,35.874,217.19Z" transform="translate(-18.673 -162.67)" fill="#fff"/>
    <path id="Path_2" data-name="Path 2" d="M18.056,90.528c.114.116.218.317.346.336a4.889,4.889,0,0,0,1.209.046.583.583,0,0,0,.368-.418,16.543,16.543,0,0,0,.1-1.935c0-1.224-.068-2.445-.075-3.668-.015-2.193,0-4.387,0-6.58a2.465,2.465,0,0,1,2.694-2.4,22.34,22.34,0,0,0,3.144.046A2.35,2.35,0,0,1,28.3,78.473c-.073,3.826-.065,7.654-.087,11.479,0,.742,0,.759.725.849.368.044.747,0,1.12.022s.469-.16.467-.484V82.417c0-1.424-.022-2.851.015-4.275a4.836,4.836,0,0,1,.278-1.378,1.509,1.509,0,0,1,1.274-1.037,1.739,1.739,0,0,1,.455.046,1.115,1.115,0,0,1-.152.4,2.314,2.314,0,0,0-.725,1.478c-.015.186-.031.372-.031.559V89.9c0,.967.324,1.228,1.27,1.112a16.061,16.061,0,0,1,1.77-.138q3.724-.022,7.45,0c.426,0,.544-.184.532-.542-.031-.88-.082-1.76-.1-2.643C42.523,86,42.468,84.3,42.482,82.6c.012-1.253.085-2.508.2-3.755a1.4,1.4,0,0,1,2.094-1.163,3.99,3.99,0,0,1-.353.462,2.737,2.737,0,0,0-.82,2.022c-.017,3.385,0,6.771-.015,10.156,0,.472.177.631.634.619,1.393-.039,2.786-.058,4.179-.07.389,0,.779.044,1.168.063.462.024.684-.172.672-.66-.029-1.156-.041-2.312-.046-3.468,0-2.041.017-4.084-.015-6.125a3.6,3.6,0,0,0-.68-2.4,4.21,4.21,0,0,0-.67-.508,1.374,1.374,0,0,1,2.13.6,5.542,5.542,0,0,1,.276,1.594c.024,3.182,0,6.365,0,9.545v1.016c0,.288.138.406.4.4,1.615-.015,3.228-.044,4.836-.051,1.359,0,2.72-.024,4.079.036.817.034.916.015.912-.825,0-2.45-.039-4.9-.041-7.349,0-1.451.029-2.924.041-4.387a2.817,2.817,0,0,0-.747-2.292.411.411,0,0,1-.092-.177.483.483,0,0,1,0-.145,1.323,1.323,0,0,1,1.565.667,6.212,6.212,0,0,1,.467,2.014c.041,3.913.019,7.828.022,11.74,0,.629.029.658.66.663.341,0,.682-.012,1.02,0,.469.024.7-.167.672-.655-.034-.711-.07-1.424-.073-2.138-.019-3.281-.024-6.565-.039-9.849a2.367,2.367,0,0,1,2.2-2.266c1.308-.024,2.616-.015,3.925,0a2.143,2.143,0,0,1,1.935,1.5,5.745,5.745,0,0,1,.2,1.4q.027,5.765,0,11.53c0,.336.085.467.433.53,1.4.254,1.5.189,1.5-1.175,0-3.078.039-6.159-.017-9.237a6.317,6.317,0,0,1,.467-3.066,1.4,1.4,0,0,1,1.625-.834,1.971,1.971,0,0,1-.109.508,7.77,7.77,0,0,0-.725,3.41c-.044,3.194-.017,6.391-.015,9.588,0,.834.039.88.856.861.527-.012,1.049-.08,1.574-.1.692-.031.856.15.832.817-.017.384-.179.534-.571.53q-2.885-.039-5.767-.039c-2.66,0-5.339.029-8.011.031H48.363c-.193,0-.384.027-.578.041l-.036.16,17.29,7.446-.06.157a9.742,9.742,0,0,1-5.272-.711c-1.874-.967-3.908-1.618-5.867-2.418q-2.608-1.088-5.206-2.176c-.687-.288-1.371-.585-2.068-.846a.989.989,0,0,0-.592,0,15.552,15.552,0,0,0-1.565.571q-4.058,1.693-8.111,3.4c-1.56.663-3.083,1.427-4.672,2a8.136,8.136,0,0,1-2.353.242,9.025,9.025,0,0,1-1.838-.085,3.179,3.179,0,0,1,.527-.36q3.122-1.332,6.261-2.643c1.364-.563,2.745-1.086,4.111-1.654,2.126-.887,4.246-1.8,6.365-2.7a4.313,4.313,0,0,0,.459-.261L45.13,92.2c-.326-.019-.653-.06-.979-.06q-5.129-.014-10.258-.015c-2.418,0-4.836.046-7.255.046-3.777,0-7.554-.022-11.332-.031-.527,0-1.054,0-1.581.041-.392.024-.568-.14-.578-.52s-.044-.808.505-.812c.646,0,1.291.034,1.935.056.186,0,.375.041.559.034a.614.614,0,0,0,.68-.692c0-3.284.027-6.568-.022-9.852a7.552,7.552,0,0,0-.921-3.7,1.287,1.287,0,0,1,1.714.556,8.947,8.947,0,0,1,.438,1.649,2.606,2.606,0,0,0-.087.484q0,5.332,0,10.662A2.631,2.631,0,0,0,18.056,90.528Zm54.056-5.985h.031V79.648a3.958,3.958,0,0,0-.527-2.392,1.062,1.062,0,0,0-.67-.457c-1.274-.031-2.549-.022-3.821.036a.941.941,0,0,0-.7.484,6.266,6.266,0,0,0-.469,1.935c-.034,1.451.075,2.88.1,4.321.034,2.259.063,4.517.058,6.771,0,.484.128.643.621.634,1.528-.029,3.059,0,4.595-.012.725,0,.786-.046.788-.771Q72.112,87.367,72.112,84.543Zm-50.958.135h0v5.709c0,.45.174.58.609.573,1.545-.022,3.093,0,4.641,0,.595,0,.667-.063.677-.67q.051-3,.089-6.007c0-.8.017-1.6.017-2.4,0-1.17.027-2.341-.015-3.511A1.486,1.486,0,0,0,25.925,76.8c-1.153-.027-2.314-.027-3.463.058a1.255,1.255,0,0,0-.9.612,4.754,4.754,0,0,0-.387,1.756c-.063,1.811-.034,3.63-.034,5.451Z" transform="translate(-12.315 -59.082)" fill="#fff"/>
    <path id="Path_3" data-name="Path 3" d="M134.348,234.667c-.1-.36.075-.513.411-.517h1.221c1.611,0,3.221.014,4.836,0,.43,0,.559.138.559.556q-.019,7.165,0,14.325c0,.542-.276.634-.682.626-.967-.017-1.935-.077-2.9-.077s-1.966.058-2.95.073c-.2,0-.527.131-.484-.295a3.1,3.1,0,0,0,.089-.532V235.192A3.173,3.173,0,0,0,134.348,234.667Z" transform="translate(-104.187 -179.229)" fill="#fff"/>
    <path id="Path_4" data-name="Path 4" d="M75.5,180.34h-.2a4.066,4.066,0,0,0-.677-.109H10.584a.792.792,0,0,1-.825-.416c-.1-1.173-.1-1.166,1.057-1.166Q43,178.679,75.2,178.7c.576,0,1.153-.015,1.729-.031.31,0,.418.148.423.435.019,1.451.048,1.33-1.265,1.325a1.887,1.887,0,0,1-.389-.08l-.109-.181Z" transform="translate(-9.72 -137.15)" fill="#fff"/>
    <path id="Path_5" data-name="Path 5" d="M43.495,195.791H10.929a2.227,2.227,0,0,1-.242,0c-.3-.034-.677.087-.692-.44-.015-.682.075-.866.648-.895.525-.027,1.054.024,1.579.024H76.474c.74,0,.892.169.725.866a.537.537,0,0,1-.293.341,2.441,2.441,0,0,1-.75.1Q59.83,195.791,43.495,195.791Z" transform="translate(-9.927 -149.127)" fill="#fff"/>
    <path id="Path_6" data-name="Path 6" d="M30.313,21.7a1.693,1.693,0,0,0,.3.14c.571.114.82.517.585,1.037a.571.571,0,0,1-.443.208c-1.088.017-2.176,0-3.267,0h-7.4c-.389,0-.878.041-.967-.428s.368-.629.725-.791l9.533-4.353c.675-.31,1.332-.658,2-.989.406.9.191,1.49-.609,1.852q-3.448,1.565-6.892,3.144a8.256,8.256,0,0,0-.839.5l.048.16h4.7c.551,0,.653-.177.372-.65-.242-.4-.128-.609.268-.783C29.716,20.186,31,19.611,32.3,19.04c.063-.027.128-.048.186-.08.793-.418.808-.421.967.426.372,1.845.725,3.693,1.088,5.54a3,3,0,0,1,.027.326H31.556c-.3,0-.609-.036-.914-.036-5.426.015-10.853.024-16.277.058-.5,0-.677-.172-.663-.629a.358.358,0,0,0,0-.051,1.719,1.719,0,0,1,1.209-2.031c3.729-1.7,7.438-3.5,11.155-5.279,1.741-.832,3.47-1.693,5.2-2.525.544.648.346,1.311-.423,1.519a4.022,4.022,0,0,0-.672.242c-2.619,1.236-5.231,2.491-7.852,3.731-2.355,1.12-4.718,2.222-7.076,3.342a7.822,7.822,0,0,0-.725.455,2.006,2.006,0,0,0,1.562.351c.242,0,.505-.065.757-.065H30.255c.626,0,1.253.073,1.879.077s.725-.181.6-.747c-.177-.829-.334-1.661-.534-2.483-.039-.126-.319-.317-.392-.283C31.327,21.12,30.87,21.393,30.313,21.7Z" transform="translate(-12.713 -12.891)" fill="#fff"/>
    <path id="Path_7" data-name="Path 7" d="M223.78,25.633h-1.313c-.339,0-.675-.06-1.013-.06H203.489c-.6,0-.612,0-.5-.6.092-.5.225-.991.322-1.49.242-1.245.484-2.491.711-3.736.027-.133.068-.264.094-.4.077-.382.285-.457.624-.29,1.016.5,2.031,1,3.057,1.482a12.038,12.038,0,0,0,1.274.505c.411.138.563.319.31.745s-.145.7.355.7c1.545.017,3.09,0,4.633,0a1.8,1.8,0,0,0,.319-.092c-.363-.21-.6-.377-.871-.5-1.823-.82-3.654-1.623-5.475-2.447-.648-.293-1.279-.629-1.91-.955a1.349,1.349,0,0,1-.387-1.516.36.36,0,0,1,.334-.051q3.233,1.494,6.452,3.006c1.644.767,3.291,1.528,4.933,2.3a1.412,1.412,0,0,1,.452.312.462.462,0,0,1-.261.808,2.367,2.367,0,0,1-.556.039h-10.41c-.317,0-.667.085-.675-.43,0-.4-.051-.8.517-.842a2.029,2.029,0,0,0,.387-.135c-.588-.312-1.057-.583-1.552-.8-.07-.031-.336.191-.375.331-.1.358-.109.738-.177,1.105-.087.464-.179.929-.3,1.386s-.022.643.443.692a8.3,8.3,0,0,0,1.069,0c.484-.017.982-.075,1.473-.077h12.911c.59,0,1.18,0,1.768-.012a1.364,1.364,0,0,0,.348-.109c0-.414-.319-.484-.576-.621-.955-.484-1.913-.967-2.878-1.412q-3.023-1.434-6.045-2.846c-2.3-1.069-4.595-2.121-6.9-3.192-.167-.077-.38-.242-.406-.4a3.8,3.8,0,0,1,.041-.887,4.058,4.058,0,0,1,.687.191q4.324,2.041,8.64,4.111,3.995,1.908,7.98,3.833a.776.776,0,0,1,.4.508C223.811,24.351,223.78,24.929,223.78,25.633Z" transform="translate(-156.21 -13.187)" fill="#fff"/>
    <path id="Path_8" data-name="Path 8" d="M37.061,149.293c-.208.133-.414.273-.629.4a3.272,3.272,0,0,0-.665.37,3.552,3.552,0,0,1-3.054.725c-.242-.019-.508-.022-.764-.022H14.136c-.438,0-.653.116-.626.612a10.713,10.713,0,0,1-.06,1.574c-.048.576.07.725.667.725,3.453,0,6.906.012,10.36,0,.505,0,.6.208.595.629,0,.281-.116.416-.392.411-.423,0-.849-.017-1.274-.017H12.586a3.586,3.586,0,0,1-.51,0c-.445-.07-.619-.317-.428-.725.418-.883.116-1.809.208-2.708.041-.377-.242-.472-.588-.433s-.638.056-.967.082-.423-.15-.435-.428a.358.358,0,0,0,0-.051c-.085-1.318.186-1.5,1.5-1.429,1.678.092,3.366.058,5.047.068,2.126.012,4.251.012,6.377.017h.358l13.617.087a1.325,1.325,0,0,1,.242.015Z" transform="translate(-9.819 -114.665)" fill="#fff"/>
    <path id="Path_9" data-name="Path 9" d="M187.476,149.111a6.76,6.76,0,0,1,.752-.1h2.96c2.774-.012,5.545-.031,8.316-.041h5.712c.322,0,.643-.053.967-.06a.411.411,0,0,1,.484.459v.95c.012.38-.133.58-.542.549-.288-.024-.578,0-.866-.036-.409-.046-.6.172-.549.527a9.033,9.033,0,0,0,.218,2.568c.208.484.029.692-.522.706-.9.019-1.8-.012-2.7-.012h-9.547c-.6,0-.7-.092-.6-.634a.568.568,0,0,1,.355-.38,4.688,4.688,0,0,1,1.011-.068q4.285.029,8.568.068H202c1.049.085,1.057.087,1.1-.933.022-.484,0-.984,0-1.478,0-.336-.138-.508-.484-.505h-18.26c-.508,0-1.018,0-1.526.046a2.355,2.355,0,0,1-1.693-.537c-.389-.293-.825-.527-1.238-.786a2.152,2.152,0,0,1,.636-.208c2.135-.017,4.273,0,6.408-.014A2.9,2.9,0,0,0,187.476,149.111Z" transform="translate(-138.747 -114.594)" fill="#fff"/>
    <path id="Path_10" data-name="Path 10" d="M125.608,42.208c.029.264.036.348.048.43.177,1.383.561,1.637,1.874,1.289a8.892,8.892,0,0,1,1.1-.15c.073.667.152,1.25.193,1.838a.816.816,0,0,0,.839.878,3.53,3.53,0,0,1,.943.172c.121.044.189.273.242.43.022.058-.056.155-.094.242-.3.6-.6,1.209-.945,1.9-.276-.218-.527-.4-.757-.6-2.445-2.159-5.158-3.656-8.553-3.342a13.15,13.15,0,0,0-4.926,1.475,40.962,40.962,0,0,0-3.468,2.193c-.484.326-.725.307-.767-.259a18.433,18.433,0,0,1-.027-2.283c.015-.428.36-.375.65-.314.875.186.875.191.858-.692-.022-1.161-.022-1.163,1.144-1.129.375,0,.745.046,1.12.063a.813.813,0,0,0,.89-.663c.143-.472.314-.931.484-1.4.123-.348.331-.484.7-.31.51.227,1.037.414,1.555.629.556.23.757.174,1.115-.322.319-.44.638-.88.967-1.308.242-.3.455-.31.67.041.276.447.583.878.863,1.323a.757.757,0,0,0,.989.348C124.043,42.483,124.805,42.37,125.608,42.208Z" transform="translate(-86.723 -32.601)" fill="#fff"/>
    <path id="Path_11" data-name="Path 11" d="M150.223,367.025c1.64,0,3.2,0,4.761-.012a.873.873,0,0,0,.472-.268c.677-.592,1.34-1.209,2.01-1.8-.14-.786-1.059-.447-1.323-.984l-1.693.8,1.124,1a7.146,7.146,0,0,1-.706.583.484.484,0,0,1-.392-.027,2.2,2.2,0,0,1-.343-.3c-.638-.522-.788-.522-1.386,0-.326-.52-.145-.883.547-1.052a1.327,1.327,0,0,1,1.093-1.277,2.348,2.348,0,0,0,1.693-1.323,1.971,1.971,0,0,0,1.294,1.137,3.524,3.524,0,0,1,.95.472,2.777,2.777,0,0,1,.626.9c.58.3.725.542.525,1.1-.259-.111-.532-.331-.776-.3a1.952,1.952,0,0,0-.764.447c-.285.213-.549.457-.817.692-.034.029-.044.087-.089.184h5.422a3.893,3.893,0,0,0,.1-.626c.015-1.245.856-1.77,1.862-2.123.648-.227,1.32-.389,2-.585v4.7c-.16,0-.322.027-.484.027-2.9,0-5.782,0-8.674-.014a1.4,1.4,0,0,1-.8-.319c-.242-.191-.394-.242-.58,0a.873.873,0,0,1-.8.334c-2.96-.012-5.92,0-8.88,0h-.462c0-.839-.063-1.637.015-2.418a2.15,2.15,0,0,1,2.14-1.869h.916c.155-.617.14-.667-.414-1.3l1.823-1.313Zm-3.216-.012c.551,0,1.074,0,1.594-.012a.351.351,0,0,0,.256-.22,7.253,7.253,0,0,0-.024-1.209c-.012-.1-.242-.242-.37-.254-.97-.186-1.6.525-1.465,1.7Zm18.178,0V365.3c-.967.087-1.521.592-1.475,1.318,0,.138.16.37.266.382a11.177,11.177,0,0,0,1.209.027Z" transform="translate(-112.833 -275.776)" fill="#fff"/>
    <path id="Path_12" data-name="Path 12" d="M100.52,159.051c.634-.261,1.272-.518,1.9-.788,2.273-.967,4.541-1.968,6.814-2.941.982-.418,1.968-.822,2.967-1.209a.929.929,0,0,1,.629.039c3.064,1.236,6.123,2.493,9.189,3.731.844.341,1.707.626,2.558.948a7.574,7.574,0,0,1,.689.368H100.559Zm17.024-1.255.015-.16c-.389-.177-.776-.365-1.173-.527-1-.4-2.01-.774-3-1.195a1.77,1.77,0,0,0-1.649.121,9.1,9.1,0,0,1-.914.445c-.856.36-1.722.7-2.58,1.062a1.275,1.275,0,0,0-.254.2l.039.15c.319-.019.641-.058.967-.058h5.61c.781,0,1.56.058,2.338.07a3.332,3.332,0,0,0,.6-.1Z" transform="translate(-78.562 -118.518)" fill="#fff"/>
    <path id="Path_13" data-name="Path 13" d="M29.07,362.736a4.649,4.649,0,0,0,2.59-.873,2.407,2.407,0,0,0,.225-3.487,4.26,4.26,0,0,0-.711-.469,5.242,5.242,0,0,0,.484-.987,5.463,5.463,0,0,0,.065-1.122,4.758,4.758,0,0,1,1.821,2.3.5.5,0,0,0,.576.421c1.035-.019,2.07,0,3.112,0,.169-.58.116-1.03-.539-1.228l1.906-1.852v3.078h3.627c.278,0,.384-.617.162-.921a4.378,4.378,0,0,0-.363-.387l1.809-1.741c0,.854.017,1.712,0,2.571,0,.377.092.513.484.484.629-.029,1.26-.027,1.886,0,.438.024.59-.1.58-.563-.031-1.514,0-3.028-.015-4.541,0-.8,0-.8-.578-1.277l.384-.406,1.4-1.473v9.61H34.511c-.452,0-.629.092-.7.59C33.42,363.108,31.014,363.712,29.07,362.736Z" transform="translate(-24.39 -267.261)" fill="#fff"/>
    <path id="Path_14" data-name="Path 14" d="M140.668,10.794a11.1,11.1,0,0,1,1.3.114,3.364,3.364,0,0,1,1.062.4c.261.162.273.452,0,.684a2.7,2.7,0,0,0-.725,3.144,4.547,4.547,0,0,1,.16.8,10,10,0,0,1-1.074.068c-.116,0-.259-.15-.339-.266a2.527,2.527,0,0,1,.094-3.207c.051-.065.094-.133.215-.307a35.8,35.8,0,0,0-4.046-.039,5.051,5.051,0,0,1,.546.7,2.987,2.987,0,0,1,.148,2.324,1.084,1.084,0,0,1-1.419.793c-.331-.1-.4-.242-.242-.559a2.565,2.565,0,0,0,.222-2.111,4.971,4.971,0,0,0-.827-1.306c-.319-.37-.38-.624.073-.8a9.341,9.341,0,0,1,1.611-.372c.213-.044.43-.056.791-.1-1.253-1.274-1.308-2.445.174-3.4a2.153,2.153,0,0,1,2.5.37c.967,1.047.658,2.024-.3,2.941Z" transform="translate(-105.079 -7.09)" fill="#fff"/>
    <path id="Path_15" data-name="Path 15" d="M168.175,329.922q-1.295.388-1.042-.781a.484.484,0,0,1,.559-.44h28.095c.3,0,.534.073.513.392-.019.283.288.7-.261.822a3.416,3.416,0,0,0-.534-.085h-26.8A3.155,3.155,0,0,0,168.175,329.922Z" transform="translate(-129.036 -250.911)" fill="#fff"/>
    <path id="Path_16" data-name="Path 16" d="M10.129,329.949c-.406-.725-.155-1.209.641-1.209q13.784,0,27.594.012c.2,0,.539.116.559.225.056.317.288.7-.114.967a3.422,3.422,0,0,0-.534-.087H10.666a3.432,3.432,0,0,0-.537.092Z" transform="translate(-9.884 -250.945)" fill="#fff"/>
    <path id="Path_17" data-name="Path 17" d="M239.284,359.057H246.2c.571,0,.619-.075.43-.621-.261-.757-1.016-1.17-2.176-1.209-.484-.012-.979-.051-1.47-.065-.532-.015-.692-.365-.725-.808-.027-.37,0-.745,0-1.18a2.226,2.226,0,0,1,.312.2,3.354,3.354,0,0,0,2.312.6,2.66,2.66,0,0,1,2.578,2.256c.145.525.223,1.025.982.8v1.342l-.7.075c.242.537.457,1.008.66,1.451a1.515,1.515,0,0,1-1.318-1.066c-.1-.406-.31-.447-.65-.445h-8.34c0-.191-.024-.355-.024-.518v-5.92c0-.522.075-1.052-.585-1.173l1.8-1.794Z" transform="translate(-182.403 -267.807)" fill="#fff"/>
    <path id="Path_18" data-name="Path 18" d="M217.366,63.545h-9.189c-.682,0-.921-.268-.643-.8a.81.81,0,0,1,.612-.3c.641-.015,1.286.065,1.935.065h14.894c.59,0,1.18-.044,1.77-.044.45,0,.484.312.462.67-.017.4-.278.416-.563.414-1.835,0-3.671-.022-5.506-.029h-3.775Z" transform="translate(-159.612 -49.043)" fill="#fff"/>
    <path id="Path_19" data-name="Path 19" d="M19.373,63.535H14.537c-.242,0-.5,0-.484-.358.022-.281-.116-.658.38-.675.576-.019,1.151-.056,1.727-.053.525,0,1.049.073,1.572.075H31.2c.626,0,1.25-.082,1.874-.07.242,0,.595-.053.663.375.08.515-.068.725-.6.725-.95,0-1.9-.015-2.851-.022a2.844,2.844,0,0,0-.484-.085H19.857A2.844,2.844,0,0,0,19.373,63.535Z" transform="translate(-13.003 -49.049)" fill="#fff"/>
    <path id="Path_20" data-name="Path 20" d="M122.48,64.945c.288-.343.464-.725.757-.873a12.66,12.66,0,0,1,6.9-1.736,13.119,13.119,0,0,1,5.078,1.516.591.591,0,0,1,.3.887.614.614,0,0,1-.967.271,9.465,9.465,0,0,0-3.709-1.144,8.665,8.665,0,0,0-4.029.206,22.8,22.8,0,0,0-2.515,1.105,1.52,1.52,0,0,1-1.349.215C122.8,65.325,122.69,65.151,122.48,64.945Z" transform="translate(-95.212 -48.94)" fill="#fff"/>
    <path id="Path_21" data-name="Path 21" d="M178.994,79.45c-.031.189-.022.268-.058.317a5.546,5.546,0,0,0-.8,3.359c0,3.163.022,6.328.044,9.491,0,.372.053.725-.513.7-.513-.017-.5-.324-.5-.689q.044-3.593.068-7.192c0-1.34-.041-2.682.017-4.019a1.771,1.771,0,0,1,.987-1.806A4.743,4.743,0,0,1,178.994,79.45Z" transform="translate(-136.675 -61.938)" fill="#fff"/>
    <path id="Path_22" data-name="Path 22" d="M13.608,203.889H19c.66,0,1.318-.058,1.978-.075.307,0,.626-.036.648.43.034.711-.046.9-.576.931s-1.045-.044-1.569-.044H12.145c-.271,0-.636.1-.614-.375.015-.375-.169-.871.5-.887.525-.012,1.049-.051,1.574-.08Z" transform="translate(-11.083 -156.21)" fill="#fff"/>
    <path id="Path_23" data-name="Path 23" d="M119.81,80.512c1.153-.242,1.526.484,1.693,1.3a5.135,5.135,0,0,1,.058.967c-.015,2.735-.044,5.468-.046,8.2,0,.829.073,1.659.089,2.491,0,.285.157.663-.392.7-.51.034-.6-.22-.6-.636,0-1.748-.019-3.5,0-5.25.022-1.422.14-2.846.133-4.268a5.444,5.444,0,0,0-.469-2.677C120.134,81.078,119.982,80.817,119.81,80.512Z" transform="translate(-93.188 -62.707)" fill="#fff"/>
    <path id="Path_24" data-name="Path 24" d="M131.608,307.54h6.009c.706.027,1.047.527.725,1.163-.08.157-.462.227-.7.227-2.771,0-5.54-.031-8.309-.039-.365,0-.653-.012-.6-.484.041-.365-.181-.861.532-.829.779.036,1.56,0,2.341,0Z" transform="translate(-99.946 -234.872)" fill="#fff"/>
    <path id="Path_25" data-name="Path 25" d="M98.532,84.453c.029.912.177.991-.989,1.013-1.49.027-2.979,0-4.469,0h-.358c-.455,0-.653-.164-.638-.67.034-1.311,0-1.311,1.308-1.323,1.478,0,2.955-.031,4.43-.044.692,0,.692,0,.725.709C98.534,84.247,98.532,84.351,98.532,84.453Z" transform="translate(-72.161 -64.956)" fill="#fff"/>
    <path id="Path_26" data-name="Path 26" d="M252.908,205.291h-8.3c-.725.046-.764,0-.745-.692,0-.433.189-.566.624-.563,2.462.019,4.923.012,7.383,0,.542,0,1.081-.027,1.623-.036.484,0,.459.346.464.667s.034.636-.44.629a4.649,4.649,0,0,0-.6.073Z" transform="translate(-187.237 -156.369)" fill="#fff"/>
    <path id="Path_27" data-name="Path 27" d="M191.6,84.357c0,1.093-.082,1.059-1.209,1.04-1.209-.022-2.45-.08-3.664,0-1.289.1-1.514-.116-1.32-1.4.082-.551.278-.67.8-.655,1.451.036,2.921.022,4.382,0C191.552,83.361,191.6,83.385,191.6,84.357Z" transform="translate(-142.878 -64.891)" fill="#fff"/>
    <path id="Path_28" data-name="Path 28" d="M170.016,203.869a5.691,5.691,0,0,1,.031.967.513.513,0,0,1-.312.346,3.353,3.353,0,0,1-.854.08c-2.1-.019-4.21-.051-6.314-.065-.522,0-1.047.058-1.572.056s-.462-.406-.484-.764.1-.609.484-.609C163.99,203.867,166.974,203.869,170.016,203.869Z" transform="translate(-124.046 -156.27)" fill="#fff"/>
    <path id="Path_29" data-name="Path 29" d="M105.619,205.331H99.145c-.539,0-1.079.024-1.615,0-.6-.027-.375-.484-.358-.8s.1-.505.532-.467c.805.068,1.62.031,2.418.034h6.019c.3,0,.517.053.484.409s.174.8-.4.89a4.27,4.27,0,0,1-.609,0Z" transform="translate(-75.981 -156.414)" fill="#fff"/>
    <path id="Path_30" data-name="Path 30" d="M113.42,351.15l1.719,1.753c-.725.281-.508.943-.51,1.521v6.084H113.42Z" transform="translate(-88.343 -267.936)" fill="#fff"/>
    <path id="Path_31" data-name="Path 31" d="M14.91,351.13c.607.614,1.161,1.178,1.76,1.789-.7.155-.532.725-.532,1.209v6.36H14.91Z" transform="translate(-13.655 -267.921)" fill="#fff"/>
    <path id="Path_32" data-name="Path 32" d="M212.091,203.943v1.241h-8.016c-.334,0-.484-.164-.411-.433s.16-.638.365-.776a1.778,1.778,0,0,1,.892-.109c1.748.017,3.5.053,5.245.077C210.8,203.95,211.434,203.943,212.091,203.943Z" transform="translate(-156.751 -156.264)" fill="#fff"/>
    <path id="Path_33" data-name="Path 33" d="M59.258,203.942h7.073c.368,0,.51.147.484.469s.215.788-.377.813c-.505.022-1.011-.034-1.516-.036h-5.1c-.351,0-.7-.017-1.049,0-.438.031-.484-.242-.447-.551s-.085-.767.484-.776h.445Z" transform="translate(-46.567 -156.263)" fill="#fff"/>
    <path id="Path_34" data-name="Path 34" d="M135.86,301.768H132.5c-.3,0-.52-.08-.542-.392s-.056-.706.358-.854a1.674,1.674,0,0,1,.549-.075h6.1c.8,0,.875.114.837.885-.017.326-.148.445-.472.44-1.153-.012-2.309,0-3.465,0Z" transform="translate(-102.387 -229.494)" fill="#fff"/>
    <path id="Path_35" data-name="Path 35" d="M169.807,320.382h4.786c.414,0,.6.157.6.554,0,.585-.131.776-.614.771-1.731-.022-3.463-.063-5.2-.08-.484,0-.948.039-1.422.075a.508.508,0,0,1-.6-.609c.029-.319,0-.725.566-.725.624.012,1.253-.056,1.879-.087Z" transform="translate(-129.229 -244.531)" fill="#fff"/>
    <path id="Path_36" data-name="Path 36" d="M64.816,321.887H60.335c-.592,0-1.185.043-1.775.089-.484.036-.648-.169-.626-.653.019-.433.053-.692.6-.684,2.176.029,4.353.012,6.515,0,.665,0,.631,0,.675.745.034.592-.322.568-.709.566h-.2Z" transform="translate(-46.273 -244.803)" fill="#fff"/>
    <path id="Path_37" data-name="Path 37" d="M253.868,321.964h-4.936c-.505,0-1.011.046-1.516.07-.411.017-.484-.242-.445-.568s-.065-.725.462-.725c2.292,0,4.595,0,6.875.015.118,0,.324.218.341.353C254.743,321.956,254.652,322.053,253.868,321.964Z" transform="translate(-189.592 -244.88)" fill="#fff"/>
    <path id="Path_38" data-name="Path 38" d="M98.71,320.6h6c.218,0,.59.068.624.184a1.751,1.751,0,0,1,0,.941c-.031.109-.38.184-.58.181-1.086,0-2.176-.07-3.252-.073-1.137,0-2.273.056-3.41.051-.155,0-.428-.2-.44-.331-.031-.319-.169-.75.3-.9a3.857,3.857,0,0,1,.754-.085Z" transform="translate(-76.358 -244.751)" fill="#fff"/>
    <path id="Path_39" data-name="Path 39" d="M213.8,321.926h-5.1c-.438,0-.875.07-1.313.075-.38,0-.667-.131-.612-.6.077-.634.191-.694.742-.68.914.027,1.831-.024,2.747-.031h3.915c.242,0,.445.058.414.37v.1C214.616,321.974,214.608,321.974,213.8,321.926Z" transform="translate(-159.12 -244.842)" fill="#fff"/>
    <path id="Path_40" data-name="Path 40" d="M25.173,321.945H18.7c-.324,0-.428-.143-.416-.428.012-.336-.128-.771.421-.815.266-.022.537.051.805.051h5.1c.322,0,.641-.046.967-.063.278-.017.537.022.484.4-.051.339.227.844-.426.9-.152.014-.307.017-.459.024Z" transform="translate(-16.208 -244.839)" fill="#fff"/>
    <path id="Path_41" data-name="Path 41" d="M9.88,183.52a.792.792,0,0,0,.825.416q32.019-.014,64.038,0a4.073,4.073,0,0,1,.677.109c-.322,0-.643.024-.967.024H9.88Z" transform="translate(-9.841 -140.842)" fill="#fff"/>
    <path id="Path_42" data-name="Path 42" d="M146.719,72.627c-.16.268-.242.542-.406.638-.131.073-.418-.041-.58-.152-.409-.283-.665-.762-1.236-.834a1.606,1.606,0,0,0-1.632.561.258.258,0,0,1-.034.039c-.268.242-.5.634-.938.36a.823.823,0,0,1,.048-1.209,4.4,4.4,0,0,1,1.594-.783,2.685,2.685,0,0,1,2.539.5,5.841,5.841,0,0,1,.646.883Z" transform="translate(-109.747 -55.638)" fill="#fff"/>
    <path id="Path_43" data-name="Path 43" d="M31.4,69.566a4.228,4.228,0,0,1-.6.883,2.781,2.781,0,0,1-3.308.1,1.424,1.424,0,0,1-.561-.684,2.113,2.113,0,0,1,.1-.837,2.379,2.379,0,0,1,.791.242c.505.363.943.875,1.661.566a3.7,3.7,0,0,0,.66-.426c.094-.07.148-.21.242-.242A1.19,1.19,0,0,1,31.04,69C31.161,69.02,31.239,69.3,31.4,69.566Z" transform="translate(-22.751 -54.013)" fill="#fff"/>
    <path id="Path_44" data-name="Path 44" d="M261.875,70.945c-.658-.227-1.253-.4-1.821-.643a.967.967,0,0,1-.421-.484c-.172-.363-.264-.832.116-1.042.164-.092.631.2.856.416a1.234,1.234,0,0,0,1.637.307,9.746,9.746,0,0,0,.914-.631c.435-.3.636-.218.725.29a.925.925,0,0,1-.414,1.057C262.961,70.505,262.414,70.7,261.875,70.945Z" transform="translate(-199.086 -53.784)" fill="#fff"/>
    <path id="Path_45" data-name="Path 45" d="M72.729,70.862c-.517-.143-1.016-.242-1.482-.421a1.238,1.238,0,0,1-.769-1.108.583.583,0,0,1,.169-.484.68.68,0,0,1,.554,0,2.573,2.573,0,0,1,.542.433,1.306,1.306,0,0,0,2.012-.041,2.9,2.9,0,0,1,.568-.421c.36-.193.573-.053.6.36a1.181,1.181,0,0,1-.779,1.289A12.356,12.356,0,0,1,72.729,70.862Z" transform="translate(-55.781 -53.815)" fill="#fff"/>
    <path id="Path_46" data-name="Path 46" d="M216.308,70.893a13.7,13.7,0,0,1-1.451-.409,1.209,1.209,0,0,1-.762-1.262.412.412,0,0,1,.672-.353,1.49,1.49,0,0,1,.4.377,1.5,1.5,0,0,0,2.055.16,6.975,6.975,0,0,1,.563-.51.578.578,0,0,1,.464-.082.551.551,0,0,1,.242.392c.1.856-.563,1.485-1.654,1.591-.169.015-.341,0-.51,0Z" transform="translate(-164.668 -53.848)" fill="#fff"/>
    <path id="Path_47" data-name="Path 47" d="M57.8,356.239l.9-.856,1.013.873-1.02,1.108-.827-1.049-.989.945-.967-.933.933-1.006Z" transform="translate(-44.74 -271.097)" fill="#fff"/>
    <path id="Path_48" data-name="Path 48" d="M145.46,356.446l.936-.946.95.9.946-.895.967.95-.946.991-1-.955c-.285.341-.554.655-.863,1.023Z" transform="translate(-112.635 -271.234)" fill="#fff"/>
    <path id="Path_49" data-name="Path 49" d="M80.8,232.49c.063.135.181.271.181.406q.015,8.464,0,16.944c0,.138-.116.273-.177.411,0-.254-.019-.508-.019-.762V233.046C80.787,232.855,80.8,232.676,80.8,232.49Z" transform="translate(-63.603 -177.97)" fill="#fff"/>
    <path id="Path_50" data-name="Path 50" d="M10.73,333.482a3.443,3.443,0,0,1,.549-.082H38.887a3.419,3.419,0,0,1,.534.087c-.271,0-.544.017-.815.017H11.279C11.1,333.5,10.916,333.489,10.73,333.482Z" transform="translate(-10.485 -254.478)" fill="#fff"/>
    <path id="Path_51" data-name="Path 51" d="M171.57,333.489a3.153,3.153,0,0,1,.532-.089h26.8a3.409,3.409,0,0,1,.534.085c-.135,0-.271.019-.406.019H171.875C171.773,333.5,171.674,333.494,171.57,333.489Z" transform="translate(-132.431 -254.478)" fill="#fff"/>
    <path id="Path_52" data-name="Path 52" d="M98.265,79.361c-.4.041-.808.118-1.209.121-1.168,0-2.336,0-3.5-.039a1.451,1.451,0,0,1-.452-.181c.133-.109.242-.273.4-.312a3.349,3.349,0,0,1,.851-.085c1.049.015,2.1.036,3.144.077a5.354,5.354,0,0,1,.791.15Z" transform="translate(-72.937 -61.494)" fill="#fff"/>
    <path id="Path_53" data-name="Path 53" d="M193.942,79.534a3.7,3.7,0,0,1-.658.121H189.26c-.15,0-.3-.169-.44-.261.14-.082.28-.242.421-.242q2.039-.024,4.077,0a2.713,2.713,0,0,1,.643.167Z" transform="translate(-145.51 -61.703)" fill="#fff"/>
    <path id="Path_54" data-name="Path 54" d="M83.437,396.092l-1.117,1.057-1.04-1.037,1.037-.921Z" transform="translate(-63.975 -301.326)" fill="#fff"/>
    <path id="Path_55" data-name="Path 55" d="M177.579,245.932a3.144,3.144,0,0,1-.1-.53V225.84a3.13,3.13,0,0,1,.1-.53c0,.339.022.677.022,1.018v19.1C177.606,245.594,177.586,245.763,177.579,245.932Z" transform="translate(-136.912 -172.526)" fill="#fff"/>
    <path id="Path_56" data-name="Path 56" d="M168.782,79.751a5.32,5.32,0,0,1-1.093-.527.725.725,0,0,1-.092-.7c.208-.3.4.024.559.167.5.445.825.428,1.465-.07a1.47,1.47,0,0,1,.414-.148,1.427,1.427,0,0,1,.031.5C169.908,79.439,169.531,79.626,168.782,79.751Z" transform="translate(-129.379 -61.139)" fill="#fff"/>
    <path id="Path_57" data-name="Path 57" d="M128.033,79.861c-.6-.121-1.12-.1-1.332-.634-.068-.167.019-.4.039-.6a1.511,1.511,0,0,1,.484.213.9.9,0,0,0,1.371.024,2.051,2.051,0,0,1,.576-.222c-.048.261,0,.634-.164.759A3.96,3.96,0,0,1,128.033,79.861Z" transform="translate(-98.393 -61.316)" fill="#fff"/>
    <path id="Path_58" data-name="Path 58" d="M110.882,248.067a2.9,2.9,0,0,1-.1-.527V228.787a2.9,2.9,0,0,1,.1-.527c0,.118.022.242.022.355v19.1C110.9,247.83,110.889,247.949,110.882,248.067Z" transform="translate(-86.341 -174.763)" fill="#fff"/>
    <path id="Path_59" data-name="Path 59" d="M262.8,396.3l.979-.967.941,1-.967.967C263.453,396.967,263.151,396.658,262.8,396.3Z" transform="translate(-201.6 -301.432)" fill="#fff"/>
    <path id="Path_60" data-name="Path 60" d="M211.659,235a3.443,3.443,0,0,1,.085.537V251.3a3.114,3.114,0,0,1-.087.534c0-2.737-.017-5.475-.017-8.222Q211.645,239.321,211.659,235Z" transform="translate(-162.812 -179.873)" fill="#fff"/>
    <path id="Path_61" data-name="Path 61" d="M119.207,232.08a3.371,3.371,0,0,1,.087.534v15.667a3.2,3.2,0,0,1-.089.534q0-5-.015-10C119.19,236.568,119.2,234.324,119.207,232.08Z" transform="translate(-92.718 -177.659)" fill="#fff"/>
    <path id="Path_62" data-name="Path 62" d="M134.379,236.29a3.177,3.177,0,0,1,.089.532v13.634a3.1,3.1,0,0,1-.089.532c0-2.45-.019-4.9-.019-7.349S134.372,238.74,134.379,236.29Z" transform="translate(-104.219 -180.851)" fill="#fff"/>
    <path id="Path_63" data-name="Path 63" d="M33.187,100.609a2.631,2.631,0,0,1-.087-.484V89.464a2.606,2.606,0,0,1,.087-.484Z" transform="translate(-27.446 -69.164)" fill="#fff"/>
    <path id="Path_64" data-name="Path 64" d="M36.06,66.675a2.844,2.844,0,0,1,.484-.085h9.944a2.844,2.844,0,0,1,.484.085l-9.994.015C36.672,66.689,36.365,66.689,36.06,66.675Z" transform="translate(-29.69 -52.188)" fill="#fff"/>
    <path id="Path_65" data-name="Path 65" d="M186.172,149.77a2.9,2.9,0,0,1-.53.092c-2.135,0-4.273,0-6.408.015a2.152,2.152,0,0,0-.636.208l-.418-.208.031-.106Z" transform="translate(-137.443 -115.253)" fill="#fff"/>
    <path id="Path_66" data-name="Path 66" d="M119.26,302.58Z" transform="translate(-92.771 -231.111)" fill="#fff"/>
    <path id="Path_67" data-name="Path 67" d="M281.74,185.14l.087-.16.109.181Z" transform="translate(-215.96 -141.949)" fill="#fff"/>
    <path id="Path_68" data-name="Path 68" d="M111.224,312.15l-.024-.3Z" transform="translate(-86.66 -238.139)" fill="#fff"/>
    <path id="Path_69" data-name="Path 69" d="M177.9,312.7Z" transform="translate(-137.231 -238.784)" fill="#fff"/>
    <path id="Path_70" data-name="Path 70" d="M81.11,307.6Z" transform="translate(-63.846 -234.917)" fill="#fff"/>
  </g>
</svg>
