<svg xmlns="http://www.w3.org/2000/svg" xmlns:xlink="http://www.w3.org/1999/xlink" width="363.602" height="209.502" viewBox="0 0 363.602 209.502">
  <defs>
    <filter id="map" x="0" y="0" width="363.602" height="209.502" filterUnits="userSpaceOnUse">
      <feOffset dy="8" input="SourceAlpha"/>
      <feGaussianBlur stdDeviation="4" result="blur"/>
      <feFlood flood-opacity="0.212"/>
      <feComposite operator="in" in2="blur"/>
      <feComposite in="SourceGraphic"/>
    </filter>
  </defs>
  <g id="map-2" data-name="map" transform="translate(12 4)">
    <g transform="matrix(1, 0, 0, 1, -12, -4)" filter="url(#map)">
      <path id="map-3" data-name="map" d="M243.626,195.357c1.094-.178,1.777-.246,2.419-.4,5.892-1.449,11.756-2.966,17.647-4.347a20.149,20.149,0,0,1,4.88-.437c.588,0,1.162.711,1.736,1.094-.519.451-1.012,1.217-1.586,1.285-6.725.656-13.136,2.734-19.643,4.347-3.267.807-6.561,1.49-9.869,2.078a26.965,26.965,0,0,1-4.21,0c-.424,0-1.039-.109-1.23.123-1.545,1.791-3.8,1.873-5.8,2.406-3.54.943-7.149,1.558-10.731,2.3-.971.191-2.283,0-2.857.547s-.67,1.9-.889,2.912c-1.025,4.634-2.009,9.268-3.035,13.9a4.894,4.894,0,0,1-.629,2,2.31,2.31,0,0,1-1.681.533c-.219,0-.642-.834-.574-1.217a54.006,54.006,0,0,1,1.367-6.233c.369-1.217.1-1.709-1.053-2.009q-7.2-1.914-14.38-3.868c-1.012-.273-2.009-.56-2.98-.916s-1.476-.1-1.654.889c-.629,3.39-1.244,6.835-1.873,10.143a6.124,6.124,0,0,1-.478,2.365c-.342.519-1.271.629-1.941.916-.178-.492-.574-1.012-.492-1.449.779-4.1,1.558-8.2,2.488-12.3.287-1.271-.219-1.736-1.217-2.037q-6.725-2.05-13.478-4.1a46.973,46.973,0,0,1-4.538-1.367c-1.367-.6-1.845-.068-2.05,1.244-.424,2.857-.93,5.714-1.367,8.571-.137.806-.219,1.859-1.367,1.572-.383-.1-.724-1.367-.642-1.968.424-3.089.971-6.151,1.531-9.213a1.545,1.545,0,0,0-1.012-1.927c-7.7-3.5-15.419-6.93-23.047-10.553-7.04-3.349-13.984-6.835-20.955-10.416-9.3-4.661-18.6-9.418-27.913-14.107-7.969-3.937-16.034-7.7-24.045-11.551-2.5-1.2-4.989-2.447-7.491-3.663-.41-.205-.861-.355-1.613-.67.137,1.367.26,2.543.369,3.663.519,5.7.889,11.428,1.586,17.114.629,5.044,1.627,10.033,2.419,15.036.191,1.176.219,2.392.369,3.581a2.3,2.3,0,0,0,1.64,1.941,54.842,54.842,0,0,1,5.468,3.24l6.151,3.732c1.176.711,1.982.424,2.625-.82,3.267-6.274,7.135-12.3,8.926-19.233.629-2.433,1.244-2.638,3.663-1.859,3.212,1.039,6.52,1.859,9.651,3.117a65.4,65.4,0,0,1,7.354,3.91c3.472,1.941,6.917,3.95,10.361,5.933a2.16,2.16,0,0,0,.6.273c4.948.943,8.612,4.579,13.191,6.3.793.287,1.668.7,1.23,1.75s-1.449.738-2.269.4c-2.5-1.039-5.14-1.791-7.067-3.95a4.88,4.88,0,0,0-2.269-.82c-4.21-1.039-7.628-3.663-11.346-5.687-2.6-1.367-5.017-3.171-7.71-4.32-3.8-1.613-7.792-2.734-11.687-4.1-.984-.342-1.367.164-1.695,1-1.148,3.007-2.16,6.083-3.568,8.953-1.627,3.335-3.636,6.466-5.4,9.733-.232.424,0,1.148.123,1.7s.424.738.547,1.135a2.9,2.9,0,0,0,2.734,2.009,5.988,5.988,0,0,1,2.515.738c5.358,3.458,10.676,7,15.993,10.525,1.367.9,2.625,1.968,4.032,2.734,3.527,2.078,7.108,4.1,10.662,6.1-2.447.314-5.044.588-7.436-.984L92.92,211.883,77.761,201.836a3.254,3.254,0,0,0-.861-.451c-4.743-1.367-8.434-4.47-12.371-7.176a11.576,11.576,0,0,0-1.367-.656,6.6,6.6,0,0,0,0,1.367c1.75,6.7,3.417,13.437,5.345,20.08,2.091,7.231,4.4,14.394,6.684,21.57A34.351,34.351,0,0,1,76.3,249.993c-.93.3-1.367.082-1.736-.971q-4.183-12.754-8.543-25.439c-1.148-3.376-1.23-3.363-4.784-2.406l-.478.123c-3.2.738-3.349.779-2.488,3.855,2.283,8.2,4.7,16.226,7.067,24.332a3.911,3.911,0,0,1,0,.6H57.749c-.26,0-.642-.547-.738-.9-2.2-7.532-4.361-15.036-6.575-22.609-.26-.9-.793-2.392-1.258-2.406a10.662,10.662,0,0,0-3.9.875c-.219.082-.342.984-.219,1.367q3.055,11.113,6.179,22.227c.109.4.15.834.26,1.449H47.633a1.367,1.367,0,0,1-.943-.807c-3.089-11.728-6.329-23.4-9.1-35.2-2.488-10.621-4.62-21.324-6.1-32.164-1.572-11.564-3.458-23.1-5.14-34.666-.683-4.7-1.217-9.418-1.763-14.148-1.08-9.569-2.187-19.137-3.158-28.61-1.08-10.826-1.982-21.707-3.076-32.52-.178-1.955-.369-3.909-.56-5.864-.082-.889.287-1.367,1.2-1.367h.984c2.406,0,2.351,0,2.543,2.461.683,8.707,1.449,17.415,2.119,26.122.123,1.613.683,2.5,2.433,2.16h.164c4.1-.082,3.95,0,3.7-3.991-.519-8.393-.916-16.786-1.367-25.179,0-1.121.383-1.613,1.517-1.586s2.31-.082,2.392,1.654c.205,4.866.465,9.719.752,14.558.26,4.2.56,8.393.93,12.576,0,.465.615.889.943,1.367.287-.519.861-1.08.82-1.586-.711-8.981-1.5-17.948-2.3-26.929-.109-1.121.273-1.558,1.367-1.6,3.9-.123,3.937-.15,4.183,3.622.191,2.83.314,5.673.342,8.516a14.736,14.736,0,0,1-.533,2.83,6.52,6.52,0,0,0-.219,1.6c.287,3.54.6,7.067.916,10.608.219,2.474.219,2.461,2.652,2.6a5.179,5.179,0,0,1,.875.178c-.273.205-.383.355-.519.383-2.734.6-2.857.6-2.734,3.376.861,12.138,1.736,24.291,2.734,36.429.724,8.926,1.367,17.866,2.447,26.751q1.8,15.187,4.333,30.305c1.189,7.108,2.925,14.107,4.4,21.16.205.93.629,1.49,1.709,1.217,1.75-.437,3.513-.834,5.263-1.258.984-.232,1.217-.711.93-1.791-1.613-6.179-3.513-12.3-4.593-18.577a373.172,373.172,0,0,1-5.468-42.881c-.574-10.84-1.367-21.68-2.009-32.52-.437-6.643-.875-13.287-1.367-19.93-.834-10.348-1.654-20.7-1.955-31.071,0-1.025.342-1.476,1.367-1.545,2.734-.164,2.884-.082,3.076,2.6a57.14,57.14,0,0,1,.219,5.728,2.037,2.037,0,0,0,1.64,2.242q9.569,3.13,19.137,6.384c7.012,2.392,14,4.894,21.024,7.272a1.64,1.64,0,0,0,1.367-.656c1.613-4.47,3.13-8.954,4.661-13.437l3.076-8.981a1.5,1.5,0,0,1,2.078-1.053c1.053.424.478,1.217.232,1.941-1.121,3.185-2.2,6.384-3.267,9.569-.3.9.164,1.367,1.039,1.681q9.09,3.2,18.167,6.493,7.956,2.816,15.8,5.741c2.324.861,2.816,1.9,1.886,4.224-1.066,2.734-2.2,5.345-3.39,7.969-.451.984-.109,1.367.765,1.709l13.341,4.484c6.411,2.132,12.849,4.224,19.26,6.384,3.417,1.135,6.835,2.337,10.2,3.554.848.3,1.23,0,1.709-.67a2.734,2.734,0,0,1,1.722-1.107c1.08-.123,1.3.711.875,1.531-.629,1.2-.082,1.64.971,2.009,5.987,2.091,11.947,4.21,17.921,6.3l17.456,6.138c3.39,1.189,6.835,2.378,10.17,3.609,1,.355,1.449-.15,1.75-.93a96.835,96.835,0,0,0,3.622-9.459c.738-2.611.328-5.892-2.98-7.094q-6.616-2.419-13.177-4.962-10.6-4.1-21.188-8.2c-2.734-1.08-5.618-2.091-8.393-3.2-.971-.383-1.3.082-1.531.848-.752,2.447-1.517,4.894-2.255,7.341-.26.875-.519,1.818-1.722,1.463s-.984-1.285-.7-2.16c.971-3.021,2-6.015,2.912-9.036a4.238,4.238,0,0,0,0-2.187,8.407,8.407,0,0,1,1.121-7.19,1.476,1.476,0,0,0,0-1.982c-2.433-3.95-6.479-5.112-10.539-6.261-1.053-.3-2.734-.109-2.461-1.7s1.845-1.162,2.871-.848c2.078.629,4.1,1.681,6.11,2.228,2.816.738,4.183,3.007,5.837,4.976a2.543,2.543,0,0,0,3.24.9,16.9,16.9,0,0,1,4.853-.642c2.953-.082,4.292-2.324,5.851-4.238.219-.246-.082-1.135-.383-1.558A87.962,87.962,0,0,1,193.9,65.223c0-.082,0-.205,0-.547a18.688,18.688,0,0,1,3.814.082c.588.123,1.148,1,1.49,1.668,1.558,3.117,3.021,6.288,4.552,9.418,3.4,6.958,8.913,11.988,15.214,16.144,7.012,4.62,14.271,8.871,21.324,13.423,5.632,3.65,11.127,7.5,16.677,11.277.588.4,1.148.847,1.75,1.217a2.542,2.542,0,0,0,3.855-1.094c2.6-4.921,5.167-9.856,7.764-14.79a10.037,10.037,0,0,1,1.176-1.955c1.039-1.148.642-1.832-.492-2.584-8.8-5.892-17.647-11.7-26.327-17.77-4.1-2.9-7.969-6.247-11.892-9.459a1.941,1.941,0,0,1-.123-1.367c.642-.191,1.558-.478,1.982-.178,1.367.943,2.406,2.242,3.732,3.2,4.183,3.021,8.448,5.96,12.685,8.926.93.656,1.49.164,1.941-.683q1.6-3.144,3.24-6.247c.232-.437.424-1.039.793-1.189a2.324,2.324,0,0,1,1.736,0c.26.123.4,1.094.191,1.476-1.367,2.57-2.734,5.1-4.1,7.614-.492.861-.26,1.367.492,1.9,5.755,3.964,11.5,7.928,17.21,11.947,1.121.793,1.613.287,2.173-.642q7.012-11.551,14.052-23.033c.246-.424.506-.971.9-1.121a5.687,5.687,0,0,1,1.818-.1c0,.574.205,1.285,0,1.722-2.009,3.363-4.019,6.753-6.233,9.992-1.012,1.476-.683,2.214.615,3.171q5.311,4.1,10.635,8.2c.178.137.451.232.519.4a15.359,15.359,0,0,1,.355,1.572c-.533,0-1.2.15-1.586-.109-2.365-1.668-4.675-3.417-6.971-5.167-1.558-1.189-3.089-2.42-4.607-3.663-.711-.574-1.217-.547-1.722.26-2.734,4.4-5.468,8.776-8.284,13.164-.629,1,.15,1.49.82,1.968q4.8,3.445,9.569,6.835a7.286,7.286,0,0,1,1.722,1.49c.232.314,0,.971,0,1.476a2.67,2.67,0,0,1-1.367-.15c-3.677-2.638-7.327-5.3-10.936-8.038-1-.765-1.558-.711-2.146.41-2.461,4.634-4.962,9.227-7.422,13.847a1.367,1.367,0,0,0-.123,1.053c1.476,2.9,2.884,5.55,6.083,7.4,4.839,2.734,9.09,6.6,13.6,9.938,2.734,2.009,5.468,3.937,8.2,5.933.943.683,1.5.191,2.023-.547.875-1.244,1.736-2.515,2.652-3.745.533-.724,1.162-1.75,2.214-.957s.383,1.613-.219,2.406c-.861,1.121-1.572,2.378-2.529,3.417s-.711,1.627.342,2.31q4.935,3.212,9.815,6.534,6.493,4.415,12.959,8.885c1.777,1.23,1.9,1.23,3.294-.437.383-.465.779-1.08,1.271-1.23a2.1,2.1,0,0,1,1.695.383c.246.191,0,.984,0,1.5,0,0-.082,0-.109.109-2.132,2.3-2.064,2.214.6,4.1,8.079,5.769,16.1,11.619,24.168,17.4,2.283,1.64,4.648,3.185,6.958,4.757a22.965,22.965,0,0,1-2.119,2.734,1.8,1.8,0,0,1-1.654.137,33.512,33.512,0,0,1-3.745-2.625,1.449,1.449,0,0,0-2.132,0c-5.686,4.32-11.455,8.543-17.128,12.877-3.65,2.734-7.149,5.741-10.785,8.53s-7.423,5.55-11.182,8.27a34.781,34.781,0,0,1-3.1,1.818,1.736,1.736,0,0,0-.861,2.447c.26.7,1.217,1.75-.191,2.324s-2.05-.137-2.365-1.859a10.335,10.335,0,0,0-2.5-5.468c-.424,1.066-.793,1.873-1.053,2.734-.369,1.135-.683,2.3-.943,3.472-.314,1.367-1.148,1.367-2.42.943.547-1.736,1.053-3.376,1.572-5.017a37.122,37.122,0,0,0,1.217-3.732,3.376,3.376,0,0,0-.3-2.16c-3.158-6.179-6.575-12.207-11.633-17.114a1.875,1.875,0,0,1-.219-.246c-2.31-2.584-2.42-2.638-3.868.465-3.8,8.092-7.491,16.239-11.223,24.359a17.567,17.567,0,0,0-.752,2.16c-.506,1.668-1.613,1.845-3.294,1.23.67-1.586,1.285-3.117,1.955-4.634,1.681-3.786,3.39-7.573,5.071-11.359.574-1.285-.232-1.367-1.176-1.367l-13.437-.219-7.86-.15a4.1,4.1,0,0,0-4.361,3.171c-1.258,4.4-2.433,8.83-3.636,13.246-.478,1.736-.861,1.927-2.83,1.3.342-1.367.7-2.816,1.066-4.21.9-3.431,1.859-6.835,2.734-10.279a9.487,9.487,0,0,1,3.445-5.044,4.347,4.347,0,0,1,2.611-.629c7.7.082,15.406.178,23.1.369a2.638,2.638,0,0,0,2.925-1.709c1.572-3.54,3.335-7,4.907-10.525a2.269,2.269,0,0,0-.342-1.873c-2.515-3.294-5.208-6.466-7.655-9.815-2.283-3.117-4.333-6.425-6.493-9.637-1.49-2.214-2.966-4.443-4.5-6.63q-5.126-7.313-10.32-14.558a14.2,14.2,0,0,0-6.971-4.689c-4.757-1.75-9.569-3.363-14.353-5.044-.957-.342-1.654-.4-2.05.779-.93,2.734-1.886,5.591-2.939,8.338-.451,1.176,0,1.64,1,2.078,5.468,2.255,10.936,4.566,16.4,6.835,3.048,1.367,6.11,2.611,9.118,4.1,2.146,1.039,2.9,2.337,2.447,4.634a43.057,43.057,0,0,1-1.982,7.245c-2.406,6.315-4.976,12.576-7.5,18.85A26.68,26.68,0,0,1,243.626,195.357ZM61.508,118.671h.1a31.111,31.111,0,0,0,0-3.745c-.191-1.517-1.367-1.791-2.734-1.763s-1.2.93-1.367,1.886a21.189,21.189,0,0,1-1.367,3.568c-.287.67-.834,1.367-.793,2.023q.738,12.508,1.668,24.988a2.392,2.392,0,0,0,1.08,1.613c1.75,1.012,3.568,1.873,5.386,2.734,10.662,5.153,21.352,10.225,31.973,15.433,9.35,4.593,18.6,9.35,27.913,14.011,7.176,3.6,14.312,7.245,21.543,10.69,6.493,3.089,12.972,6.3,19.711,8.8,7.7,2.857,15.652,5.1,23.553,7.409,6.835,2,13.669,3.691,20.5,5.577,1.271.342,1.832,0,2.05-1.285a35.726,35.726,0,0,1,1.053-4.8c1.367-4.2,2.857-8.352,4.333-12.521.26-.724.533-1.367-.41-1.75l-4.388-1.832c-.943-.4-1.367,0-1.681.916-.56,1.941-1.176,3.868-1.736,5.81-.9,3.171-2.953,4.21-5.987,3.035-4.429-1.709-8.858-3.431-13.3-5.1-8.106-3.062-16.2-6.179-24.359-9.1-5.181-1.859-10.43-3.6-15.72-5.071a22.336,22.336,0,0,1-10.156-5.7q-6.233-6.274-12.221-12.781c-1.914-2.064-4.251-4.1-5.249-6.589a35.54,35.54,0,0,0-10.43-14.025c-2.283-1.941-4.593-3.868-6.835-5.782a22.158,22.158,0,0,0-9.186-4.757c-3.827-.875-7.71-1.476-11.564-2.242-1.367-.26-1.7.191-1.463,1.463.369,2.05.738,4.1.93,6.151,0,.6-.4,1.709-.793,1.8-1.107.26-1.217-.779-1.367-1.6-.3-2.16-.642-4.32-.861-6.493a2.132,2.132,0,0,0-2.023-2.16c-3.622-.492-7.217-1.107-10.854-1.449-3.349-.3-5.386-2.474-5.085-5.823C61.44,119.655,61.467,119.163,61.508,118.671ZM60.332,99.793c.273-3.6.287-3.609,3.732-4.62,1.681-.492,3.376-.9,5.03-1.449.834-.26,1.709-.615,2.037.424.1.3-.765,1.162-1.367,1.367-1.886.7-3.855,1.217-5.782,1.791-.916.273-1.5.7-1.517,1.8,0,2.57-.26,5.126-.273,7.682s-.738,5.085,1.189,7.341c.465.547.355,1.668.328,2.515a32.263,32.263,0,0,1-.383,3.417c-.246,2.461.793,3.636,3.308,3.786,1.258.068,2.515.109,3.759.287,5.81.889,11.66,1.668,17.442,2.734,4.429.834,8.926,1.627,12.849,4.1.9.574,1.449.287,1.818-.547a21.788,21.788,0,0,1,1.558-3.6c.9-1.367.478-1.8-.765-2.242-2.884-1-5.728-2.105-8.639-3.021-3.773-1.176-5.317-3.759-5.468-7.587-.41-7.778-1.025-15.556-1.517-23.347A1.968,1.968,0,0,0,86.154,88.6c-4.456-1.367-8.926-2.871-13.369-4.347q-9.309-3.117-18.6-6.288c-1.517-.533-1.75-.437-1.627,1.135q.9,12.3,1.832,24.5a4.538,4.538,0,0,0,.355,1.367,53.452,53.452,0,0,0,2.447,5.317,2.529,2.529,0,0,0,1.955.93c.4,0,1.148-.861,1.162-1.367.068-3.281.027-6.657.027-10.047ZM325.52,201.043c-.287-.355-.506-.656-.752-.916-.711-.752-1.367-1.5-2.16-2.214-4.1-4.032-8.2-8.133-12.48-12.043s-8.817-7.628-13.177-11.51c-6.247-5.536-12.439-11.141-18.6-16.745-.888-.806-1.367-.752-2.05.191-2.378,3.267-4.853,6.452-7.217,9.705a2.105,2.105,0,0,0,0,1.586,6.837,6.837,0,0,0,.889,1.367c4.962,8.2,11.264,15.378,17.388,22.705a110.9,110.9,0,0,1,7.956,10.143c2.734,4.1,4.839,8.53,7.217,12.822.383.711.683,1.7,1.777,1.012,2.406-1.5,4.853-2.953,7.108-4.661,4.511-3.431,8.9-7.026,13.328-10.566a8.5,8.5,0,0,0,.766-.875Zm-40.038-57.9a6.616,6.616,0,0,0-.861.916c-1.914,3.24-3.759,6.507-5.714,9.719a1.367,1.367,0,0,0,.328,2.105c1.763,1.545,3.472,3.144,5.208,4.73,3.212,2.953,6.37,5.96,9.651,8.844,6.028,5.276,12.152,10.471,18.194,15.747,1,.875,1.531.779,2.091-.355a20.608,20.608,0,0,1,1.367-2.255c1.463-2.2,3.117-4.347.437-6.835-.205-.191,0-.875.1-1.367.492.1,1.162,0,1.367.328.642.724,1.066,1.64,1.64,2.433a2.461,2.461,0,0,1,0,3.144c-1.285,1.955-2.419,4.019-3.65,6.015a1.531,1.531,0,0,0,.246,2.269q5.222,5.167,10.348,10.443a1.2,1.2,0,0,0,1.927.178q8.694-6.493,17.456-12.945c.82-.6,1.012-1.08.1-1.75-4.005-2.925-7.969-5.905-12.015-8.776-3.827-2.734-7.723-5.331-11.592-7.983q-9.569-6.534-19.137-13.082-7.382-4.989-14.8-9.924c-.875-.492-1.709-1-2.693-1.6ZM236.272,197.2c4.32-.137,4.866-.533,6.233-3.909,1.75-4.292,3.568-8.557,5.235-12.877s3.349-8.53,4.743-12.89c1-3.13.6-3.814-2.351-5.1-7.805-3.39-15.638-6.671-23.47-9.992-1.927-.82-2-.807-2.734,1.2-2,5.126-3.964,10.266-5.96,15.406-2.119,5.468-4.292,10.854-6.37,16.294-.806,2.078-.7,2.16,1.367,2.966,6.739,2.734,13.464,5.386,20.217,8.024a24.434,24.434,0,0,0,3.062.875Zm-64.6-23.4a5.235,5.235,0,0,0-1.285-.848c-2.3-.683-4.675-1.148-6.93-1.927-2.734-.971-5.782-1.709-8.038-3.4a40.846,40.846,0,0,1-6.835-7.45c-3.622-4.511-6.835-9.336-11.728-12.685a7.86,7.86,0,0,1-3.048-4.907,4.1,4.1,0,0,0-1.763-2.57,5.6,5.6,0,0,1-2.078-2.734,3.7,3.7,0,0,0-1.927-2.42,72.791,72.791,0,0,0-19.889-8.584,1.6,1.6,0,0,0-2.078,1.025c-.683,1.367-1.367,2.871-2.064,4.279a1.367,1.367,0,0,0,.437,1.982c2.625,2.132,5.235,4.279,7.792,6.493a32.7,32.7,0,0,1,8.995,11.086,24.454,24.454,0,0,0,4.675,7.614c4.306,4.333,8.5,8.776,12.7,13.232a20.818,20.818,0,0,0,11.264,6.548,37.632,37.632,0,0,1,5.058,1.367c3.718,1.271,7.409,2.625,11.086,4.019,1.189.451,1.777.219,2.2-1.012.93-2.625,1.982-5.194,2.98-7.792.123-.424.232-.724.451-1.312ZM90.187,99.069c.178,2.119.355,4.019.478,5.919.219,3.322.355,6.657.6,9.979.137,1.681.642,3.39,2.324,4.1,3.65,1.449,7.354,2.734,11.1,3.978,8.01,2.515,16.1,4.812,23.238,9.569,2.584,1.7,4.525.916,5.386-2.05,1.6-5.468,3.089-11.031,4.716-16.526a1.791,1.791,0,0,0-1.367-2.584c-5.577-1.9-11.141-3.855-16.718-5.755s-10.936-3.773-16.4-5.468C99.8,99.11,95.955,98.317,92.128,97.5,90.651,97.073,89.8,97.633,90.187,99.069Zm165.988,24,.478-.328a9.87,9.87,0,0,0-1.777-2.16c-4.62-3.2-9.3-6.288-13.957-9.432-2.843-1.914-5.632-3.923-8.543-5.755-5.728-3.581-11.537-7.053-17.278-10.608-1.613-1-1.763-1.066-2.42.82-1.258,3.6-2.406,7.231-3.622,10.84a1.08,1.08,0,0,0,.82,1.613c1.449.451,2.912.93,4.347,1.449,5.687,2.078,11.318,4.265,17.046,6.206s8.038,6.438,5.946,12.111c-1.012,2.734-2.132,5.468-3.267,8.2-.451,1.066-.41,1.654.847,2.078,3.417,1.121,6.835,2.351,10.184,3.6a1.681,1.681,0,0,0,2.269-.574q4.511-6.438,9.049-12.836c.793-1.121,1.367-2.173.246-3.486C256.2,124.412,256.284,123.66,256.175,123.072Zm4.784,5.044-.273-.506a9.321,9.321,0,0,0-2.009,1.6c-2.9,4.019-5.7,8.12-8.557,12.18-1.2,1.722-1.217,1.681.533,2.966a10.021,10.021,0,0,1,2.2,1.941q3.718,4.88,7.286,9.869c2.091,2.925,4.1,5.905,6.179,8.858.492.724,1.012.765,1.558.082a36.01,36.01,0,0,0,2.583-3.185c4.1-6.411,8.2-12.877,12.3-19.3a1.121,1.121,0,0,0-.314-1.791c-4.21-3.185-8.2-6.657-12.658-9.569C267.193,129.579,264.841,126.654,260.959,128.116ZM25.174,97.633c.082.683.123.957.15,1.217,1.23,11.127,2.419,22.254,3.677,33.367.711,6.233,1.367,12.48,2.324,18.686,1.258,8.748,2.734,17.456,4.1,26.2.834,5.55,1.367,11.154,2.433,16.663,1.367,6.917,2.884,13.779,4.429,20.641.82,3.636.123,3.431,4.1,2.433,1.176-.3,1.558-.861,1.367-1.955-.082-.533-.178-1.08-.3-1.613-1.435-6.493-2.966-12.959-4.292-19.479s-2.392-12.754-3.527-19.137c-.971-5.468-2.146-10.826-2.734-16.294-1.23-11.51-2.132-23.047-3.171-34.57-.7-7.833-1.463-15.652-2.037-23.5-.328-4.566-.752-5.017-5.181-3.7C25.885,96.731,25.475,97.374,25.174,97.633ZM89.681,90.8a16.582,16.582,0,0,1,.164,2.433c-.178,1.7.533,2.105,2.173,2.132a19.26,19.26,0,0,1,5.8.848c8.038,2.611,16.021,5.468,24.031,8.106,11.018,3.718,22.035,7.4,33.039,11.113,3.158,1.066,4.32,2.666,4.456,6.042a1.763,1.763,0,0,0,1.258,1.845l20.5,8.2c4.866,1.914,9.815,3.65,14.64,5.687,1.558.656,2.037.219,2.488-1.107a40.616,40.616,0,0,1,2.037-5.345c.752-1.49.287-2-1.094-2.474-5.372-1.818-10.7-3.759-16.062-5.6q-11.523-3.95-23.088-7.846c-6.042-2.037-12.125-3.964-18.167-6.015-5.058-1.709-10.088-3.527-15.132-5.3-5.81-2.05-11.633-4.1-17.429-6.179-6.138-2.242-12.3-4.579-18.4-6.835C90.528,90.348,90.009,90.7,89.681,90.8Zm132.963,60.46c-.246-.232-.519-.656-.9-.82-2.146-.943-4.32-1.832-6.493-2.734-4.935-2.037-9.9-4.019-14.818-6.124-1.859-.793-2.05-.738-2.83,1.148-2.023,4.894-4.1,9.787-6.274,14.572-.738,1.586-.369,2.05,1.012,2.625q10.936,4.443,21.775,9.036c1.094.465,1.572.164,1.968-.861,1.5-3.868,3.062-7.71,4.579-11.578C221.318,154.881,221.919,153.2,222.644,151.259ZM143.183,137v.109a11.291,11.291,0,0,0-3.732.1c-1.039.4-1.791,1.572-2.734,2.406-.164.15-.437.232-.506.41-.246.642-.724,1.367-.6,1.955a8.284,8.284,0,0,0,3.718,5.181,9.445,9.445,0,0,1,1.941,1.476c2.529,2.912,4.962,5.919,7.491,8.844s5.331,6.206,8.2,9.077c1.709,1.7,2.283,1.367,3.2-.752.232-.547.519-1.08.738-1.64q4.1-10.416,8.2-20.846a1.217,1.217,0,0,0-.861-1.791c-1.367-.478-2.734-.875-4.2-1.367a1.586,1.586,0,0,0-2.05.711,51.32,51.32,0,0,1-4.1,4.866c-1.545,1.627-2.843,1.7-4.292,0-1.8-2.023-3.95-4.005-4.935-6.411-1.176-2.884-3.076-2.488-5.208-2.406ZM101.71,78.988a4.99,4.99,0,0,0-.848,1.148c-1.135,3.007-2.2,6.042-3.308,9.063-.383,1.053.369,1.367,1.107,1.613q3.144,1.162,6.3,2.269l27.6,9.815c.971.355,1.449,0,1.791-.834q1.613-3.923,3.226-7.833c.615-1.5.246-2.2-1.217-2.734-3.773-1.367-7.532-2.57-11.264-3.937-7.464-2.734-14.913-5.536-22.377-8.3C102.462,79.207,102.2,79.139,101.71,78.988Zm73.268,52.6a10.077,10.077,0,0,0-1.545-.984c-4.21-1.668-8.42-3.308-12.644-4.962a4.73,4.73,0,0,1-3.4-4.21c-.137-2.734-1.709-3.841-3.95-4.566-3.882-1.271-7.778-2.543-11.646-3.855a1.183,1.183,0,0,0-1.75.834c-.533,1.777-1.053,3.554-1.572,5.345-1.107,3.814-2.255,7.628-3.294,11.469a2.351,2.351,0,0,0,.629,1.709,12.1,12.1,0,0,0,2.16,1.927,3.513,3.513,0,0,0,1.832.711c1.681,0,3.39-.26,5.058-.15,1.873.109,2.734-.683,3.144-2.406a7.983,7.983,0,0,1,6.356-5.468,7.764,7.764,0,0,1,8.489,4.1,18.85,18.85,0,0,1,.752,5.468,1.444,1.444,0,0,0,1.121,1.668c1.476.424,2.871,1.08,4.347,1.463a1.763,1.763,0,0,0,1.531-.588c1.367-2.078,2.488-4.224,3.718-6.356C174.5,132.491,174.664,132.122,174.978,131.588Zm15.337,29.581a7.422,7.422,0,0,0-1.094,1.5c-1.367,3.54-2.734,7.122-4.1,10.662-1.107,2.83-1.176,2.9,1.545,4.1,6.985,2.939,14,5.782,21,8.694,1.121.478,1.558,0,1.941-.957,1.517-4.019,3.021-8.051,4.675-12.029.547-1.367.219-1.8-.984-2.3q-8.844-3.65-17.647-7.382Zm-18.591-19.288a17.033,17.033,0,0,1-1.75,4.1c-.875,1.066-2.2,1.722-1.135,3.376.1.15-.123.519-.219.765-2.146,5.468-4.224,10.936-6.479,16.4-.629,1.517-.219,1.927,1.2,2.378q8.557,2.734,17.032,5.687c1.9.656,1.927.711,2.652-1.217q2.283-6.028,4.648-12.029a1.107,1.107,0,0,0-.67-1.668c-1.968-.916-3.978-1.8-5.905-2.734s-3.95-2.132-4.839-4.4q-1.8-4.552-3.65-9.1a15.731,15.731,0,0,0-.888-1.558ZM204.3,198.118a8.694,8.694,0,0,0,1.545-2.05c.752-1.968,1.2-4.1,2-6.042.519-1.367,0-1.777-1.039-2.187-1.736-.656-3.458-1.367-5.167-2.064L174.992,174.5c-.957-.41-1.463-.219-1.859.806q-1.586,4.2-3.335,8.338c-.437,1.039,0,1.545.848,1.9l6.561,2.515c6.835,2.57,13.669,5.167,20.5,7.723C199.734,196.573,201.8,197.243,204.3,198.118Zm-31.358-58.956c.191.615.314,1.148.519,1.654,1.217,2.98,2.433,5.946,3.663,8.926,1.025,2.474,2.365,4.607,5.167,5.468a29.759,29.759,0,0,1,4.538,2.242c1.736.9,2.119.711,2.9-1.121,2.091-4.962,4.2-9.938,6.411-14.859.615-1.367.314-1.982-.971-2.488q-8.475-3.24-16.923-6.534a1.367,1.367,0,0,0-2,.711c-.779,1.5-1.7,2.925-2.543,4.388-.287.561-.519,1.107-.765,1.613ZM205,85.782l-.957,1.135c-1.968,2.42-4.251,4.2-7.587,4.2a20.313,20.313,0,0,0-3.745.342,4.716,4.716,0,0,0-3.978,2.734c-1.367,3.322.1,5.974,3.7,7.231,4.374,1.517,8.694,3.171,13.013,4.853,1.121.437,1.627.369,2.023-.889,1.271-3.991,2.734-7.942,3.95-11.947A2.31,2.31,0,0,0,211,91.482c-1.627-1.736-3.417-3.363-5.14-5.017C205.625,86.26,205.352,86.083,205,85.782Zm-2.255,43.742c-.082.219-.287.724-.478,1.23-.314.806-.6,1.64-.943,2.447a1.34,1.34,0,0,0,.93,1.873q10.457,4.21,20.914,8.461c1.217.492,2.091.478,2.461-1.025a19.566,19.566,0,0,1,.889-2.461c.765-1.955.683-2.05-1.258-2.734q-7.6-2.6-15.3-5.194ZM43.1,172.146l.41-.068c-.3-2.666-.67-5.331-.916-8.01-1.094-11.838-2.255-23.689-3.212-35.541-.793-10.389-1.463-20.8-2.16-31.194,0-.519-.574-.984-.875-1.476-.314.533-.9,1.066-.916,1.613a51.386,51.386,0,0,0,.273,5.222c.847,9.951,1.654,19.916,2.625,29.854,1.148,11.66,2.447,23.32,3.745,34.98a36.554,36.554,0,0,0,1.025,4.62Zm188.926,26.327c-.547-.506-.765-.848-1.066-.971-3.745-1.476-7.5-2.9-11.25-4.374-.93-.369-1.367,0-1.736.834-.765,2.037-1.6,4.1-2.365,6.083a8.779,8.779,0,0,0-.287,1.517,5.578,5.578,0,0,0,1.681.219c3.527-.656,7.053-1.367,10.567-2.078,1.367-.287,2.693-.738,4.456-1.23Zm-31.44-61.909a5.906,5.906,0,0,0-1,1.367,1.367,1.367,0,0,0,.41,1.189,18.1,18.1,0,0,0,2.734,1.217c6.4,2.638,12.808,5.235,19.137,7.942,1.2.519,1.763.328,2.31-.779s0-1.654-.984-2.064c-6.684-2.734-13.355-5.372-20.026-8.051-.834-.246-1.627-.478-2.638-.82Zm-64.055-.342a2.912,2.912,0,0,0-2.556-2.351,2.871,2.871,0,0,0-2.433,2.488,2.953,2.953,0,0,0,2.543,2.378,3.007,3.007,0,0,0,2.447-2.515Zm19.506.123,1.189-1.189c-.492-.478-.916-1.176-1.49-1.367-.328-.109-.916.67-1.367,1.039ZM54.988,115.828h.7l-.273-3.445h-.424Z" transform="translate(-5.78 -60.62)" fill="#fff"/>
    </g>
  </g>
</svg>
